<?xml version="1.0" encoding="UTF-8" standalone="no"?>
<svg
   xmlns:dc="http://purl.org/dc/elements/1.1/"
   xmlns:cc="http://creativecommons.org/ns#"
   xmlns:rdf="http://www.w3.org/1999/02/22-rdf-syntax-ns#"
   xmlns:svg="http://www.w3.org/2000/svg"
   xmlns="http://www.w3.org/2000/svg"
   xmlns:xlink="http://www.w3.org/1999/xlink"
   width="166.95244mm"
   height="212.40353mm"
   viewBox="0 0 166.95244 212.40353"
   version="1.1"
   id="svg8">
  <defs
     id="defs2">
    <linearGradient
       id="linearGradient1628">
      <stop
         style="stop-color:#eee251;stop-opacity:1"
         offset="0"
         id="stop1624" />
      <stop
         style="stop-color:#ffffff;stop-opacity:1"
         offset="1"
         id="stop1626" />
    </linearGradient>
    <radialGradient
       xlink:href="#linearGradient1628"
       id="radialGradient1634"
       gradientUnits="userSpaceOnUse"
       gradientTransform="matrix(1.0202246,-0.02347909,0.02696292,1.1716056,-210.76772,-20.588887)"
       cx="115.18504"
       cy="136.26892"
       fx="115.18504"
       fy="136.26892"
       r="110.12207" />
  </defs>
  <metadata
     id="metadata5">
    <rdf:RDF>
      <cc:Work
         rdf:about="">
        <dc:format>image/svg+xml</dc:format>
        <dc:type
           rdf:resource="http://purl.org/dc/dcmitype/StillImage" />
        <dc:title></dc:title>
      </cc:Work>
    </rdf:RDF>
  </metadata>
  <g
     id="layer1"
     transform="translate(174.79349,-23.919149)">
    <rect
       y="-0.089287184"
       x="-200.32597"
       height="265.33926"
       width="219.98215"
       id="rect1632"
       style="opacity:1;fill:url(#radialGradient1634);fill-opacity:1;stroke:#000000;stroke-width:0.26199999;stroke-miterlimit:4;stroke-dasharray:none;stroke-opacity:1" />
    <g
       id="g1567"
       transform="translate(-40.966865,-5.8262057)">
      <path
         id="path1415"
         d="m -89.958333,97.759299 0.02363,-1.700892 16.512833,-2.622212 16.489211,0.685083 4.960938,1.795386 7.181548,-0.944941 9.071428,-1.275667 15.213542,0.14174 7.512276,1.27567 3.071057,1.086681 0.2362351,0.708705 -0.5669641,5.055428 -1.889881,6.33111 c 0,0 -4.299479,6.99255 -4.677455,7.08705 -0.377977,0.0945 -6.803572,3.30729 -6.803572,3.30729 l -8.362723,-0.37798 c 0,0 -6.756324,-3.68526 -6.945312,-3.59077 -0.188988,0.0945 -5.811384,-7.9375 -5.811384,-7.9375 l -4.535715,-4.67746 -1.370163,-0.85044 -1.322917,0.85044 -1.086681,2.07887 -0.992187,2.59859 -1.511906,4.11049 -1.795386,2.22061 c 0,0 -6.345912,3.97962 -6.613181,4.24689 -0.267269,0.26727 -7.984678,1.57021 -7.984678,1.57021 l -7.316501,-0.86863 -4.977895,-3.34087 -3.674957,-7.01583 -2.004523,-7.21627 z"
         style="fill:#ffffff;fill-opacity:1;stroke:none;stroke-width:0.26458332px;stroke-linecap:butt;stroke-linejoin:miter;stroke-opacity:1" />
      <path
         id="path1413"
         d="m -88.162944,138.34449 c -2.504561,-2.83388 -4.456283,-6.77344 -5.953125,-11.62276 l -1.13393,-9.07143 2.36235,-2.83482 3.023812,-0.56697 2.929313,-0.18899 z"
         style="fill:#ffc8a2;fill-opacity:0.99215686;stroke:none;stroke-width:0.26458332px;stroke-linecap:butt;stroke-linejoin:miter;stroke-opacity:1" />
      <path
         id="path1411"
         d="m -16.81994,115.57143 1.984375,-2.07887 2.834821,0.94494 1.700893,2.92931 -0.188988,7.27604 -2.078869,6.52009 -2.267857,6.04762 -2.173363,-16.72544 -2.645833,-3.11831 z"
         style="fill:#ffc8a2;fill-opacity:0.99215686;stroke:none;stroke-width:0.26458332px;stroke-linecap:butt;stroke-linejoin:miter;stroke-opacity:1" />
      <path
         d="m -19.969305,93.645212 c -2.438122,0.24107 -1.44144,-0.965524 -1.946129,-3.52328 -2.15782,-7.24999 -5.774043,-12.591887 -9.581525,-14.842081 2.713655,-4.026137 -1.783477,-15.500286 0.07869,-12.910192 0.926805,2.718562 2.973851,4.588818 2.711253,7.797904 0.09295,1.523595 -0.188682,3.334041 -0.155483,4.859623 -0.828513,0.108184 1.888944,0.480461 2.048057,1.745477 1.624729,1.990936 3.976959,2.459262 4.518649,5.063289 1.503585,2.590744 2.561244,6.073671 3.088361,9.031345 0.06091,1.470713 1.800553,3.591308 -0.795281,2.978367 z m -69.881399,2.336028 c 2.686383,-0.480727 1.367289,-4.267477 2.632212,-6.293632 0.323218,-2.752434 2.235254,-5.481994 3.763347,-7.758389 1.714867,-2.281434 2.596994,-4.220243 4.516604,-6.296886 4.027905,-2.966616 1.980173,-4.058496 4.328347,-6.991408 1.149249,-2.183649 3.601335,-3.715917 4.952771,-5.705383 2.081525,-0.808368 3.14215,-2.035737 5.743778,-3.283256 2.334884,-0.402038 4.994928,-1.804907 7.130973,-2.569016 2.480304,-1.0137 5.275745,-0.629362 7.98575,-0.794539 2.626784,0.104193 5.77048,-0.136754 8.161193,1.072816 2.453147,0.579436 4.616852,1.864853 6.538699,3.023466 4.056004,1.425059 2.577754,8.861668 4.407978,8.927178 0.787261,8.776679 -1.501363,6.654878 -10.736209,0.968637 -10.78533,-3.430614 -23.357556,-3.38108 -33.015205,3.110713 -5.155205,3.513656 -8.857386,8.819215 -10.228504,14.913704 -0.687494,2.055617 -1.200714,5.377375 -0.725837,6.423506 -0.996286,0.43222 -3.838319,1.223155 -5.455897,1.252489 z"
         style="opacity:0.98999999;fill:#833400;fill-opacity:1;stroke:none;stroke-width:0.13363476;stroke-opacity:1"
         id="path1406" />
      <path
         id="path1385"
         d="m -53.677133,211.47648 c -3.55795,-0.29905 -3.0434,-1.40689 -6.482235,-2.47888 -2.210533,-1.14428 -5.878445,-1.87705 -7.912649,-3.27111 -2.097363,-0.68241 -1.893984,-1.55571 -3.697681,-2.87122 -2.162704,-1.05806 -2.811874,-2.94822 -4.866575,-4.27426 -2.350365,-1.00559 -2.840467,-4.30609 -3.929439,-6.44916 -1.522921,-3.35331 -0.830471,-6.97645 -0.186841,-10.53526 0.348221,-1.37159 0.706645,-5.29705 1.971568,-2.73385 4.399692,5.93208 11.166064,10.91146 18.346337,12.4959 5.871104,1.55135 12.005923,1.32751 18.013351,1.02365 4.336993,-1.62612 7.176631,-2.54829 11.854643,-3.85507 4.171814,-3.45035 8.207532,-6.96425 10.73872,-11.66151 0.305941,3.62116 1.18033,6.23275 1.303879,9.24681 0.661177,4.91145 1.846575,10.53753 -0.898769,14.91088 -1.298293,3.01179 -4.333271,4.88564 -6.361559,6.37066 -1.756421,1.6779 -5.491952,2.47323 -7.623778,3.63495 -2.35192,0.35047 -6.570161,0.98908 -8.980094,1.16751 -2.102627,0.18799 -5.443051,0.0175 -7.547105,-0.18547 z"
         style="opacity:0.98999999;fill:#ffc8a2;fill-opacity:0.99215686;stroke:none;stroke-width:0.1889881;stroke-opacity:1" />
      <path
         id="path1400"
         d="m -75.952023,180.08545 c -7.896124,-9.18263 -10.171936,-22.14144 -11.359492,-33.82066 -0.0557,-2.68598 -1.17675,-4.51027 -0.621393,-7.29732 -0.05316,-2.51694 0.08623,-5.32925 -0.07254,-8.03175 -0.128241,-1.74513 0.107715,-12.64148 0.574183,-15.76173 0.211611,-1.95458 1.501569,-3.20611 1.264119,-0.0604 0.06868,3.52608 1.185911,17.41739 1.957491,20.79478 -0.06488,0.62156 4.78079,5.56632 5.675689,6.59835 2.135026,1.71636 5.966918,-1.27955 4.485762,3.72987 2.838797,1.53431 1.139291,-2.84691 2.622873,-4.5705 2.37317,-5.34013 8.707326,-8.1975 14.244061,-8.84313 3.070643,-0.91355 5.122155,0.58934 8.094544,1.60083 1.255187,-1.26014 5.850273,-3.69232 8.840285,-2.52486 7.227329,1.1725 12.999743,7.35515 14.464507,14.4724 1.144228,2.06873 3.233238,-1.50619 5.949373,-3.86209 0.616911,-1.7811 0.959612,-1.25231 1.258035,-3.33116 0.947511,-3.39747 1.42613,-4.28384 1.546115,-7.20726 0.293111,-9.97815 -0.719328,-13.00869 0.449943,-14.03806 0.935303,2.93683 1.149258,14.34439 1.401734,17.18106 0.622933,8.44418 0.157973,17.26446 -1.047557,25.63299 -0.763594,3.32734 -0.925031,6.88756 -2.454157,9.94014 -1.147377,2.21112 -2.108622,6.18811 -4.106524,8.46334 -4.127417,6.35449 -12.223607,10.53765 -19.673506,11.34612 -3.324582,0.30389 -6.871397,-0.11884 -10.205441,-0.28086 -7.225247,-0.34096 -18.119769,-4.14967 -23.288103,-10.13014 z"
         style="opacity:0.98999999;fill:#bc4b00;fill-opacity:1;stroke:none;stroke-width:0.13363476;stroke-opacity:1" />
      <path
         id="path1389"
         d="m -74.076279,143.03084 c -3.187748,0.19206 -5.87219,-1.064 -7.538662,-4.48688 -4.047468,-4.25172 -5.671773,-27.74539 -3.980374,-24.30972 2.855759,3.5975 8.460791,6.46012 12.88786,6.54828 3.467987,-1.37236 5.598619,-0.82189 8.771044,-3.10156 2.076575,-1.80049 5.263135,-2.23745 7.577523,-4.1147 1.586447,-3.158 2.675942,-7.92271 4.142503,-11.12149 2.427441,-3.375477 5.844722,3.25897 7.047655,5.12325 1.749055,2.81769 4.380599,5.11263 6.728033,7.54414 2.099701,1.43338 2.207438,3.56598 5.588938,3.49663 2.882536,0.38403 3.303173,1.80698 6.105933,1.10775 2.810309,-0.93208 5.284495,-0.78004 7.963741,-2.05196 4.240996,4.16136 -0.235433,19.44968 -1.575767,23.8798 0.05019,2.47332 -5.328607,7.29998 -5.171633,4.50685 -0.809895,-3.69546 -2.372276,-8.07211 -4.797073,-10.97467 -2.146807,-1.70443 -4.754828,-3.09356 -7.447418,-3.92388 -4.319589,0.75807 -7.17849,-0.6369 -11.405137,3.64855 -5.426966,-3.01368 -6.927523,-2.27493 -12.615914,-2.64666 -4.96868,1.2709 -8.865175,3.84403 -9.95421,9.06231 -1.206212,1.52026 0.624787,6.48892 -2.191843,5.21619 -0.769175,-0.83458 -0.61059,-2.37162 -0.135199,-3.40223 z"
         style="opacity:0.98999999;fill:#ffc8a2;fill-opacity:1;stroke:none;stroke-width:0.1889881;stroke-opacity:1" />
      <path
         id="path1387"
         d="m -53.605059,95.020066 c -4.824116,-2.335514 -10.212464,-2.119934 -15.416728,-2.027713 -4.765871,0.192214 -9.360527,1.174911 -14.073542,1.844936 -1.542711,0.654497 -1.597894,-0.222929 -1.408981,-1.930969 0.476441,-2.72074 0.838414,-5.673803 1.698861,-8.150696 1.363003,-2.726941 3.304083,-5.5252 5.664192,-7.597972 4.903822,-4.875429 11.481141,-8.233396 18.284558,-8.906126 2.323129,0.215646 4.774841,0.490106 7.165811,0.01593 2.166385,0.113996 4.334721,0.552508 6.501166,1.461584 2.531586,0.493874 4.9085,1.349682 7.310876,2.328807 7.568026,3.227946 14.014389,9.781148 15.88338,17.94752 0.677221,2.281192 0.786292,4.317408 -0.176689,3.591213 -7.042274,-0.402169 -14.153862,-0.857301 -21.150749,0.315906 -2.395135,0.644565 -4.673126,1.988762 -7.276417,1.565106 -3.892664,0.022 -2.145678,0.05795 -3.005738,-0.457526 z"
         style="opacity:0.98999999;fill:#ffc8a2;fill-opacity:1;stroke:none;stroke-width:0.1889881;stroke-opacity:1" />
      <path
         id="path861"
         d="m -84.11956,132.01225 c -0.174063,-0.75131 -0.330122,-1.50996 -0.476763,-2.26493 -0.680427,-3.57411 -1.021034,-7.12964 -1.255992,-10.3965 -0.06926,-1.74129 -0.159772,-3.38238 -0.269988,-4.8959 -0.160049,1.50952 -0.30468,3.15058 -0.431489,4.89543 -0.134642,3.29912 -0.01534,6.93853 0.615935,10.63881 0.12927,0.77515 0.279174,1.55702 0.459241,2.33725 0.663978,2.87452 1.710712,5.59559 3.484525,7.83287 0,0 10e-7,0 10e-7,0 1.025821,1.29362 2.315694,2.30299 3.75709,2.83179 1.729774,0.62244 3.48943,0.4867 4.944665,0.0604 -1.49207,0.15966 -3.200067,0.0315 -4.670036,-0.70614 -1.239712,-0.61111 -2.290338,-1.62347 -3.145709,-2.8479 0,0 -10e-7,0 -10e-7,0 -1.508594,-2.1562 -2.369628,-4.71228 -3.011479,-7.48521 z"
         style="opacity:1;fill:#aa4400;stroke:none;stroke-width:0.26458332px;stroke-linecap:butt;stroke-linejoin:miter;stroke-opacity:1" />
      <path
         id="path871"
         d="m -64.743423,135.25758 c 0.496762,-0.26211 1.005239,-0.5042 1.520097,-0.72682 2.458939,-1.04695 4.976029,-1.64985 7.442639,-1.71114 1.097477,-0.0251 2.129621,0.0496 3.105185,0.32061 0.859553,0.24254 1.637009,0.61746 2.216985,1.23457 -0.405343,-0.74409 -1.132253,-1.35546 -2.003834,-1.78404 -0.981081,-0.48771 -2.094689,-0.7665 -3.269268,-0.89088 -2.645549,-0.28542 -5.461985,0.14715 -8.15329,1.23287 -0.568834,0.22613 -1.12981,0.48302 -1.677239,0.77133 -2.123381,1.11901 -3.967377,2.67168 -5.265598,4.60432 -1.937516,2.92333 -2.103529,6.39266 -1.36411,8.9183 -0.0761,-2.61739 0.61307,-5.67365 2.544043,-8.05865 1.28088,-1.6086 2.979919,-2.89578 4.90439,-3.91047 z"
         style="opacity:1;fill:#aa4400;stroke:none;stroke-width:0.26458332px;stroke-linecap:butt;stroke-linejoin:miter;stroke-opacity:1" />
      <path
         id="path891"
         d="m -33.30587,133.19903 c -0.818623,-0.51259 -1.678244,-0.95347 -2.567281,-1.31613 -2.531386,-1.04383 -5.229589,-1.42109 -7.710052,-0.90147 -2.332111,0.47639 -4.150234,1.93307 -4.796476,3.67844 1.002786,-1.55974 2.850841,-2.49591 4.947333,-2.70954 2.285782,-0.2235 4.666122,0.314 6.97104,1.31997 0.804226,0.35501 1.584883,0.76991 2.334242,1.2395 1.664299,1.04238 3.145496,2.33615 4.378533,3.80277 2.346195,2.78287 3.6221,6.07681 4.236557,9.00872 0.0304,-3.00788 -0.816612,-6.64168 -3.171696,-9.84505 -1.232452,-1.67233 -2.802043,-3.13692 -4.6222,-4.27721 z"
         style="opacity:1;fill:#aa4400;stroke:none;stroke-width:0.26458332px;stroke-linecap:butt;stroke-linejoin:miter;stroke-opacity:1" />
      <path
         id="path1395"
         d="m -30.099773,119.02854 c -2.340364,-0.38543 -3.945205,-0.29949 -5.902892,-1.7656 -1.969771,-0.95818 -1.505884,-2.07566 -3.786489,-2.75485 -2.309131,-3.44336 -4.706908,-6.84722 -7.107113,-10.24916 -4.430535,-4.10723 -3.825883,-1.72309 -4.32581,-2.00534 -2.701509,1.52535 -3.273075,4.94488 -4.770048,7.43989 -1.319609,3.76278 -5.257482,5.28897 -8.61173,6.74165 -4.370763,1.74739 -9.459595,2.80429 -13.976471,1.05532 1.875787,-1.82539 3.215716,-4.48037 2.5445,-7.18357 -0.390027,-3.22503 -1.96273,-7.08163 -4.960299,-7.29651 -3.969611,-0.28456 -2.392039,8.41316 -1.260423,11.59851 2.106491,2.98003 -2.416598,-1.68681 -2.802344,-2.79043 -7.710748,-11.10695 -4.06402,-15.520485 -5.069171,-15.440702 2.973115,-0.991388 6.299367,-0.908108 9.423246,-1.313415 7.793228,-0.467551 15.769765,-1.368478 23.474146,0.336772 2.573147,0.875535 5.337533,2.504597 8.156459,2.011488 10.342427,-3.770644 18.615435,-3.447091 35.438761,-2.028969 3.214124,-0.281988 3.985749,2.289286 3.064885,4.980516 -0.835286,2.24388 -1.395289,4.57596 -2.637979,7.26577 -1.603165,3.02837 -3.247167,5.32032 -5.461803,7.20072 -2.220409,-2.0107 -2.923857,0.25242 -3.672831,2.11065 -2.750108,1.22336 -6.012083,0.91963 -8.899739,0.34106 -4.5571,-1.31378 -8.91381,-3.91443 -11.315354,-8.13594 -1.845095,-2.6123 -3.555804,-5.66403 -6.51139,-7.1302 3.266234,3.24296 4.727472,7.72314 7.340138,11.43004 3.769289,4.21377 9.370832,6.94095 15.074504,6.84416 3.562391,-0.0185 -0.956396,-0.59631 -1.775492,-0.71074 0.227978,-2.25171 -1.277228,-0.18154 -1.669261,-0.55112 z m 14.682967,-12.64286 c 0.564471,-2.63231 -0.383281,-5.05599 -3.528006,-4.68997 -2.666122,-0.4184 -1.366342,4.79537 -0.319767,5.98586 1.767185,2.16054 3.983585,-0.66764 3.847773,-1.29589 z m -71.361389,-7.345229 c 1.795706,-2.189321 -1.934441,-3.455536 -1.983472,-1.126564 0.376662,1.219115 0.766707,1.659504 1.983472,1.126564 z m 75.152177,-0.03359 c 0.758571,-1.237006 0.417873,-2.751957 -1.264403,-2.147755 -1.646722,-0.198019 0.247357,3.190544 1.264403,2.147755 z"
         style="opacity:0.98999999;fill:#26211d;fill-opacity:1;stroke:none;stroke-width:0.1889881;stroke-opacity:1" />
      <path
         id="path911"
         d="m -17.018809,133.82326 c 0.06986,-0.55114 0.129129,-1.10134 0.180413,-1.64902 0,0 0,-1e-5 0,-1e-5 0.101486,-4.77723 -0.0244,-9.33302 -0.360963,-13.01204 -0.570243,3.65207 -0.985351,8.16004 -1.187882,12.90506 0,0 0,0 0,0 -0.06372,0.53491 -0.128611,1.07055 -0.197117,1.60454 -0.339521,2.65232 -0.749157,5.09686 -1.50966,7.45264 0,0 -1e-6,0 -1e-6,0 -0.397225,1.22152 -0.842187,2.31701 -1.516003,3.26278 0,0 -1e-6,0 -1e-6,0 -0.602612,0.84214 -1.372467,1.50194 -2.296722,1.80172 0.970687,-0.0657 1.969274,-0.57347 2.781672,-1.38716 0,-1e-5 0,-1e-5 0,-1e-5 0.89693,-0.89227 1.571612,-2.02217 2.1165,-3.26161 0,0 10e-7,0 10e-7,0 1.055515,-2.38853 1.644328,-4.99755 1.989763,-7.71689 z"
         style="opacity:1;fill:#aa4400;stroke:none;stroke-width:0.26458332px;stroke-linecap:butt;stroke-linejoin:miter;stroke-opacity:1" />
      <g
         transform="translate(-16.630952)"
         style="opacity:1"
         id="g1042">
        <path
           style="fill:#ffb380;stroke:none;stroke-width:0.26458332px;stroke-linecap:butt;stroke-linejoin:miter;stroke-opacity:1"
           d="m -78.714508,124.80054 c 0.114668,0.444 0.241443,0.88309 0.377172,1.31697 0.930383,2.97964 2.261657,5.71691 3.645259,8.0986 l 0,0 0,0 0,0 c 0.536863,0.92466 1.079773,1.7878 1.624482,2.58935 l 0,0 c 0.166922,0.24563 0.333064,0.4841 0.500068,0.71638 l 0,0 c 0,0 0,0 0,0 0.04567,0.0635 0.09128,0.1264 0.137104,0.18877 0,0 0,0 0,0 0.01202,0.0164 0.02404,0.0327 0.03609,0.0489 0.0043,0.006 0.0086,0.0116 0.0129,0.0174 -0.003,-0.006 -0.0061,-0.0131 -0.0091,-0.0196 -0.0085,-0.0184 -0.01692,-0.0367 -0.02537,-0.0552 0,0 -10e-7,0 -10e-7,0 -0.03223,-0.0703 -0.06427,-0.14091 -0.0965,-0.21214 -10e-7,0 -10e-7,0 -10e-7,0 l 0,0 c -0.118133,-0.26115 -0.23537,-0.52396 -0.355699,-0.79536 l 0,0 c -0.393535,-0.88763 -0.792956,-1.80636 -1.20787,-2.78642 l 0,0 -10e-7,0 0,0 c -1.062814,-2.51173 -2.185435,-5.27971 -3.035754,-8.16284 -0.124059,-0.42149 -0.242407,-0.84424 -0.351917,-1.26792 -0.253731,-0.98069 -0.458115,-1.95861 -0.579581,-2.94023 -0.147892,-1.24148 -0.186247,-2.44013 0.09252,-3.55337 0.248283,-1.00114 0.786777,-1.9081 1.562182,-2.49537 1.074486,-0.83754 2.559424,-1.1282 3.817106,-1.24114 -1.257712,-0.147 -2.813146,-0.1173 -4.194591,0.67125 -0.999048,0.58815 -1.776276,1.58957 -2.165639,2.77976 -0.416337,1.27553 -0.468574,2.6356 -0.342035,3.96989 0.09601,1.05965 0.294039,2.10484 0.559153,3.13232 z"
           id="path921" />
        <path
           style="fill:#ffb380;stroke:none;stroke-width:0.26458332px;stroke-linecap:butt;stroke-linejoin:miter;stroke-opacity:1"
           d="m 5.5561314,123.47277 c -0.066002,0.3776 -0.1359953,0.75655 -0.2063372,1.13369 -0.4915986,2.54559 -1.1488604,5.01543 -1.761608,7.28606 l 0,0 -2e-7,1e-5 0,0 c -0.2372224,0.87856 -0.4530592,1.66691 -0.674407,2.47032 l 0,0 c -0.066339,0.24078 -0.1299656,0.47137 -0.1949588,0.70396 l 0,0 c -1e-7,0 -1e-7,0 -1e-7,0 -0.017618,0.063 -0.035125,0.12549 -0.052788,0.18784 0,0 -1e-7,0 -1e-7,0 -0.00463,0.0163 -0.00927,0.0327 -0.013926,0.049 -0.00166,0.006 -0.00336,0.0118 -0.00504,0.0176 0.00317,-0.005 0.00636,-0.0104 0.00951,-0.0156 0.00881,-0.0145 0.017585,-0.029 0.026354,-0.0436 0,0 3e-7,0 3e-7,0 0.03341,-0.0555 0.066604,-0.11149 0.099771,-0.16795 10e-8,0 2e-7,0 3e-7,0 l 0,0 c 0.1216013,-0.20701 0.241852,-0.41916 0.3619225,-0.63718 l 10e-8,0 c 0.3950975,-0.7174 0.7815337,-1.48658 1.1565194,-2.30654 l 0,0 2e-7,0 0,0 c 0.9894629,-2.16237 1.883784,-4.62274 2.449226,-7.25794 0.084845,-0.38348 0.1642893,-0.77246 0.2349765,-1.16614 0.3922136,-2.18801 0.4878052,-4.40536 -0.1405004,-6.48314 0,0 -4e-7,0 -4e-7,0 -0.3125082,-1.0475 -0.8815926,-1.99452 -1.6919572,-2.63147 -0.9651395,-0.73607 -2.1052291,-0.90853 -3.0741009,-0.83421 0.9413505,0.18251 1.9564174,0.59557 2.6136784,1.33875 0.5781281,0.62955 0.9032512,1.47579 1.0861394,2.39534 -1e-7,0 10e-8,0 10e-8,0 0.3713039,1.89047 0.1464265,3.85453 -0.2224764,5.96132 z"
           id="path931" />
      </g>
      <path
         id="path941"
         d="m -53.546277,67.624332 c -7.54665,-0.111841 -14.963651,1.865003 -20.752191,6.091881 0,0 -10e-7,2e-6 -10e-7,2e-6 -3.061548,2.239646 -5.504722,5.054393 -7.183105,8.132317 -2.057489,3.778335 -2.923757,7.827878 -3.089519,11.516876 0.387622,-3.654445 1.450513,-7.629655 3.597556,-11.22725 1.749684,-2.935731 4.205318,-5.583707 7.209188,-7.673641 10e-7,0 2e-6,-10e-7 2e-6,-10e-7 5.67792,-3.958159 12.873991,-5.761087 20.201721,-5.666078 0.12036,0.0016 0.240679,0.0036 0.36095,0.0062 7.542549,0.174653 14.842103,2.312286 20.686032,6.361562 2.992801,2.072478 5.492963,4.604959 7.332825,7.446589 2.117326,3.26707 3.289703,6.870137 3.733746,10.279963 -0.236302,-3.432659 -1.232671,-7.138684 -3.265295,-10.570166 -1.767836,-2.981673 -4.251327,-5.67521 -7.282324,-7.886157 -5.920225,-4.316203 -13.417828,-6.631751 -21.178302,-6.804878 -0.123707,-0.003 -0.24747,-0.0054 -0.371283,-0.0072 z"
         style="opacity:1;fill:#552200;fill-opacity:1;stroke:none;stroke-width:0.26458332px;stroke-linecap:butt;stroke-linejoin:miter;stroke-opacity:1" />
      <path
         id="path951"
         d="m -83.850911,83.384044 c 0.623852,-1.078175 1.282178,-2.12521 1.962314,-3.144868 0,0 0,0 0,0 l 0,0 c 1.18797,-1.777975 2.314149,-3.318535 3.537051,-4.752159 l 0,0 0,0 0,0 c 0.396274,-0.46293 0.755653,-0.879728 1.179748,-1.248929 l 0,0 c 0.117095,-0.100581 0.226779,-0.197429 0.360552,-0.258213 l 0,0 c 0,0 0,0 0,0 0.03703,-0.01645 0.07559,-0.03109 0.114061,-0.02813 0,0 0,0 0,0 0.02698,0.0021 0.05144,0.0181 0.06272,0.0412 -0.01006,-0.02958 -0.03566,-0.05221 -0.06488,-0.06074 0,0 0,0 0,0 -0.04166,-0.01216 -0.08562,-0.0064 -0.126534,0.0025 0,0 0,0 0,0 l 0,0 c -0.152609,0.03199 -0.294677,0.107274 -0.429978,0.183086 l 0,0 c -0.502592,0.2786 -0.960817,0.638507 -1.429256,1.03245 l 0,0 -10e-7,0 0,0 c -1.454869,1.221108 -2.817389,2.709987 -4.117929,4.439984 l 0,0 c 0,0 0,1e-6 0,1e-6 -0.755797,1.003954 -1.465754,2.065673 -2.110022,3.179195 -0.692506,1.197585 -1.294741,2.430359 -1.794027,3.688068 -1.150457,2.889692 -1.620679,5.62376 -1.454726,8.041862 0.396868,-2.416999 1.185786,-4.857503 2.469369,-7.603726 0.55535,-1.185034 1.170018,-2.351675 1.841536,-3.51154 z"
         style="opacity:1;fill:#552200;stroke:none;stroke-width:0.26458332px;stroke-linecap:butt;stroke-linejoin:miter;stroke-opacity:1" />
      <path
         id="path961"
         d="m -21.220034,82.06987 c -0.556979,-0.91874 -1.184945,-1.782597 -1.863067,-2.585389 0,0 0,-10e-7 0,-10e-7 -1.316144,-1.566478 -2.75314,-2.861448 -4.333145,-3.763824 0,0 0,0 0,0 -0.522856,-0.302411 -1.061667,-0.566369 -1.631832,-0.664057 -0.17534,-0.03219 -0.365529,-0.04372 -0.537624,0.0093 -0.131439,0.04039 -0.236324,0.137618 -0.273199,0.251684 0.06896,-0.09796 0.184035,-0.145504 0.291601,-0.147268 0.153116,-0.0044 0.29834,0.05384 0.448604,0.119952 0.485824,0.221448 0.884529,0.566174 1.330183,0.953278 0,0 0,0 0,0 1.311743,1.15705 2.448701,2.509209 3.62434,4.095406 0,0 0,0 0,0 0.592013,0.80386 1.156923,1.636655 1.679578,2.497817 0.673608,1.109033 1.261719,2.239694 1.75201,3.401646 1.029417,2.450979 1.490533,4.746914 1.45714,6.93817 0.677531,-2.081437 0.667476,-4.68753 -0.226258,-7.396674 -0.420867,-1.283369 -1.002098,-2.527748 -1.718331,-3.710027 z"
         style="opacity:1;fill:#552200;stroke:none;stroke-width:0.26458332px;stroke-linecap:butt;stroke-linejoin:miter;stroke-opacity:1" />
      <path
         id="path971"
         d="m -50.432048,54.793761 c -5.804381,0.299811 -11.357943,1.984164 -16.040934,4.853849 0,0 -2e-6,2e-6 -2e-6,2e-6 -2.612106,1.598441 -4.851179,3.550822 -6.568211,5.786768 -1.852528,2.413175 -2.974301,5.067914 -3.402175,7.615332 0.876513,-2.428865 2.330302,-4.772146 4.324601,-6.819684 1.853651,-1.904521 4.103627,-3.502443 6.6428,-4.822114 1e-6,-10e-7 2e-6,-10e-7 2e-6,-10e-7 4.563062,-2.368608 9.773612,-3.731523 15.179098,-4.015443 0.492547,-0.02597 0.985374,-0.04288 1.478021,-0.05078 2.750865,-0.03879 5.466784,0.21292 8.054027,0.86699 2.408469,0.613944 4.659974,1.541294 6.552504,2.918006 1.871061,1.355638 3.349859,3.151308 4.224597,5.161385 1.124163,2.549389 1.301314,5.440066 1.074893,7.989902 0.680278,-2.47305 0.960031,-5.449152 0.07532,-8.409326 -0.708987,-2.332621 -2.15479,-4.534848 -4.181513,-6.254335 -2.030833,-1.718618 -4.488014,-2.933788 -7.111231,-3.70697 -2.812435,-0.834557 -5.762561,-1.18874 -8.718963,-1.160421 -0.527479,0.0041 -1.055278,0.01969 -1.582833,0.04684 z"
         style="opacity:1;fill:#552200;stroke:none;stroke-width:0.26458332px;stroke-linecap:butt;stroke-linejoin:miter;stroke-opacity:1" />
      <path
         id="path981"
         d="m -49.870998,95.328732 c -0.231447,-2.76e-4 -0.463543,-0.0059 -0.69583,-0.01642 -1.214368,-0.0582 -2.365863,-0.08342 -3.136285,-0.604985 l 0,0 c -1.257601,-0.758224 -2.62864,-1.126675 -3.924179,-1.364923 l 0,0 -2e-6,0 -10e-7,0 c -1.746785,-0.33533 -3.498722,-0.472793 -5.209274,-0.532179 l 0,0 c -4.194292,-0.147727 -8.325882,0.152322 -12.195072,0.578598 l 0,0 -2e-6,0 0,0 c -3.781985,0.415795 -7.334874,0.967028 -10.678007,1.643671 l 0,0 c -1.13608,0.229888 -2.220503,0.463219 -3.287752,0.752272 l 0,0 c -0.296027,0.08012 -0.588882,0.160579 -0.872432,0.267476 l 0,0 c 0,0 -2e-6,10e-7 -2e-6,10e-7 -0.07208,0.02713 -0.14489,0.05452 -0.210747,0.09497 0,0 -2e-6,10e-7 -2e-6,10e-7 -0.01653,0.01016 -0.03339,0.02083 -0.04515,0.03656 -0.0063,0.0084 -0.0096,0.02056 -0.0035,0.02951 -0.0055,-0.008 -0.0018,-0.01922 0.0049,-0.02667 0.01259,-0.01393 0.03016,-0.02276 0.04734,-0.03104 0,0 10e-7,-1e-6 10e-7,-1e-6 0.06843,-0.03298 0.142636,-0.05242 0.217091,-0.07223 0,0 2e-6,0 2e-6,0 l 0,0 c 0.291049,-0.07709 0.586606,-0.127044 0.888885,-0.177956 l 0,0 c 1.088567,-0.182977 2.177625,-0.314326 3.32883,-0.446516 l 0,0 c 3.384954,-0.388346 6.929322,-0.689896 10.707353,-0.899808 l 0,0 2e-6,0 0,0 c 3.85652,-0.213452 7.947611,-0.347291 12.017496,-0.09254 l 0,0 c 1.663706,0.104988 3.328948,0.269155 4.941369,0.609339 l 0,0 2e-6,0 0,0 c 1.21348,0.266309 2.384226,0.57403 3.314264,1.174607 l 0,0 c 1.330871,0.783575 2.794979,0.908543 4.059942,0.897419 0.280642,-7.71e-4 0.562254,-0.0077 0.844356,-0.02134 1.370728,-0.06629 2.750728,-0.289658 4.084962,-0.722548 0.347184,-0.421984 1.142418,-0.578967 2.01261,-0.871665 1.279818,-0.330603 2.623068,-0.511828 3.979491,-0.664616 3.795428,-0.423603 7.619658,-0.520592 11.292337,-0.521209 4.109174,7.42e-4 7.9076,0.133389 11.615581,0.511938 1.545477,0.158147 3.004226,0.346701 4.43451,0.662759 0.988357,0.221827 1.935489,0.433189 2.7352566,0.979455 -0.7391456,-0.625453 -1.6944016,-0.949796 -2.6609836,-1.254896 -1.411154,-0.449889 -2.876315,-0.766788 -4.416419,-1.043039 -3.692189,-0.663061 -7.548302,-1.031262 -11.67715,-1.216445 -3.703116,-0.167411 -7.5847,-0.193833 -11.496707,0.159862 -1.390792,0.124283 -2.819249,0.297051 -4.241699,0.641497 -0.737084,0.108802 -1.690512,0.340944 -2.501298,1.111269 -1.041684,0.306336 -2.149721,0.431306 -3.27411,0.429826 z"
         style="opacity:1;fill:#000000;stroke:none;stroke-width:0.26458332px;stroke-linecap:butt;stroke-linejoin:miter;stroke-opacity:1" />
      <path
         id="path991"
         d="m -26.316667,117.92704 c -3.118918,0.14534 -6.285516,-0.72824 -9.099723,-2.13814 -2.613882,-1.34836 -4.935976,-2.99048 -6.359566,-5.24299 -2.292177,-3.66259 -4.322477,-6.90689 -7.551133,-8.67433 2.89339,2.329 4.192601,5.49706 6.248333,9.42116 1.426828,2.71945 3.887509,4.81366 6.667096,6.35408 3.015755,1.71299 6.555185,2.76217 10.196189,2.61406 0.150277,-0.006 0.300625,-0.0143 0.45101,-0.0246 0,0 1e-6,-1e-5 1e-6,-1e-5 4.28514,-0.32588 8.14139,-2.58006 10.661038,-5.75976 4.299107,-5.49152 5.2519106,-12.44135 5.4628984,-17.615237 -1.1116234,5.027457 -2.8576254,11.718217 -7.0027584,16.326967 -2.34405,2.63535 -5.731386,4.48645 -9.286123,4.71553 -1e-6,0 -1e-6,0 -2e-6,0 -0.12897,0.01 -0.258065,0.0172 -0.38726,0.0232 z"
         style="opacity:1;fill:#000000;stroke:none;stroke-width:0.26458332px;stroke-linecap:butt;stroke-linejoin:miter;stroke-opacity:1" />
      <path
         id="path1001"
         d="m -73.83705,120.55765 c 3.19301,0.043 6.305061,-0.74887 9.127974,-1.9145 2.647427,-1.07875 5.110243,-2.44532 7.234134,-4.18515 1.04656,-0.8773 1.679311,-2.01929 2.142405,-3.09006 0,0 1e-6,-1e-5 1e-6,-1e-5 0.565175,-1.27311 0.977865,-2.59678 1.367061,-3.81419 0.395664,-1.22863 0.733152,-2.34756 1.265654,-3.41619 0.421526,-0.81991 0.925957,-1.60669 1.76706,-1.89161 -0.87466,0.15417 -1.574617,0.89743 -2.098719,1.69796 -0.688958,1.02425 -1.185609,2.14393 -1.704527,3.31619 -0.52061,1.17098 -1.052914,2.43482 -1.681931,3.56924 0,0 -10e-7,1e-5 -10e-7,1e-5 -0.543841,0.95871 -1.143775,1.90436 -1.957864,2.45236 -2.092894,1.49 -4.46896,2.64173 -7.023482,3.58913 -2.70704,0.98833 -5.579598,1.68132 -8.407821,1.63669 -0.437984,-0.007 -0.874793,-0.0313 -1.309868,-0.075 -1.647617,-0.1603 -3.258525,-0.60037 -4.691147,-1.35002 -1.630756,-0.84366 -3.046783,-2.10237 -4.188484,-3.54528 -3.877754,-4.85501 -5.051579,-11.78146 -5.77463,-16.864474 -0.05676,5.165804 0.396334,12.241504 4.373944,17.910384 1.193015,1.68351 2.758302,3.17823 4.65432,4.23452 1.67072,0.92217 3.530148,1.46898 5.424023,1.65852 0.494496,0.0481 0.988741,0.0748 1.481898,0.0815 z"
         style="opacity:1;fill:#000000;stroke:none;stroke-width:0.26458332px;stroke-linecap:butt;stroke-linejoin:miter;stroke-opacity:1" />
      <path
         id="path1383"
         d="m -135.12018,225.15453 v -16.99436 l 1.6064,-0.41849 c 16.71751,-4.35515 33.591162,-12.18057 44.684371,-20.7231 1.253541,-0.96531 2.337374,-1.88722 2.408526,-2.04869 0.07115,-0.16148 0.770581,-0.62072 1.554298,-1.02054 l 3.830363,-3.26601 -0.872127,5.42866 c -0.448153,2.78958 0.923129,4.8704 0.655805,6.95745 2.423729,4.77036 3.474744,6.22496 6.5443,9.05728 5.797613,5.34952 15.137518,9.49912 24.516114,10.89221 3.854688,0.57257 11.652238,0.50017 14.918901,-0.13853 5.970686,-1.16737 10.249894,-3.26703 13.545899,-6.64649 2.072239,-2.12471 1.860195,-2.59518 3.821366,-6.89083 0.569459,-1.24732 -1.092589,-3.73143 0.348804,-3.92434 0.48977,-0.0656 1.059603,-2.64583 1.059603,-2.64583 -2.54531,-4.37041 0.0738,-5.92382 -1.806624,-8.45661 -1.390015,-1.87224 2.456165,-0.62697 4.264033,1.03795 8.039613,7.00978 20.591537,11.34048 32.2838,13.28661 6.009135,-0.007 13.434423,3.0929 15.513405,2.71581 5.283731,13.77622 0.07811,19.21588 0.07811,40.79221 h -84.477677 -84.47767 z"
         style="opacity:0.98999999;fill:#6c5353;fill-opacity:1;stroke:none;stroke-width:0.37797621;stroke-opacity:1" />
      <path
         id="path1291"
         d="m -48.046376,211.05533 c -0.308481,-0.0347 -0.616705,-0.0719 -0.924593,-0.11165 -4.905643,-0.63865 -9.688465,-1.91806 -14.166258,-3.81335 -4.331438,-1.84057 -8.295702,-4.18987 -11.532277,-7.2487 -3.046377,-2.88845 -5.333806,-6.35623 -6.222069,-10.14638 -1.079446,-4.48966 -0.0384,-9.21004 1.717439,-13.00766 -2.151123,3.59451 -3.673136,8.31347 -2.883134,13.23911 0.684883,4.13147 2.897403,8.04786 6.038442,11.27908 3.306065,3.41229 7.417208,6.0703 11.915254,8.09295 4.649868,2.09843 9.651388,3.50639 14.79536,4.18236 0.322431,0.0427 0.645489,0.0826 0.969094,0.11946 4.617958,0.52556 9.304711,0.43789 13.841429,-0.50564 4.408543,-0.90447 8.634833,-2.70234 11.929964,-5.66559 1.599801,-1.44827 2.917125,-3.15652 3.874072,-5.02252 1.056812,-2.06922 1.655812,-4.28664 1.889788,-6.47268 0.661947,-6.33131 -1.379316,-12.35584 -3.571085,-17.10637 1.673635,4.9497 3.163744,11.05946 2.139616,16.90805 -0.347674,2.01402 -1.010826,4.01205 -2.050788,5.80674 -0.935383,1.62113 -2.181694,3.08688 -3.651614,4.31571 -3.021837,2.54585 -6.926498,4.02748 -11.040921,4.81865 -4.250584,0.8047 -8.667904,0.83372 -13.067719,0.33843 z"
         style="fill:#000000;stroke:none;stroke-width:0.26458332px;stroke-linecap:butt;stroke-linejoin:miter;stroke-opacity:1" />
      <path
         id="path1301"
         d="m -108.25857,199.06364 c 10.292206,-4.84856 18.741314,-10.54328 25.102341,-16.59232 -7.813959,4.92152 -15.646263,9.27582 -26.209351,14.23903 -9.77801,4.59694 -19.82843,8.73738 -27.46105,12.22346 8.24385,-1.93243 18.54489,-5.15098 28.56806,-9.87017 z"
         style="fill:#000000;stroke:none;stroke-width:0.26458332px;stroke-linecap:butt;stroke-linejoin:miter;stroke-opacity:1" />
      <path
         id="path1311"
         d="m 8.2880551,194.97027 c -9.5594834,-2.8838 -17.0954287,-6.42336 -23.7865671,-10.60531 5.482608,5.46748 13.3478515,10.18129 23.0361398,13.0958 0.2711526,0.0815 0.5427119,0.16128 0.8146375,0.23934 0,0 1.4e-6,0 1.4e-6,0 8.5786173,2.46429 18.6929913,3.65005 25.2881663,4.42554 -6.753502,-2.40776 -15.781416,-4.33379 -24.5625877,-6.91978 0,0 -1.4e-6,0 -1.4e-6,0 -0.2634748,-0.0776 -0.5267425,-0.15616 -0.7897888,-0.23559 z"
         style="fill:#000000;stroke:none;stroke-width:0.26458332px;stroke-linecap:butt;stroke-linejoin:miter;stroke-opacity:1" />
      <path
         id="path851"
         d="m -51.606382,189.94123 c -6.2097,-0.3687 -12.362621,-1.71019 -17.509379,-4.84019 -5.125673,-3.07313 -9.043094,-7.94487 -11.646517,-13.28133 -3.546363,-7.2696 -5.06796,-15.42313 -5.949662,-23.11985 -1.352689,-11.88781 -1.139599,-23.87564 -0.747822,-33.97785 -1.023654,10.10043 -1.802226,22.01892 -0.842683,34.1311 0.613245,7.81649 1.960685,16.20332 5.515308,23.92565 2.63473,5.72249 6.775068,10.99761 12.3643,14.46387 5.615497,3.43822 12.1677,4.93993 18.667816,5.29781 0.232671,0.0128 0.465214,0.0241 0.697582,0.034 6.014495,0.28995 12.224438,-0.27592 17.84826,-2.73426 5.420858,-2.40684 9.768537,-6.68162 12.562227,-11.68056 3.912192,-7.03072 5.337227,-14.9964 5.960459,-22.40239 0,0 0,-1e-5 0,-1e-5 1.064545,-12.44928 -0.0551,-24.75493 -1.414309,-35.16442 -0.128925,-0.98758 -0.26214,-1.96472 -0.398894,-2.93042 0.07642,0.97232 0.150145,1.95557 0.220467,2.94836 0.739162,10.43934 1.307064,22.79633 -0.126497,34.97198 -10e-7,0 -10e-7,1e-5 -10e-7,1e-5 -0.865888,7.26895 -2.416064,14.94973 -6.228511,21.4416 -2.663341,4.55392 -6.695375,8.42381 -11.580123,10.51027 -5.118306,2.22527 -10.941213,2.68843 -16.725067,2.44254 -0.222305,-0.0108 -0.444639,-0.0227 -0.666954,-0.0359 z"
         style="opacity:1;fill:#aa4400;stroke:none;stroke-width:0.26458332px;stroke-linecap:butt;stroke-linejoin:miter;stroke-opacity:1" />
    </g>
  </g>
</svg>
