<?xml version="1.0" encoding="UTF-8" standalone="no"?>
<!-- Created with Inkscape (http://www.inkscape.org/) -->

<svg
   xmlns:dc="http://purl.org/dc/elements/1.1/"
   xmlns:cc="http://creativecommons.org/ns#"
   xmlns:rdf="http://www.w3.org/1999/02/22-rdf-syntax-ns#"
   xmlns:svg="http://www.w3.org/2000/svg"
   xmlns="http://www.w3.org/2000/svg"
   xmlns:xlink="http://www.w3.org/1999/xlink"
   xmlns:sodipodi="http://sodipodi.sourceforge.net/DTD/sodipodi-0.dtd"
   xmlns:inkscape="http://www.inkscape.org/namespaces/inkscape"
   width="166.95244mm"
   height="212.40353mm"
   viewBox="0 0 166.95244 212.40353"
   version="1.1"
   id="svg8"
   inkscape:version="0.92.2 (5c3e80d, 2017-08-06)"
   sodipodi:docname="line_portrait3.svg"
   inkscape:export-filename="/home/marc/Images/line_portrait3.png"
   inkscape:export-xdpi="96"
   inkscape:export-ydpi="96">
  <defs
     id="defs2">
    <linearGradient
       inkscape:collect="always"
       id="linearGradient1628">
      <stop
         style="stop-color:#eee251;stop-opacity:1"
         offset="0"
         id="stop1624" />
      <stop
         style="stop-color:#ffffff;stop-opacity:1"
         offset="1"
         id="stop1626" />
    </linearGradient>
    <inkscape:path-effect
       effect="skeletal"
       id="path-effect1319"
       is_visible="true"
       pattern="m -191.6337,85.333291 a 21.166666,21.166666 0 0 0 -13.54078,4.922697 21.166666,21.166666 0 0 0 13.54078,4.904611 21.166666,21.166666 0 0 0 13.54026,-4.922698 21.166666,21.166666 0 0 0 -13.54026,-4.90461 z"
       copytype="single_stretched"
       prop_scale="0.26458333"
       scale_y_rel="false"
       spacing="0"
       normal_offset="0"
       tang_offset="0"
       prop_units="false"
       vertical_pattern="false"
       fuse_tolerance="0" />
    <inkscape:path-effect
       effect="skeletal"
       id="path-effect1309"
       is_visible="true"
       pattern="m -191.6337,85.333291 a 21.166666,21.166666 0 0 0 -13.54078,4.922697 21.166666,21.166666 0 0 0 13.54078,4.904611 21.166666,21.166666 0 0 0 13.54026,-4.922698 21.166666,21.166666 0 0 0 -13.54026,-4.90461 z"
       copytype="single_stretched"
       prop_scale="0.26458333"
       scale_y_rel="false"
       spacing="0"
       normal_offset="0"
       tang_offset="0"
       prop_units="false"
       vertical_pattern="false"
       fuse_tolerance="0" />
    <inkscape:path-effect
       effect="skeletal"
       id="path-effect1299"
       is_visible="true"
       pattern="m -191.6337,85.333291 a 21.166666,21.166666 0 0 0 -13.54078,4.922697 21.166666,21.166666 0 0 0 13.54078,4.904611 21.166666,21.166666 0 0 0 13.54026,-4.922698 21.166666,21.166666 0 0 0 -13.54026,-4.90461 z"
       copytype="single_stretched"
       prop_scale="0.26458333"
       scale_y_rel="false"
       spacing="0"
       normal_offset="0"
       tang_offset="0"
       prop_units="false"
       vertical_pattern="false"
       fuse_tolerance="0" />
    <inkscape:path-effect
       effect="skeletal"
       id="path-effect1289"
       is_visible="true"
       pattern="m -175.00275,85.333291 a 21.166666,21.166666 0 0 0 -13.54078,4.922697 21.166666,21.166666 0 0 0 13.54078,4.904611 21.166666,21.166666 0 0 0 13.54026,-4.922698 21.166666,21.166666 0 0 0 -13.54026,-4.90461 z"
       copytype="single_stretched"
       prop_scale="0.26458333"
       scale_y_rel="false"
       spacing="0"
       normal_offset="0"
       tang_offset="0"
       prop_units="false"
       vertical_pattern="false"
       fuse_tolerance="0" />
    <inkscape:path-effect
       effect="skeletal"
       id="path-effect1279"
       is_visible="true"
       pattern="m -175.00275,85.333291 a 21.166666,21.166666 0 0 0 -13.54078,4.922697 21.166666,21.166666 0 0 0 13.54078,4.904611 21.166666,21.166666 0 0 0 13.54026,-4.922698 21.166666,21.166666 0 0 0 -13.54026,-4.90461 z"
       copytype="single_stretched"
       prop_scale="0.26458333"
       scale_y_rel="false"
       spacing="0"
       normal_offset="0"
       tang_offset="0"
       prop_units="false"
       vertical_pattern="false"
       fuse_tolerance="0" />
    <inkscape:path-effect
       effect="skeletal"
       id="path-effect1269"
       is_visible="true"
       pattern="m -175.00275,85.333291 a 21.166666,21.166666 0 0 0 -13.54078,4.922697 21.166666,21.166666 0 0 0 13.54078,4.904611 21.166666,21.166666 0 0 0 13.54026,-4.922698 21.166666,21.166666 0 0 0 -13.54026,-4.90461 z"
       copytype="single_stretched"
       prop_scale="0.26458333"
       scale_y_rel="false"
       spacing="0"
       normal_offset="0"
       tang_offset="0"
       prop_units="false"
       vertical_pattern="false"
       fuse_tolerance="0" />
    <inkscape:path-effect
       effect="skeletal"
       id="path-effect1259"
       is_visible="true"
       pattern="m -175.00275,85.333291 a 21.166666,21.166666 0 0 0 -13.54078,4.922697 21.166666,21.166666 0 0 0 13.54078,4.904611 21.166666,21.166666 0 0 0 13.54026,-4.922698 21.166666,21.166666 0 0 0 -13.54026,-4.90461 z"
       copytype="single_stretched"
       prop_scale="0.26458333"
       scale_y_rel="false"
       spacing="0"
       normal_offset="0"
       tang_offset="0"
       prop_units="false"
       vertical_pattern="false"
       fuse_tolerance="0" />
    <inkscape:path-effect
       effect="skeletal"
       id="path-effect1249"
       is_visible="true"
       pattern="m -175.00275,85.333291 a 21.166666,21.166666 0 0 0 -13.54078,4.922697 21.166666,21.166666 0 0 0 13.54078,4.904611 21.166666,21.166666 0 0 0 13.54026,-4.922698 21.166666,21.166666 0 0 0 -13.54026,-4.90461 z"
       copytype="single_stretched"
       prop_scale="0.26458333"
       scale_y_rel="false"
       spacing="0"
       normal_offset="0"
       tang_offset="0"
       prop_units="false"
       vertical_pattern="false"
       fuse_tolerance="0" />
    <inkscape:path-effect
       effect="skeletal"
       id="path-effect1239"
       is_visible="true"
       pattern="m -175.00275,85.333291 a 21.166666,21.166666 0 0 0 -13.54078,4.922697 21.166666,21.166666 0 0 0 13.54078,4.904611 21.166666,21.166666 0 0 0 13.54026,-4.922698 21.166666,21.166666 0 0 0 -13.54026,-4.90461 z"
       copytype="single_stretched"
       prop_scale="0.26458333"
       scale_y_rel="false"
       spacing="0"
       normal_offset="0"
       tang_offset="0"
       prop_units="false"
       vertical_pattern="false"
       fuse_tolerance="0" />
    <inkscape:path-effect
       effect="skeletal"
       id="path-effect1229"
       is_visible="true"
       pattern="m -175.00275,85.333291 a 21.166666,21.166666 0 0 0 -13.54078,4.922697 21.166666,21.166666 0 0 0 13.54078,4.904611 21.166666,21.166666 0 0 0 13.54026,-4.922698 21.166666,21.166666 0 0 0 -13.54026,-4.90461 z"
       copytype="single_stretched"
       prop_scale="0.26458333"
       scale_y_rel="false"
       spacing="0"
       normal_offset="0"
       tang_offset="0"
       prop_units="false"
       vertical_pattern="false"
       fuse_tolerance="0" />
    <inkscape:path-effect
       effect="skeletal"
       id="path-effect1219"
       is_visible="true"
       pattern="m -175.00275,85.333291 a 21.166666,21.166666 0 0 0 -13.54078,4.922697 21.166666,21.166666 0 0 0 13.54078,4.904611 21.166666,21.166666 0 0 0 13.54026,-4.922698 21.166666,21.166666 0 0 0 -13.54026,-4.90461 z"
       copytype="single_stretched"
       prop_scale="0.26458333"
       scale_y_rel="false"
       spacing="0"
       normal_offset="0"
       tang_offset="0"
       prop_units="false"
       vertical_pattern="false"
       fuse_tolerance="0" />
    <inkscape:path-effect
       effect="skeletal"
       id="path-effect1209"
       is_visible="true"
       pattern="m -175.00275,85.333291 a 21.166666,21.166666 0 0 0 -13.54078,4.922697 21.166666,21.166666 0 0 0 13.54078,4.904611 21.166666,21.166666 0 0 0 13.54026,-4.922698 21.166666,21.166666 0 0 0 -13.54026,-4.90461 z"
       copytype="single_stretched"
       prop_scale="0.26458333"
       scale_y_rel="false"
       spacing="0"
       normal_offset="0"
       tang_offset="0"
       prop_units="false"
       vertical_pattern="false"
       fuse_tolerance="0" />
    <inkscape:path-effect
       effect="skeletal"
       id="path-effect1199"
       is_visible="true"
       pattern="m -175.00275,85.333291 a 21.166666,21.166666 0 0 0 -13.54078,4.922697 21.166666,21.166666 0 0 0 13.54078,4.904611 21.166666,21.166666 0 0 0 13.54026,-4.922698 21.166666,21.166666 0 0 0 -13.54026,-4.90461 z"
       copytype="single_stretched"
       prop_scale="0.26458333"
       scale_y_rel="false"
       spacing="0"
       normal_offset="0"
       tang_offset="0"
       prop_units="false"
       vertical_pattern="false"
       fuse_tolerance="0" />
    <inkscape:path-effect
       effect="skeletal"
       id="path-effect1189"
       is_visible="true"
       pattern="m -175.00275,85.333291 a 21.166666,21.166666 0 0 0 -13.54078,4.922697 21.166666,21.166666 0 0 0 13.54078,4.904611 21.166666,21.166666 0 0 0 13.54026,-4.922698 21.166666,21.166666 0 0 0 -13.54026,-4.90461 z"
       copytype="single_stretched"
       prop_scale="0.26458333"
       scale_y_rel="false"
       spacing="0"
       normal_offset="0"
       tang_offset="0"
       prop_units="false"
       vertical_pattern="false"
       fuse_tolerance="0" />
    <inkscape:path-effect
       effect="skeletal"
       id="path-effect1179"
       is_visible="true"
       pattern="m -175.00275,85.333291 a 21.166666,21.166666 0 0 0 -13.54078,4.922697 21.166666,21.166666 0 0 0 13.54078,4.904611 21.166666,21.166666 0 0 0 13.54026,-4.922698 21.166666,21.166666 0 0 0 -13.54026,-4.90461 z"
       copytype="single_stretched"
       prop_scale="0.26458333"
       scale_y_rel="false"
       spacing="0"
       normal_offset="0"
       tang_offset="0"
       prop_units="false"
       vertical_pattern="false"
       fuse_tolerance="0" />
    <inkscape:path-effect
       effect="skeletal"
       id="path-effect1169"
       is_visible="true"
       pattern="m -175.00275,85.333291 a 21.166666,21.166666 0 0 0 -13.54078,4.922697 21.166666,21.166666 0 0 0 13.54078,4.904611 21.166666,21.166666 0 0 0 13.54026,-4.922698 21.166666,21.166666 0 0 0 -13.54026,-4.90461 z"
       copytype="single_stretched"
       prop_scale="0.26458333"
       scale_y_rel="false"
       spacing="0"
       normal_offset="0"
       tang_offset="0"
       prop_units="false"
       vertical_pattern="false"
       fuse_tolerance="0" />
    <inkscape:path-effect
       effect="skeletal"
       id="path-effect1159"
       is_visible="true"
       pattern="m -175.00275,85.333291 a 21.166666,21.166666 0 0 0 -13.54078,4.922697 21.166666,21.166666 0 0 0 13.54078,4.904611 21.166666,21.166666 0 0 0 13.54026,-4.922698 21.166666,21.166666 0 0 0 -13.54026,-4.90461 z"
       copytype="single_stretched"
       prop_scale="0.14919786"
       scale_y_rel="false"
       spacing="0"
       normal_offset="0"
       tang_offset="0"
       prop_units="false"
       vertical_pattern="false"
       fuse_tolerance="0" />
    <inkscape:path-effect
       effect="skeletal"
       id="path-effect1149"
       is_visible="true"
       pattern="m -175.00275,85.333291 a 21.166666,21.166666 0 0 0 -13.54078,4.922697 21.166666,21.166666 0 0 0 13.54078,4.904611 21.166666,21.166666 0 0 0 13.54026,-4.922698 21.166666,21.166666 0 0 0 -13.54026,-4.90461 z"
       copytype="single_stretched"
       prop_scale="0.26458333"
       scale_y_rel="false"
       spacing="0"
       normal_offset="0"
       tang_offset="0"
       prop_units="false"
       vertical_pattern="false"
       fuse_tolerance="0" />
    <inkscape:path-effect
       effect="skeletal"
       id="path-effect1139"
       is_visible="true"
       pattern="m -175.00275,85.333291 a 21.166666,21.166666 0 0 0 -13.54078,4.922697 21.166666,21.166666 0 0 0 13.54078,4.904611 21.166666,21.166666 0 0 0 13.54026,-4.922698 21.166666,21.166666 0 0 0 -13.54026,-4.90461 z"
       copytype="single_stretched"
       prop_scale="0.26458333"
       scale_y_rel="false"
       spacing="0"
       normal_offset="0"
       tang_offset="0"
       prop_units="false"
       vertical_pattern="false"
       fuse_tolerance="0" />
    <inkscape:path-effect
       effect="skeletal"
       id="path-effect1129"
       is_visible="true"
       pattern="m -175.00275,85.333291 a 21.166666,21.166666 0 0 0 -13.54078,4.922697 21.166666,21.166666 0 0 0 13.54078,4.904611 21.166666,21.166666 0 0 0 13.54026,-4.922698 21.166666,21.166666 0 0 0 -13.54026,-4.90461 z"
       copytype="single_stretched"
       prop_scale="0.26458333"
       scale_y_rel="false"
       spacing="0"
       normal_offset="0"
       tang_offset="0"
       prop_units="false"
       vertical_pattern="false"
       fuse_tolerance="0" />
    <inkscape:path-effect
       effect="skeletal"
       id="path-effect1119"
       is_visible="true"
       pattern="m -175.00275,85.333291 a 21.166666,21.166666 0 0 0 -13.54078,4.922697 21.166666,21.166666 0 0 0 13.54078,4.904611 21.166666,21.166666 0 0 0 13.54026,-4.922698 21.166666,21.166666 0 0 0 -13.54026,-4.90461 z"
       copytype="single_stretched"
       prop_scale="0.26458333"
       scale_y_rel="false"
       spacing="0"
       normal_offset="0"
       tang_offset="0"
       prop_units="false"
       vertical_pattern="false"
       fuse_tolerance="0" />
    <inkscape:path-effect
       effect="skeletal"
       id="path-effect1109"
       is_visible="true"
       pattern="m -175.00275,85.333291 a 21.166666,21.166666 0 0 0 -13.54078,4.922697 21.166666,21.166666 0 0 0 13.54078,4.904611 21.166666,21.166666 0 0 0 13.54026,-4.922698 21.166666,21.166666 0 0 0 -13.54026,-4.90461 z"
       copytype="single_stretched"
       prop_scale="0.15763837"
       scale_y_rel="false"
       spacing="0"
       normal_offset="0"
       tang_offset="0"
       prop_units="false"
       vertical_pattern="false"
       fuse_tolerance="0" />
    <inkscape:path-effect
       effect="skeletal"
       id="path-effect1099"
       is_visible="true"
       pattern="m -175.00275,85.333291 a 21.166666,21.166666 0 0 0 -13.54078,4.922697 21.166666,21.166666 0 0 0 13.54078,4.904611 21.166666,21.166666 0 0 0 13.54026,-4.922698 21.166666,21.166666 0 0 0 -13.54026,-4.90461 z"
       copytype="single_stretched"
       prop_scale="0.26458333"
       scale_y_rel="false"
       spacing="0"
       normal_offset="0"
       tang_offset="0"
       prop_units="false"
       vertical_pattern="false"
       fuse_tolerance="0" />
    <inkscape:path-effect
       effect="skeletal"
       id="path-effect1089"
       is_visible="true"
       pattern="m -175.00275,85.333291 a 21.166666,21.166666 0 0 0 -13.54078,4.922697 21.166666,21.166666 0 0 0 13.54078,4.904611 21.166666,21.166666 0 0 0 13.54026,-4.922698 21.166666,21.166666 0 0 0 -13.54026,-4.90461 z"
       copytype="single_stretched"
       prop_scale="0.26458333"
       scale_y_rel="false"
       spacing="0"
       normal_offset="0"
       tang_offset="0"
       prop_units="false"
       vertical_pattern="false"
       fuse_tolerance="0" />
    <inkscape:path-effect
       effect="skeletal"
       id="path-effect1079"
       is_visible="true"
       pattern="m -175.00275,85.333291 a 21.166666,21.166666 0 0 0 -13.54078,4.922697 21.166666,21.166666 0 0 0 13.54078,4.904611 21.166666,21.166666 0 0 0 13.54026,-4.922698 21.166666,21.166666 0 0 0 -13.54026,-4.90461 z"
       copytype="single_stretched"
       prop_scale="0.26458333"
       scale_y_rel="false"
       spacing="0"
       normal_offset="0"
       tang_offset="0"
       prop_units="false"
       vertical_pattern="false"
       fuse_tolerance="0" />
    <inkscape:path-effect
       effect="skeletal"
       id="path-effect1069"
       is_visible="true"
       pattern="m -175.00275,85.333291 a 21.166666,21.166666 0 0 0 -13.54078,4.922697 21.166666,21.166666 0 0 0 13.54078,4.904611 21.166666,21.166666 0 0 0 13.54026,-4.922698 21.166666,21.166666 0 0 0 -13.54026,-4.90461 z"
       copytype="single_stretched"
       prop_scale="0.26458333"
       scale_y_rel="false"
       spacing="0"
       normal_offset="0"
       tang_offset="0"
       prop_units="false"
       vertical_pattern="false"
       fuse_tolerance="0" />
    <inkscape:path-effect
       effect="skeletal"
       id="path-effect1059"
       is_visible="true"
       pattern="m -175.00275,85.333291 a 21.166666,21.166666 0 0 0 -13.54078,4.922697 21.166666,21.166666 0 0 0 13.54078,4.904611 21.166666,21.166666 0 0 0 13.54026,-4.922698 21.166666,21.166666 0 0 0 -13.54026,-4.90461 z"
       copytype="single_stretched"
       prop_scale="0.26458333"
       scale_y_rel="false"
       spacing="0"
       normal_offset="0"
       tang_offset="0"
       prop_units="false"
       vertical_pattern="false"
       fuse_tolerance="0" />
    <inkscape:path-effect
       effect="skeletal"
       id="path-effect1029"
       is_visible="true"
       pattern="m -175.00275,85.333291 a 21.166666,21.166666 0 0 0 -13.54078,4.922697 21.166666,21.166666 0 0 0 13.54078,4.904611 21.166666,21.166666 0 0 0 13.54026,-4.922698 21.166666,21.166666 0 0 0 -13.54026,-4.90461 z"
       copytype="single_stretched"
       prop_scale="0.10817411"
       scale_y_rel="false"
       spacing="0"
       normal_offset="0"
       tang_offset="0"
       prop_units="false"
       vertical_pattern="false"
       fuse_tolerance="0" />
    <inkscape:path-effect
       effect="skeletal"
       id="path-effect1019"
       is_visible="true"
       pattern="m -175.00275,85.333291 a 21.166666,21.166666 0 0 0 -13.54078,4.922697 21.166666,21.166666 0 0 0 13.54078,4.904611 21.166666,21.166666 0 0 0 13.54026,-4.922698 21.166666,21.166666 0 0 0 -13.54026,-4.90461 z"
       copytype="single_stretched"
       prop_scale="0.26458333"
       scale_y_rel="false"
       spacing="0"
       normal_offset="0"
       tang_offset="0"
       prop_units="false"
       vertical_pattern="false"
       fuse_tolerance="0" />
    <inkscape:path-effect
       effect="skeletal"
       id="path-effect1009"
       is_visible="true"
       pattern="m -191.6337,85.333291 a 21.166666,21.166666 0 0 0 -13.54078,4.922697 21.166666,21.166666 0 0 0 13.54078,4.904611 21.166666,21.166666 0 0 0 13.54026,-4.922698 21.166666,21.166666 0 0 0 -13.54026,-4.90461 z"
       copytype="single_stretched"
       prop_scale="0.20937098"
       scale_y_rel="false"
       spacing="0"
       normal_offset="0"
       tang_offset="0"
       prop_units="false"
       vertical_pattern="false"
       fuse_tolerance="0" />
    <inkscape:path-effect
       effect="skeletal"
       id="path-effect999"
       is_visible="true"
       pattern="m -191.6337,85.333291 a 21.166666,21.166666 0 0 0 -13.54078,4.922697 21.166666,21.166666 0 0 0 13.54078,4.904611 21.166666,21.166666 0 0 0 13.54026,-4.922698 21.166666,21.166666 0 0 0 -13.54026,-4.90461 z"
       copytype="single_stretched"
       prop_scale="0.23799118"
       scale_y_rel="false"
       spacing="0"
       normal_offset="0"
       tang_offset="0"
       prop_units="false"
       vertical_pattern="false"
       fuse_tolerance="0" />
    <inkscape:path-effect
       effect="skeletal"
       id="path-effect989"
       is_visible="true"
       pattern="m -191.6337,85.333291 a 21.166666,21.166666 0 0 0 -13.54078,4.922697 21.166666,21.166666 0 0 0 13.54078,4.904611 21.166666,21.166666 0 0 0 13.54026,-4.922698 21.166666,21.166666 0 0 0 -13.54026,-4.90461 z"
       copytype="single_stretched"
       prop_scale="0.1868837"
       scale_y_rel="false"
       spacing="0"
       normal_offset="0"
       tang_offset="0"
       prop_units="false"
       vertical_pattern="false"
       fuse_tolerance="0" />
    <inkscape:path-effect
       effect="skeletal"
       id="path-effect979"
       is_visible="true"
       pattern="m -191.6337,85.333291 a 21.166666,21.166666 0 0 0 -13.54078,4.922697 21.166666,21.166666 0 0 0 13.54078,4.904611 21.166666,21.166666 0 0 0 13.54026,-4.922698 21.166666,21.166666 0 0 0 -13.54026,-4.90461 z"
       copytype="single_stretched"
       prop_scale="0.26458333"
       scale_y_rel="false"
       spacing="0"
       normal_offset="0"
       tang_offset="0"
       prop_units="false"
       vertical_pattern="false"
       fuse_tolerance="0" />
    <inkscape:path-effect
       effect="skeletal"
       id="path-effect969"
       is_visible="true"
       pattern="m -191.6337,85.333291 a 21.166666,21.166666 0 0 0 -13.54078,4.922697 21.166666,21.166666 0 0 0 13.54078,4.904611 21.166666,21.166666 0 0 0 13.54026,-4.922698 21.166666,21.166666 0 0 0 -13.54026,-4.90461 z"
       copytype="single_stretched"
       prop_scale="0.15043214"
       scale_y_rel="false"
       spacing="0"
       normal_offset="0"
       tang_offset="0"
       prop_units="false"
       vertical_pattern="false"
       fuse_tolerance="0" />
    <inkscape:path-effect
       effect="skeletal"
       id="path-effect959"
       is_visible="true"
       pattern="m -191.6337,85.333291 a 21.166666,21.166666 0 0 0 -13.54078,4.922697 21.166666,21.166666 0 0 0 13.54078,4.904611 21.166666,21.166666 0 0 0 13.54026,-4.922698 21.166666,21.166666 0 0 0 -13.54026,-4.90461 z"
       copytype="single_stretched"
       prop_scale="0.12486361"
       scale_y_rel="false"
       spacing="0"
       normal_offset="0"
       tang_offset="0"
       prop_units="false"
       vertical_pattern="false"
       fuse_tolerance="0" />
    <inkscape:path-effect
       effect="skeletal"
       id="path-effect949"
       is_visible="true"
       pattern="m -191.6337,85.333291 a 21.166666,21.166666 0 0 0 -13.54078,4.922697 21.166666,21.166666 0 0 0 13.54078,4.904611 21.166666,21.166666 0 0 0 13.54026,-4.922698 21.166666,21.166666 0 0 0 -13.54026,-4.90461 z"
       copytype="single_stretched"
       prop_scale="0.1194107"
       scale_y_rel="false"
       spacing="0"
       normal_offset="0"
       tang_offset="0"
       prop_units="false"
       vertical_pattern="false"
       fuse_tolerance="0" />
    <inkscape:path-effect
       effect="skeletal"
       id="path-effect939"
       is_visible="true"
       pattern="m -175.00275,85.333291 a 21.166666,21.166666 0 0 0 -13.54078,4.922697 21.166666,21.166666 0 0 0 13.54078,4.904611 21.166666,21.166666 0 0 0 13.54026,-4.922698 21.166666,21.166666 0 0 0 -13.54026,-4.90461 z"
       copytype="single_stretched"
       prop_scale="0.14665664"
       scale_y_rel="false"
       spacing="0"
       normal_offset="0"
       tang_offset="0"
       prop_units="false"
       vertical_pattern="false"
       fuse_tolerance="0" />
    <inkscape:path-effect
       effect="skeletal"
       id="path-effect929"
       is_visible="true"
       pattern="m -175.00275,85.333291 a 21.166666,21.166666 0 0 0 -13.54078,4.922697 21.166666,21.166666 0 0 0 13.54078,4.904611 21.166666,21.166666 0 0 0 13.54026,-4.922698 21.166666,21.166666 0 0 0 -13.54026,-4.90461 z"
       copytype="single_stretched"
       prop_scale="0.13138202"
       scale_y_rel="false"
       spacing="0"
       normal_offset="0"
       tang_offset="0"
       prop_units="false"
       vertical_pattern="false"
       fuse_tolerance="0" />
    <inkscape:path-effect
       effect="skeletal"
       id="path-effect919"
       is_visible="true"
       pattern="m -191.6337,85.333291 a 21.166666,21.166666 0 0 0 -13.54078,4.922697 21.166666,21.166666 0 0 0 13.54078,4.904611 21.166666,21.166666 0 0 0 13.54026,-4.922698 21.166666,21.166666 0 0 0 -13.54026,-4.90461 z"
       copytype="single_stretched"
       prop_scale="0.15996391"
       scale_y_rel="false"
       spacing="0"
       normal_offset="0"
       tang_offset="0"
       prop_units="false"
       vertical_pattern="false"
       fuse_tolerance="0" />
    <inkscape:path-effect
       effect="skeletal"
       id="path-effect909"
       is_visible="true"
       pattern="m -175.00275,85.333291 a 21.166666,21.166666 0 0 0 -13.54078,4.922697 21.166666,21.166666 0 0 0 13.54078,4.904611 21.166666,21.166666 0 0 0 13.54026,-4.922698 21.166666,21.166666 0 0 0 -13.54026,-4.90461 z"
       copytype="single_stretched"
       prop_scale="0.11722534"
       scale_y_rel="false"
       spacing="0"
       normal_offset="0"
       tang_offset="0"
       prop_units="false"
       vertical_pattern="false"
       fuse_tolerance="0" />
    <inkscape:path-effect
       effect="skeletal"
       id="path-effect899"
       is_visible="true"
       pattern="m -191.6337,85.333291 a 21.166666,21.166666 0 0 0 -13.54078,4.922697 21.166666,21.166666 0 0 0 13.54078,4.904611 21.166666,21.166666 0 0 0 13.54026,-4.922698 21.166666,21.166666 0 0 0 -13.54026,-4.90461 z"
       copytype="single_stretched"
       prop_scale="0.15739349"
       scale_y_rel="false"
       spacing="0"
       normal_offset="0"
       tang_offset="0"
       prop_units="false"
       vertical_pattern="false"
       fuse_tolerance="0" />
    <inkscape:path-effect
       effect="skeletal"
       id="path-effect889"
       is_visible="true"
       pattern="m -175.00275,85.333291 a 21.166666,21.166666 0 0 0 -13.54078,4.922697 21.166666,21.166666 0 0 0 13.54078,4.904611 21.166666,21.166666 0 0 0 13.54026,-4.922698 21.166666,21.166666 0 0 0 -13.54026,-4.90461 z"
       copytype="single_stretched"
       prop_scale="0.13138202"
       scale_y_rel="false"
       spacing="0"
       normal_offset="0"
       tang_offset="0"
       prop_units="false"
       vertical_pattern="false"
       fuse_tolerance="0" />
    <inkscape:path-effect
       effect="skeletal"
       id="path-effect879"
       is_visible="true"
       pattern="m -191.6337,85.333291 a 21.166666,21.166666 0 0 0 -13.54078,4.922697 21.166666,21.166666 0 0 0 13.54078,4.904611 21.166666,21.166666 0 0 0 13.54026,-4.922698 21.166666,21.166666 0 0 0 -13.54026,-4.90461 z"
       copytype="single_stretched"
       prop_scale="0.17803568"
       scale_y_rel="false"
       spacing="0"
       normal_offset="0"
       tang_offset="0"
       prop_units="false"
       vertical_pattern="false"
       fuse_tolerance="0" />
    <inkscape:path-effect
       effect="skeletal"
       id="path-effect869"
       is_visible="true"
       pattern="m -191.6337,85.333291 a 21.166666,21.166666 0 0 0 -13.54078,4.922697 21.166666,21.166666 0 0 0 13.54078,4.904611 21.166666,21.166666 0 0 0 13.54026,-4.922698 21.166666,21.166666 0 0 0 -13.54026,-4.90461 z"
       copytype="single_stretched"
       prop_scale="0.14090094"
       scale_y_rel="false"
       spacing="0"
       normal_offset="0"
       tang_offset="0"
       prop_units="false"
       vertical_pattern="false"
       fuse_tolerance="0" />
    <inkscape:path-effect
       effect="skeletal"
       id="path-effect859"
       is_visible="true"
       pattern="m -191.6337,85.333291 a 21.166666,21.166666 0 0 0 -13.54078,4.922697 21.166666,21.166666 0 0 0 13.54078,4.904611 21.166666,21.166666 0 0 0 13.54026,-4.922698 21.166666,21.166666 0 0 0 -13.54026,-4.90461 z"
       copytype="single_stretched"
       prop_scale="0.26458333"
       scale_y_rel="false"
       spacing="0"
       normal_offset="0"
       tang_offset="0"
       prop_units="false"
       vertical_pattern="false"
       fuse_tolerance="0" />
    <radialGradient
       inkscape:collect="always"
       xlink:href="#linearGradient1628"
       id="radialGradient1630"
       cx="97.206772"
       cy="137.38303"
       fx="97.206772"
       fy="137.38303"
       r="110.12207"
       gradientTransform="matrix(1.6177068,-0.00973864,0.00825216,1.3707852,-22.690883,-47.992043)"
       gradientUnits="userSpaceOnUse" />
    <radialGradient
       inkscape:collect="always"
       xlink:href="#linearGradient1628"
       id="radialGradient1634"
       gradientUnits="userSpaceOnUse"
       gradientTransform="matrix(1.0202246,-0.02347909,0.02696292,1.1716056,-210.76772,-20.588887)"
       cx="115.18504"
       cy="136.26892"
       fx="115.18504"
       fy="136.26892"
       r="110.12207" />
  </defs>
  <sodipodi:namedview
     id="base"
     pagecolor="#ffffff"
     bordercolor="#666666"
     borderopacity="1.0"
     inkscape:pageopacity="0.0"
     inkscape:pageshadow="2"
     inkscape:zoom="0.24748737"
     inkscape:cx="2012.4733"
     inkscape:cy="248.6039"
     inkscape:document-units="mm"
     inkscape:current-layer="layer1"
     showgrid="false"
     inkscape:snap-global="false"
     inkscape:window-width="1920"
     inkscape:window-height="1011"
     inkscape:window-x="0"
     inkscape:window-y="33"
     inkscape:window-maximized="1"
     fit-margin-top="25"
     fit-margin-left="-3"
     fit-margin-right="-3"
     fit-margin-bottom="0"
     borderlayer="true" />
  <metadata
     id="metadata5">
    <rdf:RDF>
      <cc:Work
         rdf:about="">
        <dc:format>image/svg+xml</dc:format>
        <dc:type
           rdf:resource="http://purl.org/dc/dcmitype/StillImage" />
        <dc:title></dc:title>
      </cc:Work>
    </rdf:RDF>
  </metadata>
  <g
     inkscape:label="Calque 1"
     inkscape:groupmode="layer"
     id="layer1"
     transform="translate(174.79349,-23.919149)">
    <rect
       y="-0.089287184"
       x="-200.32597"
       height="265.33926"
       width="219.98215"
       id="rect1632"
       style="opacity:1;fill:url(#radialGradient1634);fill-opacity:1;stroke:#000000;stroke-width:0.26199999;stroke-miterlimit:4;stroke-dasharray:none;stroke-opacity:1" />
    <rect
       style="opacity:1;fill:url(#radialGradient1630);fill-opacity:1;stroke:#000000;stroke-width:0.26199999;stroke-miterlimit:4;stroke-dasharray:none;stroke-opacity:1"
       id="rect1622"
       width="219.98215"
       height="265.33926"
       x="52.918076"
       y="-0.089287184" />
    <path
       style="opacity:0.51794876;fill:#000000;fill-opacity:1;stroke:none;stroke-width:0.26458332;stroke-opacity:1"
       d="m -239.2587,90.624958 a 21.166666,21.166666 0 0 0 -13.54078,4.922697 21.166666,21.166666 0 0 0 13.54078,4.904615 21.166666,21.166666 0 0 0 13.54025,-4.922702 21.166666,21.166666 0 0 0 -13.54025,-4.90461 z"
       id="path837"
       inkscape:connector-curvature="0" />
    <g
       id="g1567"
       transform="translate(-40.966865,-5.8262057)">
      <path
         inkscape:connector-curvature="0"
         id="path1415"
         d="m -89.958333,97.759299 0.02363,-1.700892 16.512833,-2.622212 16.489211,0.685083 4.960938,1.795386 7.181548,-0.944941 9.071428,-1.275667 15.213542,0.14174 7.512276,1.27567 3.071057,1.086681 0.2362351,0.708705 -0.5669641,5.055428 -1.889881,6.33111 c 0,0 -4.299479,6.99255 -4.677455,7.08705 -0.377977,0.0945 -6.803572,3.30729 -6.803572,3.30729 l -8.362723,-0.37798 c 0,0 -6.756324,-3.68526 -6.945312,-3.59077 -0.188988,0.0945 -5.811384,-7.9375 -5.811384,-7.9375 l -4.535715,-4.67746 -1.370163,-0.85044 -1.322917,0.85044 -1.086681,2.07887 -0.992187,2.59859 -1.511906,4.11049 -1.795386,2.22061 c 0,0 -6.345912,3.97962 -6.613181,4.24689 -0.267269,0.26727 -7.984678,1.57021 -7.984678,1.57021 l -7.316501,-0.86863 -4.977895,-3.34087 -3.674957,-7.01583 -2.004523,-7.21627 z"
         style="fill:#ffffff;fill-opacity:1;stroke:none;stroke-width:0.26458332px;stroke-linecap:butt;stroke-linejoin:miter;stroke-opacity:1" />
      <path
         sodipodi:nodetypes="ccccccc"
         inkscape:connector-curvature="0"
         id="path1413"
         d="m -88.162944,138.34449 c -2.504561,-2.83388 -4.456283,-6.77344 -5.953125,-11.62276 l -1.13393,-9.07143 2.36235,-2.83482 3.023812,-0.56697 2.929313,-0.18899 z"
         style="fill:#ffc8a2;fill-opacity:0.99215686;stroke:none;stroke-width:0.26458332px;stroke-linecap:butt;stroke-linejoin:miter;stroke-opacity:1" />
      <path
         inkscape:connector-curvature="0"
         id="path1411"
         d="m -16.81994,115.57143 1.984375,-2.07887 2.834821,0.94494 1.700893,2.92931 -0.188988,7.27604 -2.078869,6.52009 -2.267857,6.04762 -2.173363,-16.72544 -2.645833,-3.11831 z"
         style="fill:#ffc8a2;fill-opacity:0.99215686;stroke:none;stroke-width:0.26458332px;stroke-linecap:butt;stroke-linejoin:miter;stroke-opacity:1" />
      <path
         sodipodi:nodetypes="cccccccccccccccccccccccccccc"
         inkscape:connector-curvature="0"
         d="m -19.969305,93.645212 c -2.438122,0.24107 -1.44144,-0.965524 -1.946129,-3.52328 -2.15782,-7.24999 -5.774043,-12.591887 -9.581525,-14.842081 2.713655,-4.026137 -1.783477,-15.500286 0.07869,-12.910192 0.926805,2.718562 2.973851,4.588818 2.711253,7.797904 0.09295,1.523595 -0.188682,3.334041 -0.155483,4.859623 -0.828513,0.108184 1.888944,0.480461 2.048057,1.745477 1.624729,1.990936 3.976959,2.459262 4.518649,5.063289 1.503585,2.590744 2.561244,6.073671 3.088361,9.031345 0.06091,1.470713 1.800553,3.591308 -0.795281,2.978367 z m -69.881399,2.336028 c 2.686383,-0.480727 1.367289,-4.267477 2.632212,-6.293632 0.323218,-2.752434 2.235254,-5.481994 3.763347,-7.758389 1.714867,-2.281434 2.596994,-4.220243 4.516604,-6.296886 4.027905,-2.966616 1.980173,-4.058496 4.328347,-6.991408 1.149249,-2.183649 3.601335,-3.715917 4.952771,-5.705383 2.081525,-0.808368 3.14215,-2.035737 5.743778,-3.283256 2.334884,-0.402038 4.994928,-1.804907 7.130973,-2.569016 2.480304,-1.0137 5.275745,-0.629362 7.98575,-0.794539 2.626784,0.104193 5.77048,-0.136754 8.161193,1.072816 2.453147,0.579436 4.616852,1.864853 6.538699,3.023466 4.056004,1.425059 2.577754,8.861668 4.407978,8.927178 0.787261,8.776679 -1.501363,6.654878 -10.736209,0.968637 -10.78533,-3.430614 -23.357556,-3.38108 -33.015205,3.110713 -5.155205,3.513656 -8.857386,8.819215 -10.228504,14.913704 -0.687494,2.055617 -1.200714,5.377375 -0.725837,6.423506 -0.996286,0.43222 -3.838319,1.223155 -5.455897,1.252489 z"
         style="opacity:0.98999999;fill:#833400;fill-opacity:1;stroke:none;stroke-width:0.13363476;stroke-opacity:1"
         id="path1406" />
      <path
         sodipodi:nodetypes="ccccccccccccccccccc"
         inkscape:connector-curvature="0"
         id="path1385"
         d="m -53.677133,211.47648 c -3.55795,-0.29905 -3.0434,-1.40689 -6.482235,-2.47888 -2.210533,-1.14428 -5.878445,-1.87705 -7.912649,-3.27111 -2.097363,-0.68241 -1.893984,-1.55571 -3.697681,-2.87122 -2.162704,-1.05806 -2.811874,-2.94822 -4.866575,-4.27426 -2.350365,-1.00559 -2.840467,-4.30609 -3.929439,-6.44916 -1.522921,-3.35331 -0.830471,-6.97645 -0.186841,-10.53526 0.348221,-1.37159 0.706645,-5.29705 1.971568,-2.73385 4.399692,5.93208 11.166064,10.91146 18.346337,12.4959 5.871104,1.55135 12.005923,1.32751 18.013351,1.02365 4.336993,-1.62612 7.176631,-2.54829 11.854643,-3.85507 4.171814,-3.45035 8.207532,-6.96425 10.73872,-11.66151 0.305941,3.62116 1.18033,6.23275 1.303879,9.24681 0.661177,4.91145 1.846575,10.53753 -0.898769,14.91088 -1.298293,3.01179 -4.333271,4.88564 -6.361559,6.37066 -1.756421,1.6779 -5.491952,2.47323 -7.623778,3.63495 -2.35192,0.35047 -6.570161,0.98908 -8.980094,1.16751 -2.102627,0.18799 -5.443051,0.0175 -7.547105,-0.18547 z"
         style="opacity:0.98999999;fill:#ffc8a2;fill-opacity:0.99215686;stroke:none;stroke-width:0.1889881;stroke-opacity:1" />
      <path
         sodipodi:nodetypes="cccccccccccccccccccccccccc"
         inkscape:connector-curvature="0"
         id="path1400"
         d="m -75.952023,180.08545 c -7.896124,-9.18263 -10.171936,-22.14144 -11.359492,-33.82066 -0.0557,-2.68598 -1.17675,-4.51027 -0.621393,-7.29732 -0.05316,-2.51694 0.08623,-5.32925 -0.07254,-8.03175 -0.128241,-1.74513 0.107715,-12.64148 0.574183,-15.76173 0.211611,-1.95458 1.501569,-3.20611 1.264119,-0.0604 0.06868,3.52608 1.185911,17.41739 1.957491,20.79478 -0.06488,0.62156 4.78079,5.56632 5.675689,6.59835 2.135026,1.71636 5.966918,-1.27955 4.485762,3.72987 2.838797,1.53431 1.139291,-2.84691 2.622873,-4.5705 2.37317,-5.34013 8.707326,-8.1975 14.244061,-8.84313 3.070643,-0.91355 5.122155,0.58934 8.094544,1.60083 1.255187,-1.26014 5.850273,-3.69232 8.840285,-2.52486 7.227329,1.1725 12.999743,7.35515 14.464507,14.4724 1.144228,2.06873 3.233238,-1.50619 5.949373,-3.86209 0.616911,-1.7811 0.959612,-1.25231 1.258035,-3.33116 0.947511,-3.39747 1.42613,-4.28384 1.546115,-7.20726 0.293111,-9.97815 -0.719328,-13.00869 0.449943,-14.03806 0.935303,2.93683 1.149258,14.34439 1.401734,17.18106 0.622933,8.44418 0.157973,17.26446 -1.047557,25.63299 -0.763594,3.32734 -0.925031,6.88756 -2.454157,9.94014 -1.147377,2.21112 -2.108622,6.18811 -4.106524,8.46334 -4.127417,6.35449 -12.223607,10.53765 -19.673506,11.34612 -3.324582,0.30389 -6.871397,-0.11884 -10.205441,-0.28086 -7.225247,-0.34096 -18.119769,-4.14967 -23.288103,-10.13014 z"
         style="opacity:0.98999999;fill:#bc4b00;fill-opacity:1;stroke:none;stroke-width:0.13363476;stroke-opacity:1" />
      <path
         sodipodi:nodetypes="ccccccccccccccccccccc"
         inkscape:connector-curvature="0"
         id="path1389"
         d="m -74.076279,143.03084 c -3.187748,0.19206 -5.87219,-1.064 -7.538662,-4.48688 -4.047468,-4.25172 -5.671773,-27.74539 -3.980374,-24.30972 2.855759,3.5975 8.460791,6.46012 12.88786,6.54828 3.467987,-1.37236 5.598619,-0.82189 8.771044,-3.10156 2.076575,-1.80049 5.263135,-2.23745 7.577523,-4.1147 1.586447,-3.158 2.675942,-7.92271 4.142503,-11.12149 2.427441,-3.375477 5.844722,3.25897 7.047655,5.12325 1.749055,2.81769 4.380599,5.11263 6.728033,7.54414 2.099701,1.43338 2.207438,3.56598 5.588938,3.49663 2.882536,0.38403 3.303173,1.80698 6.105933,1.10775 2.810309,-0.93208 5.284495,-0.78004 7.963741,-2.05196 4.240996,4.16136 -0.235433,19.44968 -1.575767,23.8798 0.05019,2.47332 -5.328607,7.29998 -5.171633,4.50685 -0.809895,-3.69546 -2.372276,-8.07211 -4.797073,-10.97467 -2.146807,-1.70443 -4.754828,-3.09356 -7.447418,-3.92388 -4.319589,0.75807 -7.17849,-0.6369 -11.405137,3.64855 -5.426966,-3.01368 -6.927523,-2.27493 -12.615914,-2.64666 -4.96868,1.2709 -8.865175,3.84403 -9.95421,9.06231 -1.206212,1.52026 0.624787,6.48892 -2.191843,5.21619 -0.769175,-0.83458 -0.61059,-2.37162 -0.135199,-3.40223 z"
         style="opacity:0.98999999;fill:#ffc8a2;fill-opacity:1;stroke:none;stroke-width:0.1889881;stroke-opacity:1" />
      <path
         sodipodi:nodetypes="ccccccccccccccc"
         inkscape:connector-curvature="0"
         id="path1387"
         d="m -53.605059,95.020066 c -4.824116,-2.335514 -10.212464,-2.119934 -15.416728,-2.027713 -4.765871,0.192214 -9.360527,1.174911 -14.073542,1.844936 -1.542711,0.654497 -1.597894,-0.222929 -1.408981,-1.930969 0.476441,-2.72074 0.838414,-5.673803 1.698861,-8.150696 1.363003,-2.726941 3.304083,-5.5252 5.664192,-7.597972 4.903822,-4.875429 11.481141,-8.233396 18.284558,-8.906126 2.323129,0.215646 4.774841,0.490106 7.165811,0.01593 2.166385,0.113996 4.334721,0.552508 6.501166,1.461584 2.531586,0.493874 4.9085,1.349682 7.310876,2.328807 7.568026,3.227946 14.014389,9.781148 15.88338,17.94752 0.677221,2.281192 0.786292,4.317408 -0.176689,3.591213 -7.042274,-0.402169 -14.153862,-0.857301 -21.150749,0.315906 -2.395135,0.644565 -4.673126,1.988762 -7.276417,1.565106 -3.892664,0.022 -2.145678,0.05795 -3.005738,-0.457526 z"
         style="opacity:0.98999999;fill:#ffc8a2;fill-opacity:1;stroke:none;stroke-width:0.1889881;stroke-opacity:1" />
      <path
         inkscape:original-d="m -86.121028,114.45491 c 0,0 -2.004523,31.53781 12.828937,28.59784"
         inkscape:path-effect="#path-effect869"
         inkscape:connector-curvature="0"
         id="path861"
         d="m -84.11956,132.01225 c -0.174063,-0.75131 -0.330122,-1.50996 -0.476763,-2.26493 -0.680427,-3.57411 -1.021034,-7.12964 -1.255992,-10.3965 -0.06926,-1.74129 -0.159772,-3.38238 -0.269988,-4.8959 -0.160049,1.50952 -0.30468,3.15058 -0.431489,4.89543 -0.134642,3.29912 -0.01534,6.93853 0.615935,10.63881 0.12927,0.77515 0.279174,1.55702 0.459241,2.33725 0.663978,2.87452 1.710712,5.59559 3.484525,7.83287 0,0 10e-7,0 10e-7,0 1.025821,1.29362 2.315694,2.30299 3.75709,2.83179 1.72859,0.62201 3.502443,0.48288 4.944665,0.0604 -1.49207,0.15966 -3.200067,0.0315 -4.670036,-0.70614 -1.239712,-0.61111 -2.290338,-1.62347 -3.145709,-2.8479 0,0 -10e-7,0 -10e-7,0 -1.508594,-2.1562 -2.369628,-4.71228 -3.011479,-7.48521 z"
         style="opacity:1;fill:#aa4400;stroke:none;stroke-width:0.26458332px;stroke-linecap:butt;stroke-linejoin:miter;stroke-opacity:1" />
      <path
         sodipodi:nodetypes="cc"
         inkscape:original-d="m -50.459821,134.37574 c -3.787392,-5.23414 -23.886047,-0.76654 -21.733629,12.85119"
         inkscape:path-effect="#path-effect879"
         inkscape:connector-curvature="0"
         id="path871"
         d="m -64.743423,135.25758 c 0.496762,-0.26211 1.005239,-0.5042 1.520097,-0.72682 2.458939,-1.04695 4.976029,-1.64985 7.442639,-1.71114 1.097477,-0.0251 2.129621,0.0496 3.105185,0.32061 0.859553,0.24254 1.637009,0.61746 2.216985,1.23457 -0.405343,-0.74409 -1.132253,-1.35546 -2.003834,-1.78404 -0.981081,-0.48771 -2.094689,-0.7665 -3.269268,-0.89088 -2.645549,-0.28542 -5.461985,0.14715 -8.15329,1.23287 -0.568834,0.22613 -1.12981,0.48302 -1.677239,0.77133 -2.123381,1.11901 -3.967377,2.67168 -5.265598,4.60432 -1.975117,2.98006 -2.104073,6.39081 -1.36411,8.9183 -0.0761,-2.61739 0.61307,-5.67365 2.544043,-8.05865 1.28088,-1.6086 2.979919,-2.89578 4.90439,-3.91047 z"
         style="opacity:1;fill:#aa4400;stroke:none;stroke-width:0.26458332px;stroke-linecap:butt;stroke-linejoin:miter;stroke-opacity:1" />
      <path
         sodipodi:nodetypes="cc"
         inkscape:original-d="m -48.380952,134.65923 c 3.582221,-7.17279 21.365382,-2.60208 22.86756,12.66219"
         inkscape:path-effect="#path-effect899"
         inkscape:connector-curvature="0"
         id="path891"
         d="m -33.30587,133.19903 c -0.818623,-0.51259 -1.678244,-0.95347 -2.567281,-1.31613 -2.531386,-1.04383 -5.229589,-1.42109 -7.710052,-0.90147 -2.332111,0.47639 -4.150234,1.93307 -4.796476,3.67844 1.002786,-1.55974 2.850841,-2.49591 4.947333,-2.70954 2.285782,-0.2235 4.666122,0.314 6.97104,1.31997 0.804226,0.35501 1.584883,0.76991 2.334242,1.2395 1.664299,1.04238 3.145496,2.33615 4.378533,3.80277 2.346195,2.78287 3.6221,6.07681 4.236557,9.00872 0.0304,-3.00788 -0.816612,-6.64168 -3.171696,-9.84505 -1.232452,-1.67233 -2.802043,-3.13692 -4.6222,-4.27721 z"
         style="opacity:1;fill:#aa4400;stroke:none;stroke-width:0.26458332px;stroke-linecap:butt;stroke-linejoin:miter;stroke-opacity:1" />
      <path
         sodipodi:nodetypes="cccccccccscccccccccccccccccccccccccccc"
         inkscape:connector-curvature="0"
         id="path1395"
         d="m -30.099773,119.02854 c -2.340364,-0.38543 -3.945205,-0.29949 -5.902892,-1.7656 -1.969771,-0.95818 -1.505884,-2.07566 -3.786489,-2.75485 -2.309131,-3.44336 -4.706908,-6.84722 -7.107113,-10.24916 -4.430535,-4.10723 -3.825883,-1.72309 -4.32581,-2.00534 -2.701509,1.52535 -3.273075,4.94488 -4.770048,7.43989 -1.319609,3.76278 -5.257482,5.28897 -8.61173,6.74165 -4.370763,1.74739 -9.459595,2.80429 -13.976471,1.05532 1.875787,-1.82539 3.215716,-4.48037 2.5445,-7.18357 -0.390027,-3.22503 -1.96273,-7.08163 -4.960299,-7.29651 -3.969611,-0.28456 -2.392039,8.41316 -1.260423,11.59851 2.106491,2.98003 -2.416598,-1.68681 -2.802344,-2.79043 -7.710748,-11.10695 -4.06402,-15.520485 -5.069171,-15.440702 2.973115,-0.991388 6.299367,-0.908108 9.423246,-1.313415 7.793228,-0.467551 15.769765,-1.368478 23.474146,0.336772 2.573147,0.875535 5.337533,2.504597 8.156459,2.011488 10.342427,-3.770644 18.615435,-3.447091 35.438761,-2.028969 3.214124,-0.281988 3.985749,2.289286 3.064885,4.980516 -0.835286,2.24388 -1.395289,4.57596 -2.637979,7.26577 -1.603165,3.02837 -3.247167,5.32032 -5.461803,7.20072 -2.220409,-2.0107 -2.923857,0.25242 -3.672831,2.11065 -2.750108,1.22336 -6.012083,0.91963 -8.899739,0.34106 -4.5571,-1.31378 -8.91381,-3.91443 -11.315354,-8.13594 -1.845095,-2.6123 -3.555804,-5.66403 -6.51139,-7.1302 3.266234,3.24296 4.727472,7.72314 7.340138,11.43004 3.769289,4.21377 9.370832,6.94095 15.074504,6.84416 3.562391,-0.0185 -0.956396,-0.59631 -1.775492,-0.71074 0.227978,-2.25171 -1.277228,-0.18154 -1.669261,-0.55112 z m 14.682967,-12.64286 c 0.564471,-2.63231 -0.383281,-5.05599 -3.528006,-4.68997 -2.666122,-0.4184 -1.366342,4.79537 -0.319767,5.98586 1.767185,2.16054 3.983585,-0.66764 3.847773,-1.29589 z m -71.361389,-7.345229 c 1.795706,-2.189321 -1.934441,-3.455536 -1.983472,-1.126564 0.376662,1.219115 0.766707,1.659504 1.983472,1.126564 z m 75.152177,-0.03359 c 0.758571,-1.237006 0.417873,-2.751957 -1.264403,-2.147755 -1.646722,-0.198019 0.247357,3.190544 1.264403,2.147755 z"
         style="opacity:0.98999999;fill:#26211d;fill-opacity:1;stroke:none;stroke-width:0.1889881;stroke-opacity:1" />
      <path
         sodipodi:nodetypes="cc"
         inkscape:original-d="m -17.197916,119.1622 c 0,0 1.133928,25.51339 -6.709077,27.0253"
         inkscape:path-effect="#path-effect919"
         inkscape:connector-curvature="0"
         id="path911"
         d="m -17.018809,133.82326 c 0.06986,-0.55114 0.129129,-1.10134 0.180413,-1.64902 0,0 0,-1e-5 0,-1e-5 0.101486,-4.77723 -0.0244,-9.33302 -0.360963,-13.01204 -0.570243,3.65207 -0.985351,8.16004 -1.187882,12.90506 0,0 0,0 0,0 -0.06372,0.53491 -0.128612,1.07055 -0.197117,1.60454 -0.339521,2.65232 -0.749157,5.09686 -1.50966,7.45264 0,0 -1e-6,0 -1e-6,0 -0.397225,1.22152 -0.842187,2.31701 -1.516003,3.26278 0,0 -1e-6,0 -1e-6,0 -0.602612,0.84214 -1.372467,1.50194 -2.296722,1.80172 0.970687,-0.0657 1.969274,-0.57347 2.781672,-1.38716 0,-1e-5 0,-1e-5 0,-1e-5 0.89693,-0.89227 1.571612,-2.02217 2.1165,-3.26161 0,0 10e-7,0 10e-7,0 1.055515,-2.38853 1.644328,-4.99755 1.989763,-7.71689 z"
         style="opacity:1;fill:#aa4400;stroke:none;stroke-width:0.26458332px;stroke-linecap:butt;stroke-linejoin:miter;stroke-opacity:1" />
      <g
         transform="translate(-16.630952)"
         style="opacity:1"
         id="g1042">
        <path
           style="fill:#ffb380;stroke:none;stroke-width:0.26458332px;stroke-linecap:butt;stroke-linejoin:miter;stroke-opacity:1"
           d="m -78.714508,124.80054 c 0.114668,0.444 0.241443,0.88309 0.377172,1.31697 0.930383,2.97964 2.261657,5.71691 3.645259,8.0986 l 0,0 0,0 0,0 c 0.536863,0.92466 1.079773,1.7878 1.624482,2.58935 l 0,0 c 0.166922,0.24563 0.333064,0.4841 0.500068,0.71638 l 0,0 c 0,0 0,0 0,0 0.04567,0.0635 0.09128,0.1264 0.137104,0.18877 0,0 0,0 0,0 0.01202,0.0164 0.02404,0.0327 0.03609,0.0489 0.0043,0.006 0.0086,0.0116 0.0129,0.0174 -0.003,-0.006 -0.0061,-0.0131 -0.0091,-0.0196 -0.0085,-0.0184 -0.01692,-0.0367 -0.02537,-0.0552 0,0 -10e-7,0 -10e-7,0 -0.03223,-0.0703 -0.06427,-0.14091 -0.0965,-0.21214 -10e-7,0 -10e-7,0 -10e-7,0 l 0,0 c -0.118133,-0.26115 -0.23537,-0.52396 -0.355699,-0.79536 l 0,0 c -0.393535,-0.88763 -0.792956,-1.80636 -1.20787,-2.78642 l 0,0 -10e-7,0 0,0 c -1.062814,-2.51173 -2.185435,-5.27971 -3.035754,-8.16284 -0.124059,-0.42149 -0.242407,-0.84424 -0.351917,-1.26792 -0.253731,-0.98069 -0.458115,-1.95861 -0.579581,-2.94023 -0.147892,-1.24148 -0.186247,-2.44013 0.09252,-3.55337 0.248283,-1.00114 0.786777,-1.9081 1.562182,-2.49537 1.074486,-0.83754 2.559424,-1.1282 3.817106,-1.24114 -1.257712,-0.147 -2.813146,-0.1173 -4.194591,0.67125 -0.999048,0.58815 -1.776276,1.58957 -2.165639,2.77976 -0.416337,1.27553 -0.468574,2.6356 -0.342035,3.96989 0.09601,1.05965 0.294039,2.10484 0.559153,3.13232 z"
           id="path921"
           inkscape:connector-curvature="0"
           inkscape:path-effect="#path-effect929"
           inkscape:original-d="m -72.38244,137.77753 c 0,0 -14.174107,-23.71801 -0.188987,-23.52902" />
        <path
           style="fill:#ffb380;stroke:none;stroke-width:0.26458332px;stroke-linecap:butt;stroke-linejoin:miter;stroke-opacity:1"
           d="m 5.5561314,123.47277 c -0.066002,0.3776 -0.1359953,0.75655 -0.2063372,1.13369 -0.4915986,2.54559 -1.1488604,5.01543 -1.761608,7.28606 l 0,0 -2e-7,1e-5 0,0 c -0.2372224,0.87856 -0.4530592,1.66691 -0.674407,2.47032 l 0,0 c -0.066339,0.24078 -0.1299656,0.47137 -0.1949588,0.70396 l 0,0 c -1e-7,0 -1e-7,0 -1e-7,0 -0.017618,0.063 -0.035125,0.12549 -0.052788,0.18784 0,0 -1e-7,0 -1e-7,0 -0.00463,0.0163 -0.00927,0.0327 -0.013926,0.049 -0.00166,0.006 -0.00336,0.0118 -0.00504,0.0176 0.00317,-0.005 0.00636,-0.0104 0.00951,-0.0156 0.00881,-0.0145 0.017585,-0.029 0.026354,-0.0436 0,0 3e-7,0 3e-7,0 0.03341,-0.0555 0.066604,-0.11149 0.099771,-0.16795 10e-8,0 2e-7,0 3e-7,0 l 0,0 c 0.1216013,-0.20701 0.241852,-0.41916 0.3619225,-0.63718 l 10e-8,0 c 0.3950975,-0.7174 0.7815337,-1.48658 1.1565194,-2.30654 l 0,0 2e-7,0 0,0 c 0.9894629,-2.16237 1.883784,-4.62274 2.449226,-7.25794 0.084845,-0.38348 0.1642893,-0.77246 0.2349765,-1.16614 0.3922136,-2.18801 0.4878052,-4.40536 -0.1405004,-6.48314 0,0 -4e-7,0 -4e-7,0 -0.3125082,-1.0475 -0.8815926,-1.99452 -1.6919572,-2.63147 -0.9644684,-0.73556 -2.1160473,-0.9077 -3.0741009,-0.83421 0.9413505,0.18251 1.9564174,0.59557 2.6136784,1.33875 0.5781281,0.62955 0.9032512,1.47579 1.0861394,2.39534 -1e-7,0 10e-8,0 10e-8,0 0.3713039,1.89047 0.1464265,3.85453 -0.2224764,5.96132 z"
           id="path931"
           inkscape:connector-curvature="0"
           inkscape:path-effect="#path-effect939"
           inkscape:original-d="m 2.6458333,135.32068 c 0,0 9.2604167,-20.97768 -0.5669643,-21.54464" />
      </g>
      <path
         sodipodi:nodetypes="cc"
         inkscape:original-d="m -84.57217,93.365327 c 2.645833,-35.057292 60.003718,-31.844494 63.122022,-0.472472"
         inkscape:path-effect="#path-effect949"
         inkscape:connector-curvature="0"
         id="path941"
         d="m -53.546277,67.624332 c -7.54665,-0.111841 -14.963651,1.865003 -20.752191,6.091881 0,0 -10e-7,2e-6 -10e-7,2e-6 -3.061548,2.239646 -5.504722,5.054393 -7.183105,8.132317 -2.056565,3.776639 -2.92452,7.844856 -3.089519,11.516876 0.387622,-3.654445 1.450513,-7.629655 3.597556,-11.22725 1.749684,-2.935731 4.205318,-5.583707 7.209188,-7.673641 10e-7,0 2e-6,-10e-7 2e-6,-10e-7 5.67792,-3.958159 12.873991,-5.761087 20.201721,-5.666078 0.12036,0.0016 0.240679,0.0036 0.36095,0.0062 7.542549,0.174653 14.842103,2.312286 20.686032,6.361562 2.992801,2.072478 5.492963,4.604959 7.332825,7.446589 2.117326,3.26707 3.289703,6.870137 3.733746,10.279963 -0.236302,-3.432659 -1.232671,-7.138684 -3.265295,-10.570166 -1.767836,-2.981673 -4.251327,-5.67521 -7.282324,-7.886157 -5.920225,-4.316203 -13.417828,-6.631751 -21.178302,-6.804878 -0.123707,-0.003 -0.24747,-0.0054 -0.371283,-0.0072 z"
         style="opacity:1;fill:#552200;fill-opacity:1;stroke:none;stroke-width:0.26458332px;stroke-linecap:butt;stroke-linejoin:miter;stroke-opacity:1" />
      <path
         sodipodi:nodetypes="cc"
         inkscape:original-d="m -76.634671,73.994048 c -0.361773,-0.904432 -11.024602,9.85814 -11.528273,20.505206"
         inkscape:path-effect="#path-effect959"
         inkscape:connector-curvature="0"
         id="path951"
         d="m -83.850911,83.384044 c 0.623852,-1.078175 1.282178,-2.12521 1.962314,-3.144868 0,0 0,0 0,0 l 0,0 c 1.18797,-1.777975 2.314149,-3.318535 3.537051,-4.752159 l 0,0 0,0 0,0 c 0.396274,-0.46293 0.755653,-0.879728 1.179748,-1.248929 l 0,0 c 0.117095,-0.100581 0.226779,-0.197429 0.360552,-0.258213 l 0,0 c 0,0 0,0 0,0 0.03703,-0.01645 0.07559,-0.03109 0.114061,-0.02813 0,0 0,0 0,0 0.02698,0.0021 0.05144,0.0181 0.06272,0.0412 -0.01006,-0.02958 -0.03566,-0.05221 -0.06488,-0.06074 0,0 0,0 0,0 -0.04166,-0.01216 -0.08562,-0.0064 -0.126534,0.0025 0,0 0,0 0,0 l 0,0 c -0.152609,0.03199 -0.294677,0.107274 -0.429978,0.183086 l 0,0 c -0.502592,0.2786 -0.960817,0.638507 -1.429256,1.03245 l 0,0 -10e-7,0 0,0 c -1.454869,1.221108 -2.817389,2.709987 -4.117929,4.439984 l 0,0 c 0,0 0,1e-6 0,1e-6 -0.755797,1.003954 -1.465754,2.065673 -2.110022,3.179195 -0.692506,1.197585 -1.294741,2.430359 -1.794027,3.688068 -1.150457,2.889692 -1.620679,5.62376 -1.454726,8.041862 0.396868,-2.416999 1.185786,-4.857503 2.469369,-7.603726 0.55535,-1.185034 1.170018,-2.351675 1.841536,-3.51154 z"
         style="opacity:1;fill:#552200;stroke:none;stroke-width:0.26458332px;stroke-linecap:butt;stroke-linejoin:miter;stroke-opacity:1" />
      <path
         sodipodi:nodetypes="cc"
         inkscape:original-d="m -29.860118,75.316962 c 0.889745,-1.779492 12.213704,8.078544 10.583333,17.859376"
         inkscape:path-effect="#path-effect969"
         inkscape:connector-curvature="0"
         id="path961"
         d="m -21.220034,82.06987 c -0.556979,-0.91874 -1.184945,-1.782597 -1.863067,-2.585389 0,0 0,-10e-7 0,-10e-7 -1.316144,-1.566478 -2.75314,-2.861448 -4.333145,-3.763824 0,0 0,0 0,0 -0.522856,-0.302411 -1.061667,-0.566369 -1.631832,-0.664057 -0.17534,-0.03219 -0.365529,-0.04372 -0.537624,0.0093 -0.1317,0.04047 -0.23633,0.137635 -0.273199,0.251684 0.06896,-0.09796 0.184035,-0.145504 0.291601,-0.147268 0.153116,-0.0044 0.29834,0.05384 0.448604,0.119952 0.485824,0.221448 0.884529,0.566174 1.330183,0.953278 0,0 0,0 0,0 1.311743,1.15705 2.448701,2.509209 3.62434,4.095406 0,0 0,0 0,0 0.592013,0.80386 1.156923,1.636655 1.679578,2.497817 0.673608,1.109033 1.261719,2.239694 1.75201,3.401646 1.029417,2.450979 1.490533,4.746914 1.45714,6.93817 0.677531,-2.081437 0.667476,-4.68753 -0.226258,-7.396674 -0.420867,-1.283369 -1.002098,-2.527748 -1.718331,-3.710027 z"
         style="opacity:1;fill:#552200;stroke:none;stroke-width:0.26458332px;stroke-linecap:butt;stroke-linejoin:miter;stroke-opacity:1" />
      <path
         sodipodi:nodetypes="cc"
         inkscape:original-d="m -76.445684,73.049105 c 5.69492,-21.713848 52.092654,-24.04153 47.530506,1.228424"
         inkscape:path-effect="#path-effect979"
         inkscape:connector-curvature="0"
         id="path971"
         d="m -50.432048,54.793761 c -5.804381,0.299811 -11.357943,1.984164 -16.040934,4.853849 0,0 -2e-6,2e-6 -2e-6,2e-6 -2.612106,1.598441 -4.851179,3.550822 -6.568211,5.786768 -1.852528,2.413175 -2.974301,5.067914 -3.402175,7.615332 0.876513,-2.428865 2.330302,-4.772146 4.324601,-6.819684 1.853651,-1.904521 4.103627,-3.502443 6.6428,-4.822114 1e-6,-10e-7 2e-6,-10e-7 2e-6,-10e-7 4.563062,-2.368608 9.773612,-3.731523 15.179098,-4.015443 0.492547,-0.02597 0.985374,-0.04288 1.478021,-0.05078 2.750865,-0.03879 5.466784,0.21292 8.054027,0.86699 2.408469,0.613944 4.659974,1.541294 6.552504,2.918006 1.871061,1.355638 3.349859,3.151308 4.224597,5.161385 1.124163,2.549389 1.301314,5.440066 1.074893,7.989902 0.680278,-2.47305 0.960031,-5.449152 0.07532,-8.409326 -0.708987,-2.332621 -2.15479,-4.534848 -4.181513,-6.254335 -2.030833,-1.718618 -4.488014,-2.933788 -7.111231,-3.70697 -2.812435,-0.834557 -5.762561,-1.18874 -8.718963,-1.160421 -0.527479,0.0041 -1.055278,0.01969 -1.582833,0.04684 z"
         style="opacity:1;fill:#552200;stroke:none;stroke-width:0.26458332px;stroke-linecap:butt;stroke-linejoin:miter;stroke-opacity:1" />
      <path
         sodipodi:nodetypes="cscc"
         inkscape:original-d="m -90.130071,96.2118 c -0.365249,-0.536467 28.774062,-5.189161 35.947751,-0.733024 1.522976,0.946039 5.389218,0.999834 8.047728,0.172773 3.016412,-3.105972 32.171929,-2.469302 36.530929,0.850448"
         inkscape:path-effect="#path-effect989"
         inkscape:connector-curvature="0"
         id="path981"
         d="m -49.870998,95.328732 c -0.231447,-2.76e-4 -0.463543,-0.0059 -0.69583,-0.01642 -1.214368,-0.0582 -2.365863,-0.08342 -3.136285,-0.604985 l 0,0 c -1.257601,-0.758224 -2.62864,-1.126675 -3.924179,-1.364923 l 0,0 -2e-6,0 -10e-7,0 c -1.746785,-0.33533 -3.498722,-0.472793 -5.209274,-0.532179 l 0,0 c -4.194292,-0.147727 -8.325882,0.152322 -12.195072,0.578598 l 0,0 -2e-6,0 0,0 c -3.781985,0.415795 -7.334874,0.967028 -10.678007,1.643671 l 0,0 c -1.13608,0.229888 -2.220503,0.463219 -3.287752,0.752272 l 0,0 c -0.296027,0.08012 -0.588882,0.160579 -0.872432,0.267476 l 0,0 c 0,0 -2e-6,10e-7 -2e-6,10e-7 -0.07208,0.02713 -0.14489,0.05452 -0.210747,0.09497 0,0 -2e-6,10e-7 -2e-6,10e-7 -0.01653,0.01016 -0.03339,0.02083 -0.04515,0.03656 -0.0063,0.0084 -0.0096,0.02056 -0.0035,0.02951 -0.0055,-0.008 -0.0018,-0.01922 0.0049,-0.02667 0.01259,-0.01393 0.03016,-0.02276 0.04734,-0.03104 0,0 10e-7,-1e-6 10e-7,-1e-6 0.06843,-0.03298 0.142636,-0.05242 0.217091,-0.07223 0,0 2e-6,0 2e-6,0 l 0,0 c 0.291049,-0.07709 0.586606,-0.127044 0.888885,-0.177956 l 0,0 c 1.088567,-0.182977 2.177625,-0.314326 3.32883,-0.446516 l 0,0 c 3.384954,-0.388346 6.929322,-0.689896 10.707353,-0.899808 l 0,0 2e-6,0 0,0 c 3.85652,-0.213452 7.947611,-0.347291 12.017496,-0.09254 l 0,0 c 1.663706,0.104988 3.328948,0.269155 4.941369,0.609339 l 0,0 2e-6,0 0,0 c 1.21348,0.266309 2.384226,0.57403 3.314264,1.174607 l 0,0 c 1.330871,0.783575 2.794979,0.908543 4.059942,0.897419 0.280642,-7.71e-4 0.562254,-0.0077 0.844356,-0.02134 1.370728,-0.06629 2.750728,-0.289658 4.084962,-0.722548 0.347184,-0.421984 1.142418,-0.578967 2.01261,-0.871665 1.279818,-0.330603 2.623068,-0.511828 3.979491,-0.664616 3.795428,-0.423603 7.619658,-0.520592 11.292337,-0.521209 4.109174,7.42e-4 7.9076,0.133389 11.615581,0.511938 1.545477,0.158147 3.004226,0.346701 4.43451,0.662759 0.988357,0.221827 1.935489,0.433189 2.7352566,0.979455 -0.7391456,-0.625453 -1.6944016,-0.949796 -2.6609836,-1.254896 -1.411154,-0.449889 -2.876315,-0.766788 -4.416419,-1.043039 -3.692189,-0.663061 -7.548302,-1.031262 -11.67715,-1.216445 -3.703116,-0.167411 -7.5847,-0.193833 -11.496707,0.159862 -1.390792,0.124283 -2.819249,0.297051 -4.241699,0.641497 -0.737084,0.108802 -1.690512,0.340944 -2.501298,1.111269 -1.041684,0.306336 -2.149721,0.431306 -3.27411,0.429826 z"
         style="opacity:1;fill:#000000;stroke:none;stroke-width:0.26458332px;stroke-linecap:butt;stroke-linejoin:miter;stroke-opacity:1" />
      <path
         sodipodi:nodetypes="csc"
         inkscape:original-d="m -49.325893,101.86979 c 0.676085,0.45214 3.026064,2.29202 6.89951,9.04898 4.693172,8.18692 28.589366,18.23561 32.7879904,-14.057163"
         inkscape:path-effect="#path-effect999"
         inkscape:connector-curvature="0"
         id="path991"
         d="m -26.316667,117.92704 c -3.118918,0.14534 -6.285516,-0.72824 -9.099723,-2.13814 -2.613882,-1.34836 -4.935976,-2.99048 -6.359566,-5.24299 -2.292177,-3.66259 -4.322477,-6.90689 -7.551133,-8.67433 2.89339,2.329 4.192601,5.49706 6.248333,9.42116 1.426828,2.71945 3.887509,4.81366 6.667096,6.35408 3.015755,1.71299 6.555185,2.76217 10.196189,2.61406 0.150277,-0.006 0.300625,-0.0143 0.45101,-0.0246 0,0 1e-6,-1e-5 1e-6,-1e-5 4.28514,-0.32588 8.14139,-2.58006 10.661038,-5.75976 4.299107,-5.49152 5.2519106,-12.44135 5.4628984,-17.615237 -1.1116234,5.027457 -2.8576254,11.718217 -7.0027584,16.326967 -2.34405,2.63535 -5.731386,4.48645 -9.286123,4.71553 -1e-6,0 -1e-6,0 -2e-6,0 -0.12897,0.01 -0.258065,0.0172 -0.38726,0.0232 z"
         style="opacity:1;fill:#000000;stroke:none;stroke-width:0.26458332px;stroke-linecap:butt;stroke-linejoin:miter;stroke-opacity:1" />
      <path
         sodipodi:nodetypes="csc"
         inkscape:original-d="m -50.932292,102.24777 c -3.089829,0.7898 -3.691842,9.09493 -6.992558,11.62276 -5.828982,4.46409 -29.671132,16.15849 -31.844494,-17.197912"
         inkscape:path-effect="#path-effect1009"
         inkscape:connector-curvature="0"
         id="path1001"
         d="m -73.83705,120.55765 c 3.19301,0.043 6.305061,-0.74887 9.127974,-1.9145 2.647427,-1.07875 5.110243,-2.44532 7.234134,-4.18515 1.04656,-0.8773 1.679311,-2.01929 2.142405,-3.09006 0,0 1e-6,-1e-5 1e-6,-1e-5 0.565175,-1.27311 0.977865,-2.59678 1.367061,-3.81419 0.395664,-1.22863 0.733152,-2.34756 1.265654,-3.41619 0.421526,-0.81991 0.925957,-1.60669 1.76706,-1.89161 -0.87466,0.15417 -1.574617,0.89743 -2.098719,1.69796 -0.688958,1.02425 -1.185609,2.14393 -1.704527,3.31619 -0.52061,1.17098 -1.052914,2.43482 -1.681931,3.56924 0,0 -10e-7,1e-5 -10e-7,1e-5 -0.543841,0.95871 -1.143775,1.90436 -1.957864,2.45236 -2.092894,1.49 -4.46896,2.64173 -7.023482,3.58913 -2.70704,0.98833 -5.579598,1.68132 -8.407821,1.63669 -0.437984,-0.007 -0.874793,-0.0313 -1.309868,-0.075 -1.647617,-0.1603 -3.258525,-0.60037 -4.691147,-1.35002 -1.630756,-0.84366 -3.046783,-2.10237 -4.188484,-3.54528 -3.877754,-4.85501 -5.051579,-11.78146 -5.77463,-16.864474 -0.05676,5.165804 0.396334,12.241504 4.373944,17.910384 1.193015,1.68351 2.758302,3.17823 4.65432,4.23452 1.67072,0.92217 3.530148,1.46898 5.424023,1.65852 0.494496,0.0481 0.988741,0.0748 1.481898,0.0815 z"
         style="opacity:1;fill:#000000;stroke:none;stroke-width:0.26458332px;stroke-linecap:butt;stroke-linejoin:miter;stroke-opacity:1" />
      <path
         sodipodi:nodetypes="cccscccscsssscsscccccccc"
         inkscape:connector-curvature="0"
         id="path1383"
         d="m -135.12018,225.15453 v -16.99436 l 1.6064,-0.41849 c 16.71751,-4.35515 33.591162,-12.18057 44.684371,-20.7231 1.253541,-0.96531 2.337374,-1.88722 2.408526,-2.04869 0.07115,-0.16148 0.770581,-0.62072 1.554298,-1.02054 l 3.830363,-3.26601 -0.872127,5.42866 c -0.448153,2.78958 0.923129,4.8704 0.655805,6.95745 2.423729,4.77036 3.474744,6.22496 6.5443,9.05728 5.797613,5.34952 15.137518,9.49912 24.516114,10.89221 3.854688,0.57257 11.652238,0.50017 14.918901,-0.13853 5.970686,-1.16737 10.249894,-3.26703 13.545899,-6.64649 2.072239,-2.12471 1.860195,-2.59518 3.821366,-6.89083 0.569459,-1.24732 -1.092589,-3.73143 0.348804,-3.92434 0.48977,-0.0656 1.059603,-2.64583 1.059603,-2.64583 -2.54531,-4.37041 0.0738,-5.92382 -1.806624,-8.45661 -1.390015,-1.87224 2.456165,-0.62697 4.264033,1.03795 8.039613,7.00978 20.591537,11.34048 32.2838,13.28661 6.009135,-0.007 13.434423,3.0929 15.513405,2.71581 5.283731,13.77622 0.07811,19.21588 0.07811,40.79221 h -84.477677 -84.47767 z"
         style="opacity:0.98999999;fill:#6c5353;fill-opacity:1;stroke:none;stroke-width:0.37797621;stroke-opacity:1" />
      <path
         sodipodi:nodetypes="cc"
         inkscape:original-d="m -79.172019,176.72871 c -19.897219,37.64339 80.38394,56.32027 58.799294,2.13816"
         inkscape:path-effect="#path-effect1299"
         inkscape:connector-curvature="0"
         id="path1291"
         d="m -48.046376,211.05533 c -0.308481,-0.0347 -0.616705,-0.0719 -0.924593,-0.11165 -4.905643,-0.63865 -9.688465,-1.91806 -14.166258,-3.81335 -4.331438,-1.84057 -8.295702,-4.18987 -11.532277,-7.2487 -3.046377,-2.88845 -5.333806,-6.35623 -6.222069,-10.14638 -1.079446,-4.48966 -0.0384,-9.21004 1.717439,-13.00766 -2.151123,3.59451 -3.673136,8.31347 -2.883134,13.23911 0.684883,4.13147 2.897403,8.04786 6.038442,11.27908 3.306065,3.41229 7.417208,6.0703 11.915254,8.09295 4.649868,2.09843 9.651388,3.50639 14.79536,4.18236 0.322431,0.0427 0.645489,0.0826 0.969094,0.11946 4.617958,0.52556 9.304711,0.43789 13.841429,-0.50564 4.408543,-0.90447 8.634833,-2.70234 11.929964,-5.66559 1.599801,-1.44827 2.917125,-3.15652 3.874072,-5.02252 1.056787,-2.06918 1.655967,-4.28809 1.889788,-6.47268 0.661947,-6.33131 -1.379316,-12.35584 -3.571085,-17.10637 1.673635,4.9497 3.163744,11.05946 2.139616,16.90805 -0.347674,2.01402 -1.010826,4.01205 -2.050788,5.80674 -0.935383,1.62113 -2.181694,3.08688 -3.651614,4.31571 -3.021837,2.54585 -6.926498,4.02748 -11.040921,4.81865 -4.250584,0.8047 -8.667904,0.83372 -13.067719,0.33843 z"
         style="fill:#000000;stroke:none;stroke-width:0.26458332px;stroke-linecap:butt;stroke-linejoin:miter;stroke-opacity:1" />
      <path
         sodipodi:nodetypes="cc"
         inkscape:original-d="m -83.15476,182.47321 c -16.056537,12.48812 -34.62568,19.95102 -53.67262,26.45833"
         inkscape:path-effect="#path-effect1309"
         inkscape:connector-curvature="0"
         id="path1301"
         d="m -108.25857,199.06364 c 10.292206,-4.84856 18.741314,-10.54328 25.102341,-16.59232 -7.813959,4.92152 -15.646263,9.27582 -26.209351,14.23903 -9.77801,4.59694 -19.82843,8.73738 -27.46105,12.22346 8.24385,-1.93243 18.54489,-5.15098 28.56806,-9.87017 z"
         style="fill:#000000;stroke:none;stroke-width:0.26458332px;stroke-linecap:butt;stroke-linejoin:miter;stroke-opacity:1" />
      <path
         sodipodi:nodetypes="cc"
         inkscape:original-d="m -15.497023,184.36309 c 15.654729,12.43977 32.5318,13.87847 49.136904,17.76488"
         inkscape:path-effect="#path-effect1319"
         inkscape:connector-curvature="0"
         id="path1311"
         d="m 8.2880551,194.97027 c -9.5594834,-2.8838 -17.0954287,-6.42336 -23.7865671,-10.60531 5.482608,5.46748 13.3478515,10.18129 23.0361398,13.0958 0.2711526,0.0815 0.5427119,0.16128 0.8146375,0.23934 0,0 1.4e-6,0 1.4e-6,0 8.5786173,2.46429 18.6929913,3.65005 25.2881663,4.42554 -6.753502,-2.40776 -15.781416,-4.33379 -24.5625877,-6.91978 0,0 -1.4e-6,0 -1.4e-6,0 -0.2634748,-0.0776 -0.5267425,-0.15616 -0.7897888,-0.23559 z"
         style="fill:#000000;stroke:none;stroke-width:0.26458332px;stroke-linecap:butt;stroke-linejoin:miter;stroke-opacity:1" />
      <path
         sodipodi:nodetypes="cssc"
         inkscape:original-d="m -87.457375,114.72218 c -3.699316,52.8185 6.701907,75.20159 36.458941,76.55364 26.187468,1.18986 40.498138,-14.12106 34.810679,-70.67426 -0.09732,-0.96768 -0.200492,-1.94745 -0.309562,-2.93941"
         inkscape:path-effect="#path-effect859"
         inkscape:connector-curvature="0"
         id="path851"
         d="m -51.606382,189.94123 c -6.2097,-0.3687 -12.362621,-1.71019 -17.509379,-4.84019 -5.125673,-3.07313 -9.043094,-7.94487 -11.646517,-13.28133 -3.546363,-7.2696 -5.06796,-15.42313 -5.949662,-23.11985 -1.352689,-11.88781 -1.139599,-23.87564 -0.747822,-33.97785 -1.023654,10.10043 -1.802226,22.01892 -0.842683,34.1311 0.613245,7.81649 1.960685,16.20332 5.515308,23.92565 2.63473,5.72249 6.775068,10.99761 12.3643,14.46387 5.615497,3.43822 12.1677,4.93993 18.667816,5.29781 0.232671,0.0128 0.465214,0.0241 0.697582,0.034 6.014495,0.28995 12.224438,-0.27592 17.84826,-2.73426 5.420858,-2.40684 9.768537,-6.68162 12.562227,-11.68056 3.912192,-7.03072 5.337227,-14.9964 5.960459,-22.40239 0,0 0,-1e-5 0,-1e-5 1.064545,-12.44928 -0.0551,-24.75493 -1.414309,-35.16442 -0.128925,-0.98758 -0.26214,-1.96472 -0.398894,-2.93042 0.07642,0.97232 0.150145,1.95557 0.220467,2.94836 0.739162,10.43934 1.307064,22.79633 -0.126497,34.97198 -10e-7,0 -10e-7,1e-5 -10e-7,1e-5 -0.865888,7.26895 -2.416064,14.94973 -6.228511,21.4416 -2.663341,4.55392 -6.695375,8.42381 -11.580123,10.51027 -5.118306,2.22527 -10.941213,2.68843 -16.725067,2.44254 -0.222305,-0.0108 -0.444639,-0.0227 -0.666954,-0.0359 z"
         style="opacity:1;fill:#aa4400;stroke:none;stroke-width:0.26458332px;stroke-linecap:butt;stroke-linejoin:miter;stroke-opacity:1" />
    </g>
    <g
       id="g1620"
       transform="translate(20.410715,7.5595238)">
      <path
         sodipodi:nodetypes="cccccccccccccccccccccccccccc"
         inkscape:connector-curvature="0"
         id="path1577"
         d="m 59.400651,87.594322 -0.267269,-3.407685 1.737252,-13.898014 3.274052,-10.623966 9.488069,-14.967092 17.973876,-11.024867 24.856059,-3.207235 15.76891,0.935443 13.63074,3.073601 c 3.30729,-0.94494 1.61091,-2.655093 4.2095,-3.741775 l 6.1472,0.734992 7.684,5.545843 3.94222,9.488067 -1.06908,9.955789 -3.80859,5.345391 -1.33635,0.734991 -4.34313,-6.949006 -17.10524,-11.158503 -18.97614,-3.541321 -8.21854,1.00226 -7.08264,4.610399 -6.614922,12.02713 -4.142676,11.559405 0.467719,12.762121 -18.107508,1.002261 -7.283096,1.5368 -3.00678,1.336347 z"
         style="fill:#833400;fill-opacity:0.99607843;stroke:none;stroke-width:0.26458332px;stroke-linecap:butt;stroke-linejoin:miter;stroke-opacity:1" />
      <path
         sodipodi:nodetypes="cccccccccccccccccccccccccccccc"
         inkscape:connector-curvature="0"
         id="path1575"
         d="M 108.0067,44.078574 97.328867,60.386904 95.06101,77.395831 c 0,0 -0.03914,3.29386 0.562222,4.496573 l -4.814448,11.661909 -0.472472,15.591517 3.779763,13.41816 7.654015,14.2686 13.51265,12.18973 9.5439,6.42559 2.26785,-0.47247 1.13393,-3.77976 5.57515,-7.9375 10.11086,-6.42559 7.55953,-0.66146 4.44122,1.32292 4.06324,0.94494 2.83482,-0.75596 2.45685,-1.60639 1.03943,-8.69346 -2.07887,-10.58333 3.3073,-26.269346 -1.41742,-18.42634 -3.68526,-9.827379 -3.49628,-5.10268 -14.2686,-10.29985 -15.59152,-5.197174 -10.58334,-0.755951 -5.40237,0.834235 c -2.07134,0.935443 -3.81693,0.585957 -5.08646,2.323209 z"
         style="opacity:1;fill:#ffc8a3;fill-opacity:0.99607843;stroke:none;stroke-width:0.26458332px;stroke-linecap:butt;stroke-linejoin:miter;stroke-opacity:1" />
      <path
         sodipodi:nodetypes="cccccccccccccccccccc"
         inkscape:connector-curvature="0"
         id="path1581"
         d="m 116.79464,91.286456 3.2128,-7.748511 12.56771,0.377976 16.15848,3.590774 9.07143,5.291667 2.64583,1.606399 9.44941,0.850445 10.11086,3.212798 2.17336,2.173366 -2.07887,6.70907 -5.95312,11.71727 -4.63021,4.6302 -2.55134,0.0945 -3.02381,-9.26042 -4.25223,-11.0558 -1.79539,-1.13393 -1.5119,4.8192 -9.26042,11.62277 -11.43378,3.1183 -8.59896,-3.30729 -5.57514,-3.2128 -0.28349,-17.481399 -1.6064,-5.764137 -1.60639,-0.850446 z"
         style="opacity:1;fill:#28231f;fill-opacity:1;stroke:none;stroke-width:0.26458332px;stroke-linecap:butt;stroke-linejoin:miter;stroke-opacity:1" />
      <path
         inkscape:connector-curvature="0"
         id="path1579"
         d="m 67.017833,86.391611 10.49033,-3.073601 c 0,0 12.895754,-0.668173 13.898014,-0.668173 1.00226,0 24.922883,0.935445 24.922883,0.935445 l 4.00904,-0.133636 -3.00678,7.884451 -9.02035,-0.734991 -24.521975,1.069078 -11.158503,-1.670434 z"
         style="fill:#7e6161;fill-opacity:1;stroke:none;stroke-width:0.26458332px;stroke-linecap:butt;stroke-linejoin:miter;stroke-opacity:1" />
      <path
         sodipodi:nodetypes="cccccccccccccccccccccccccccccccccc"
         inkscape:connector-curvature="0"
         id="path1573"
         d="m 79.178596,91.269279 0.133636,4.476766 1.870887,13.630745 v 13.76438 l -2.271792,7.684 -3.207234,3.60814 1.069078,7.61718 4.209495,11.82668 9.220797,15.56845 16.503897,16.63752 10.22306,6.34765 15.73922,6.2954 12.47322,0.94494 8.69345,-4.15774 5.10268,-7.37054 1.88988,-7.55952 1.13393,-8.50446 -0.66564,-9.24817 -0.60136,-5.14494 2.40543,-8.61945 -0.66818,-8.01808 -1.80407,-2.80633 -5.27857,-1.1359 -6.08038,-1.06908 -10.69078,3.47451 -6.81537,6.81537 -4.54359,6.88219 c -0.63477,1.97111 -1.83747,1.97112 -2.77291,1.57021 -2.60588,-1.13589 -12.92917,-8.98694 -12.92917,-8.98694 l -14.499374,-16.1698 -5.078118,-14.9671 c 0,0 -1.469983,-12.56166 -1.737255,-12.16076 -0.267268,0.4009 1.536801,-11.091685 1.536801,-11.091685 z"
         style="fill:#bc4a00;fill-opacity:0.99607843;stroke:none;stroke-width:0.26458332px;stroke-linecap:butt;stroke-linejoin:miter;stroke-opacity:1" />
      <path
         inkscape:connector-curvature="0"
         id="path1571"
         d="m 50.270833,179.07143 8.315475,-5.66965 7.748514,17.38691 13.040177,14.55208 17.197916,6.99256 16.630955,-1.88988 12.47321,-5.29167 8.31548,-6.04762 11.1503,0.75596 8.12648,-4.34673 5.66965,-6.61458 2.07887,-10.01637 4.15773,-0.75595 7.37054,2.45684 7.55952,6.80357 8.50447,9.44941 11.52827,17.95387 7.37054,17.95386 2.64583,7.55953 v 3.02381 L 49.892857,243.13839 Z"
         style="fill:#6b5252;fill-opacity:0.99607843;stroke:none;stroke-width:0.26458332px;stroke-linecap:butt;stroke-linejoin:miter;stroke-opacity:1" />
      <path
         inkscape:connector-curvature="0"
         id="path1569"
         d="m 132.66964,199.86012 -12.47321,7.9375 -13.41816,4.15773 -16.819938,-1.13392 -10.961309,-5.66965 -9.449406,-9.4494 -7.808356,-13.22737 -3.541321,-8.55263 4.34313,-4.00904 4.877668,-12.56167 2.739511,-16.03617 -0.868624,-12.16076 -0.133636,-7.684 -8.218538,-5.81312 -5.545841,-11.49259 0.267269,-11.091682 4.34313,-5.679476 5.879928,-1.403165 5.679477,3.006783 1.269532,1.069078 6.013563,1.202711 1.269532,7.349913 2.271789,16.303438 -1.403164,11.29214 -3.474503,6.48129 -1.670434,2.00452 0.400902,3.54132 1.737254,8.35217 6.681737,14.63301 6.614919,8.55262 8.218541,9.02035 c 0,0 11.826678,8.81989 12.160758,9.15398 0.33409,0.33409 14.29892,8.75308 14.29892,8.75308 z"
         style="fill:#ffc8a3;fill-opacity:0.99607843;stroke:none;stroke-width:0.26458332px;stroke-linecap:butt;stroke-linejoin:miter;stroke-opacity:1" />
      <path
         inkscape:original-d="m 79.111778,93.607889 c 0,0 8.819896,32.606881 -4.543581,41.426771"
         inkscape:path-effect="#path-effect1059"
         inkscape:connector-curvature="0"
         id="path1051"
         d="m 83.272425,115.26061 c 0.0055,-1.46963 -0.05935,-2.92907 -0.174396,-4.36659 -1.145853,-6.42384 -2.530728,-12.430401 -3.988605,-17.285736 0.105128,5.070465 0.623144,11.152116 1.495996,17.552806 0.04801,1.3899 0.07851,2.78624 0.07251,4.17689 -0.01287,3.20795 -0.219734,6.27021 -0.804766,9.254 0,0 0,0 0,0 -0.408688,2.09549 -0.976639,4.03042 -1.832656,5.79906 -0.893357,1.84723 -2.06721,3.41685 -3.471,4.64562 1.682665,-0.80889 3.292032,-2.15907 4.589929,-3.97634 1.236221,-1.73016 2.15352,-3.75611 2.797615,-5.9575 0,0 0,0 0,0 0.916341,-3.1438 1.301864,-6.46277 1.315375,-9.84221 z"
         style="fill:#aa4400;fill-opacity:1;stroke:none;stroke-width:0.26458332px;stroke-linecap:butt;stroke-linejoin:miter;stroke-opacity:1" />
      <path
         sodipodi:nodetypes="cc"
         inkscape:original-d="M 91.406179,94.142426 C 91.041196,94.264087 82.350398,132.44059 124.5476,154.81261"
         inkscape:path-effect="#path-effect1069"
         inkscape:connector-curvature="0"
         id="path1061"
         d="m 98.707827,129.32182 c -2.46146,-4.2974 -4.341712,-8.83038 -5.615131,-13.4545 0,0 0,0 0,0 l 0,0 c -1.454299,-5.28092 -2.106918,-10.44736 -2.147223,-15.31639 l 0,0 0,-10e-6 0,0 c -0.01308,-1.613919 0.03594,-3.153331 0.182434,-4.6612 l 0,0 c 0.04239,-0.435595 0.09027,-0.860669 0.161716,-1.282874 l 0,0 c 0,0 0,-10e-7 0,-10e-7 0.01948,-0.11494 0.03976,-0.228729 0.06787,-0.340733 0,0 0,-1e-6 0,-1e-6 0.0076,-0.03045 0.01561,-0.06086 0.02658,-0.09003 0.0048,-0.01277 0.0079,-0.02972 0.01984,-0.03442 -0.01407,0.004 -0.01923,0.02027 -0.02613,0.03237 -0.01577,0.02767 -0.02858,0.05669 -0.04108,0.08584 0,0 0,10e-7 0,10e-7 -0.04598,0.107217 -0.08432,0.217408 -0.121601,0.328222 0,10e-7 0,10e-7 -10e-7,2e-6 l 0,0 c -0.137431,0.408489 -0.251167,0.827258 -0.357981,1.254779 l 0,0 c -0.370178,1.481316 -0.630407,3.03189 -0.813032,4.660812 l 0,0 -10e-7,0 c -0.553029,4.92774 -0.336263,10.32763 0.893869,15.89662 l 0,0 c 0,0 0,0 0,0 1.080677,4.8911 2.931765,9.70392 5.513342,14.21349 1.214627,2.1209 2.574871,4.14659 4.06422,6.0585 7.00839,8.97915 16.1552,14.74095 24.0332,18.1382 -7.22058,-4.6042 -15.60034,-10.9617 -22.03171,-19.65962 -1.3778,-1.85951 -2.65131,-3.80672 -3.809183,-5.82906 z"
         style="fill:#aa4400;fill-opacity:1;stroke:none;stroke-width:0.26458332px;stroke-linecap:butt;stroke-linejoin:miter;stroke-opacity:1" />
      <path
         sodipodi:nodetypes="cc"
         inkscape:original-d="m 75.904545,135.83647 c 4.044022,49.03376 94.908135,103.13138 84.991705,22.98518"
         inkscape:path-effect="#path-effect1079"
         inkscape:connector-curvature="0"
         id="path1071"
         d="m 119.77907,192.46372 c -4.15478,-2.19894 -8.09495,-4.81096 -11.81953,-7.66676 -5.52634,-4.24095 -10.501397,-8.99096 -14.87593,-14.07807 -4.612175,-5.36638 -8.445503,-10.96692 -11.397695,-16.79575 -3.079644,-6.08519 -5.051145,-12.12438 -5.783755,-18.08647 0.254747,6.00125 1.843579,12.27679 4.657791,18.62035 2.695793,6.08179 6.378671,11.97511 10.925191,17.59442 4.3124,5.33281 9.309138,10.30912 14.931468,14.73109 3.78524,2.97959 7.83531,5.69663 12.14686,7.97809 1.48892,0.78771 3.00645,1.52211 4.55234,2.1967 5.14699,2.25636 10.64543,3.84576 16.28362,3.94527 2.46377,0.0413 4.93623,-0.2378 7.30135,-0.93385 2.28963,-0.67573 4.43734,-1.75834 6.29472,-3.20196 2.0066,-1.56639 3.63181,-3.51492 4.87043,-5.62219 1.51017,-2.57174 2.48441,-5.35494 3.11247,-8.1061 1.92901,-8.46549 1.08784,-17.09143 -0.0845,-24.21657 0.59934,7.18428 0.88769,15.81462 -1.36048,23.85067 -0.72924,2.60982 -1.75517,5.19991 -3.23788,7.50895 -1.21031,1.88643 -2.73744,3.60022 -4.55514,4.92478 -1.67617,1.22752 -3.61079,2.13214 -5.6566,2.68516 -2.12108,0.57543 -4.36454,0.77394 -6.62629,0.7015 -5.20186,-0.16134 -10.35336,-1.73885 -15.30205,-3.90743 -1.48272,-0.65285 -2.9414,-1.3622 -4.37636,-2.12183 z"
         style="fill:#aa4400;fill-opacity:1;stroke:none;stroke-width:0.26458332px;stroke-linecap:butt;stroke-linejoin:miter;stroke-opacity:1" />
      <path
         inkscape:original-d="m 156.88721,137.70736 c 0,0 -16.57071,-8.8199 -29.93419,16.03617"
         inkscape:path-effect="#path-effect1089"
         inkscape:connector-curvature="0"
         id="path1081"
         d="m 139.68487,140.62977 c 2.33093,-1.51048 4.81629,-2.62226 7.39331,-3.18306 0,0 1e-5,0 1e-5,0 l 0,0 c 2.35438,-0.51862 4.70308,-0.59134 6.89701,-0.32955 l 0,0 0,0 c 0.73135,0.0874 1.43504,0.208 2.11904,0.37056 l 0,0 c 0.19798,0.0471 0.39253,0.097 0.58513,0.15304 l 0,0 c 0,0 0,0 0,0 0.0518,0.0151 0.10318,0.0305 0.15432,0.0467 0,0 0,0 0,0 0.0134,0.004 0.0268,0.009 0.0401,0.0129 0.005,0.002 0.01,0.003 0.0145,0.005 -0.004,-0.003 -0.008,-0.006 -0.0123,-0.009 -0.0114,-0.008 -0.0228,-0.0166 -0.0343,-0.0248 0,0 0,0 0,0 -0.0438,-0.0313 -0.0884,-0.062 -0.13332,-0.0922 0,0 0,0 0,0 l 0,0 c -0.16766,-0.11278 -0.34163,-0.22018 -0.52065,-0.32423 l 0,0 c -0.61841,-0.35946 -1.29145,-0.67517 -2.01172,-0.94728 l 0,0 0,-1e-5 c -2.17196,-0.82068 -4.72354,-1.21243 -7.42255,-0.9423 l 0,0 c 0,0 0,0 0,0 -2.9671,0.30428 -5.87792,1.38894 -8.48494,3.07816 -0.62348,0.40428 -1.22391,0.83945 -1.7988,1.30122 0,0 0,0 0,0 -5.02841,4.04606 -7.95324,9.52157 -9.51452,14.00008 2.84436,-3.73579 6.49261,-8.52079 11.0931,-11.97127 0,0 0,0 0,0 0.53175,-0.39947 1.07794,-0.78188 1.63665,-1.14364 z"
         style="fill:#aa4400;fill-opacity:1;stroke:none;stroke-width:0.26458332px;stroke-linecap:butt;stroke-linejoin:miter;stroke-opacity:1" />
      <path
         sodipodi:nodetypes="cc"
         inkscape:original-d="m 133.90203,154.0108 c 0.0691,-0.37989 26.18332,-18.6063 24.02184,1.70089"
         inkscape:path-effect="#path-effect1099"
         inkscape:connector-curvature="0"
         id="path1091"
         d="m 148.2782,145.30804 c -0.66179,0.16014 -1.3059,0.35643 -1.9308,0.57588 -3.33313,1.16162 -6.26302,2.92606 -8.71694,4.77587 l 0,0 0,0 0,0 c -0.99405,0.74795 -1.90242,1.50641 -2.72379,2.28524 l 0,0 c -0.25918,0.2458 -0.50799,0.49017 -0.74213,0.74396 l 0,0 c 0,0 0,0 0,0 -0.0666,0.0722 -0.13222,0.14464 -0.19349,0.22096 0,0 0,0 0,0 -0.0174,0.0216 -0.0345,0.0434 -0.0498,0.0668 -0.007,0.011 -0.0169,0.0216 -0.0176,0.0359 0.004,-0.0108 0.0164,-0.0179 0.0266,-0.0254 0.0216,-0.0159 0.0448,-0.0302 0.0681,-0.0442 0,0 0,0 0,0 0.0823,-0.0495 0.16725,-0.0944 0.25388,-0.13989 0,0 0,0 0,0 l 0,0 c 0.30384,-0.15924 0.60853,-0.30626 0.92897,-0.46087 l 0,0 c 1.02608,-0.49459 2.03993,-0.96405 3.16702,-1.47829 l 0,0 0,0 0,0 c 2.73118,-1.24369 5.7271,-2.5878 8.80344,-3.54023 0.58248,-0.17867 1.16404,-0.34535 1.74201,-0.48708 0.83211,-0.20443 1.65466,-0.35665 2.47145,-0.42177 1.17884,-0.0758 2.30166,-0.0353 3.20588,0.39043 0.92618,0.37426 1.695,1.26524 2.18235,2.255 0.83495,1.70626 1.04334,3.87277 1.17299,5.65173 0.50489,-1.72715 0.91454,-3.90812 0.35311,-6.18778 -0.35054,-1.3969 -1.21754,-2.79092 -2.66545,-3.67996 -1.36946,-0.78346 -2.92755,-1.03982 -4.39638,-0.96107 -1.00453,0.0412 -1.98712,0.19484 -2.93933,0.42488 z"
         style="fill:#aa4400;fill-opacity:1;stroke:none;stroke-width:0.26458332px;stroke-linecap:butt;stroke-linejoin:miter;stroke-opacity:1" />
      <path
         sodipodi:nodetypes="cc"
         inkscape:original-d="m 160.36172,137.97463 c -0.0709,0.0945 6.74776,5.70279 0,20.57975"
         inkscape:path-effect="#path-effect1109"
         inkscape:connector-curvature="0"
         id="path1101"
         d="m 164.09115,148.12887 c 0.12496,-1.92077 -0.0794,-3.80254 -0.64825,-5.55812 0,0 0,0 0,0 l 0,0 c -0.45775,-1.39374 -1.14304,-2.60196 -1.98326,-3.55423 l 0,0 c -0.25466,-0.28841 -0.52101,-0.54904 -0.79488,-0.78121 l 0,0 c -0.0757,-0.0642 -0.15377,-0.12682 -0.22883,-0.18797 0,0 0,0 0,0 -0.0201,-0.0163 -0.0402,-0.0324 -0.0588,-0.0498 0,0 0,0 0,0 -0.007,-0.007 -0.0212,-0.0151 -0.0165,-0.0219 -0.007,0.009 0.005,0.0194 0.009,0.0283 0,0 0,0 0,0 0.0124,0.0229 0.0264,0.0445 0.0403,0.0664 0,0 0,0 0,0 0.0525,0.0824 0.10664,0.16449 0.15915,0.24788 l 0,0 c 0.18871,0.29958 0.36578,0.61367 0.53044,0.9426 l 0,0 c 0.54495,1.08703 0.93791,2.29062 1.18716,3.61093 l 0,0 c 0,0 0,0 0,0 0.32471,1.67518 0.39846,3.37139 0.27199,5.15297 -0.26068,3.69143 -1.41388,7.62918 -2.19604,10.5303 1.71405,-2.57176 3.4576,-6.28948 3.72813,-10.4261 z"
         style="fill:#aa4400;fill-opacity:1;stroke:none;stroke-width:0.26458332px;stroke-linecap:butt;stroke-linejoin:miter;stroke-opacity:1" />
      <path
         inkscape:original-d="m 69.222807,124.61115 c 0,0 5.34539,38.48681 -11.225321,49.44486"
         inkscape:path-effect="#path-effect1119"
         inkscape:connector-curvature="0"
         id="path1111"
         d="m 70.542096,151.12128 c 0.266457,-1.95972 0.432143,-3.91988 0.522673,-5.85929 -0.367752,-7.62295 -1.006184,-14.78122 -1.844347,-20.65075 -0.493759,5.91101 -0.715162,13.03698 -0.639567,20.60368 -0.165025,1.8777 -0.363086,3.76273 -0.618793,5.63673 -0.497021,3.64935 -1.196357,7.1364 -2.253209,10.49585 0,0 0,0 0,0 -0.804536,2.56578 -1.774872,4.92077 -3.027344,7.0607 -1.322324,2.25854 -2.89184,4.15055 -4.682711,5.64981 2.080394,-1.06163 4.07667,-2.7122 5.793295,-4.88859 1.623425,-2.05686 2.936905,-4.45358 3.980266,-7.08849 0,0 1e-6,0 1e-6,0 1.367629,-3.46383 2.251186,-7.15269 2.769736,-10.95965 z"
         style="fill:#ffb380;fill-opacity:1;stroke:none;stroke-width:0.26458332px;stroke-linecap:butt;stroke-linejoin:miter;stroke-opacity:1" />
      <path
         inkscape:original-d="m 58.532026,174.85782 c 0,0 19.243405,60.93745 71.895504,26.99423"
         inkscape:path-effect="#path-effect1129"
         inkscape:connector-curvature="0"
         id="path1121"
         d="m 87.494374,208.17891 c -0.796455,-0.33732 -1.580349,-0.70374 -2.349398,-1.09818 -3.515738,-1.80023 -6.720018,-4.16999 -9.583613,-6.83592 -5.344225,-4.96607 -9.476595,-10.90073 -12.710106,-16.60903 -1.491093,-3.0997 -2.936502,-6.03536 -4.321426,-8.77701 1.018544,2.8987 2.139536,5.98577 3.351214,9.22907 2.734876,6.06161 6.606693,12.42123 12.045067,17.85272 2.91035,2.90163 6.264032,5.47961 10.02861,7.44261 0.825282,0.42967 1.667915,0.82676 2.525327,1.19001 3.319086,1.40565 6.831475,2.2926 10.382761,2.61548 5.44803,0.48778 10.78622,-0.33061 15.61578,-1.86319 7.07217,-2.24431 13.14521,-5.91745 17.94766,-9.47544 -5.2067,2.89724 -11.5443,5.96096 -18.45402,7.69502 -4.72641,1.18587 -9.81479,1.75491 -14.85803,1.17493 -3.28861,-0.37334 -6.539363,-1.23587 -9.619826,-2.54107 z"
         style="fill:#000000;stroke:none;stroke-width:0.26458332px;stroke-linecap:butt;stroke-linejoin:miter;stroke-opacity:1" />
      <path
         inkscape:original-d="m 159.55991,103.49686 c 0,0 15.50163,37.15047 0.26726,34.47777"
         inkscape:path-effect="#path-effect1139"
         inkscape:connector-curvature="0"
         id="path1131"
         d="m 166.85707,122.26182 c -0.0589,-0.26552 -0.11917,-0.52939 -0.18049,-0.79156 -1.01391,-4.49744 -2.557,-8.7241 -4.25264,-12.44472 -0.96843,-2.00261 -1.93057,-3.85825 -2.86626,-5.52781 0.40651,1.87057 0.91424,3.89218 1.51279,6.02309 1.00788,3.93554 2.13856,8.16281 3.07056,12.50721 0.0539,0.26125 0.10822,0.52214 0.16268,0.78309 0.80538,3.85242 1.53259,7.30085 1.01007,10.7083 0,0 0,1e-5 0,1e-5 -0.21934,1.30332 -0.59608,2.51507 -1.45904,3.28779 -0.96811,0.95695 -2.62365,1.20511 -4.02799,1.16977 1.33493,0.44522 3.09761,0.66804 4.6971,-0.25864 1.31291,-0.82551 2.17693,-2.26467 2.58765,-3.79952 0,0 0,0 0,0 1.07268,-3.77422 0.60711,-7.76364 -0.25443,-11.65701 z"
         style="fill:#ffb380;fill-opacity:1;stroke:none;stroke-width:0.26458332px;stroke-linecap:butt;stroke-linejoin:miter;stroke-opacity:1" />
      <path
         sodipodi:nodetypes="cc"
         inkscape:original-d="m 160.6262,94.393485 c 0,0 15.23715,-0.251056 21.38435,6.163415"
         inkscape:path-effect="#path-effect1149"
         inkscape:connector-curvature="0"
         id="path1141"
         d="m 172.18052,94.364165 c -1.00231,-0.231253 -2.00921,-0.395749 -3.00564,-0.503099 -3.13342,-0.08781 -6.08896,0.09592 -8.54882,0.5348 2.35839,0.826566 5.20129,1.477665 8.25537,1.888414 0.92652,0.203457 1.8508,0.40648 2.77388,0.620664 1.38614,0.320761 2.70665,0.652279 4.02435,1.038556 2.49338,0.742365 4.44288,1.454308 6.33263,2.61176 -1.0586,-1.902804 -3.02049,-3.550398 -5.52458,-4.718819 -1.35955,-0.639219 -2.81119,-1.126253 -4.30719,-1.472276 z"
         style="fill:#000000;stroke:none;stroke-width:0.26458332px;stroke-linecap:butt;stroke-linejoin:miter;stroke-opacity:1" />
      <path
         sodipodi:nodetypes="cc"
         inkscape:original-d="m 167.25446,123.8869 c 1.32292,0.0945 4.48349,2.89948 14.93006,-22.86756"
         inkscape:path-effect="#path-effect1159"
         inkscape:connector-curvature="0"
         id="path1151"
         d="m 175.93778,113.9099 c -1.52521,2.99156 -3.07693,5.57181 -4.95485,7.95709 0,0 0,0 0,0 -0.72336,0.88559 -1.38284,1.67479 -2.33633,1.95825 -0.421,0.14177 -0.92655,0.0414 -1.39224,0.063 0.43835,0.0838 0.92446,0.2892 1.45216,0.24315 1.10556,-0.12009 2.07654,-0.85557 2.90794,-1.69496 0,0 0,0 0,0 2.21929,-2.16232 4.06891,-4.82259 5.62882,-7.85816 2.3437,-4.56367 3.92548,-9.85695 4.94,-13.55946 -1.92349,3.49929 -3.93105,8.35443 -6.2455,12.89108 z"
         style="fill:#000000;stroke:none;stroke-width:0.26458332px;stroke-linecap:butt;stroke-linejoin:miter;stroke-opacity:1" />
      <path
         inkscape:original-d="m 159.159,93.875158 c 0,0 -11.75986,-11.225321 -39.28862,-10.289876"
         inkscape:path-effect="#path-effect1169"
         inkscape:connector-curvature="0"
         id="path1161"
         d="m 140.18974,86.638313 c 3.21018,0.741947 6.25868,1.624209 9.22779,2.684947 0,0 0,10e-7 0,10e-7 l 0,0 c 2.65897,0.948375 5.02878,1.951327 7.25332,3.10811 l 0,0 c 0.6484,0.337154 1.26244,0.675051 1.85644,1.036154 l 0,0 c 0.16024,0.09742 0.31732,0.195396 0.47189,0.296929 l 0,0 c 1e-5,0 1e-5,0 1e-5,0 0.0402,0.02643 0.0802,0.05302 0.11975,0.08006 0,0 0,0 0,0 0.0139,0.0095 0.0279,0.01912 0.0416,0.02885 -0.0104,-0.01328 -0.0212,-0.02647 -0.032,-0.03954 0,-1e-6 0,-1e-6 0,-1e-6 -0.0305,-0.03721 -0.0615,-0.07406 -0.0929,-0.110784 0,-10e-7 0,-10e-7 0,-10e-7 l 0,0 c -0.12078,-0.141202 -0.24672,-0.279955 -0.37653,-0.417943 l 0,0 c -0.4805,-0.510763 -1.00661,-1.002909 -1.57347,-1.487145 l 0,0 C 155.1473,90.16219 152.8448,88.691679 150.21984,87.41736 l 0,0 c 0,0 0,-10e-7 0,-10e-7 -2.93937,-1.425129 -6.11378,-2.53256 -9.44399,-3.306626 -7.61429,-1.76737 -15.06574,-1.570045 -20.90539,-0.523059 5.95752,0.652495 12.99817,1.356088 20.31928,3.050639 z"
         style="fill:#000000;stroke:none;stroke-width:0.26458332px;stroke-linecap:butt;stroke-linejoin:miter;stroke-opacity:1" />
      <path
         sodipodi:nodetypes="cc"
         inkscape:original-d="m 157.95629,102.56142 c 0,0 -9.62171,31.5378 -35.68049,13.36347"
         inkscape:path-effect="#path-effect1179"
         inkscape:connector-curvature="0"
         id="path1171"
         d="m 144.47012,121.38597 c 0.3865,-0.16868 0.76648,-0.35177 1.13896,-0.54877 1.94748,-1.03342 3.65289,-2.39786 5.10368,-3.92861 l 0,0 c 2.74566,-2.89938 4.59187,-6.26539 5.81539,-9.45176 l 0,0 1e-5,0 0,0 c 0.46004,-1.19526 0.83207,-2.36623 1.12011,-3.5063 l 0,0 c 0.0868,-0.34354 0.16563,-0.68281 0.2347,-1.01964 l 0,0 c 0,0 0,0 0,-1e-5 0.0187,-0.0914 0.0367,-0.18255 0.0537,-0.27359 0,0 0,0 0,0 0.004,-0.0238 0.009,-0.0476 0.013,-0.0714 0.001,-0.008 0.003,-0.0168 0.004,-0.0252 -0.003,0.008 -0.007,0.0155 -0.0106,0.0232 -0.0101,0.0219 -0.0203,0.0437 -0.0305,0.0656 0,0 0,0 0,0 -0.0392,0.0836 -0.0793,0.16706 -0.11999,0.25079 0,0 0,0 0,0 l 0,0 c -0.14983,0.30829 -0.3058,0.6157 -0.46792,0.92735 l 0,0 c -0.53825,1.03464 -1.12746,2.08128 -1.77655,3.14885 l 0,0 0,0 0,0 c -1.72578,2.83364 -3.8464,5.79637 -6.50299,8.24816 l 0,0 c -1.40263,1.29522 -2.95195,2.44858 -4.6374,3.31345 -0.32066,0.16518 -0.64678,0.3201 -0.97755,0.46436 -1.50123,0.65526 -3.09252,1.08852 -4.70074,1.26861 -2.39835,0.27752 -4.85895,-0.0107 -7.16268,-0.58513 -3.40789,-0.85097 -6.62448,-2.36882 -9.29262,-3.75911 2.2447,2.03855 5.16886,4.15509 8.73086,5.52405 2.40325,0.92368 5.11741,1.46715 7.94008,1.28838 1.89365,-0.12607 3.76782,-0.58705 5.52477,-1.3533 z"
         style="fill:#000000;stroke:none;stroke-width:0.26458332px;stroke-linecap:butt;stroke-linejoin:miter;stroke-opacity:1" />
      <path
         sodipodi:nodetypes="cc"
         inkscape:original-d="m 116.66315,91.469733 c 7.48355,-2.271791 2.67269,23.252457 5.61266,24.722437"
         inkscape:path-effect="#path-effect1189"
         inkscape:connector-curvature="0"
         id="path1181"
         d="m 122.47716,102.67885 c -0.001,-0.0906 -0.003,-0.18116 -0.004,-0.2718 -0.0402,-2.924585 -0.26997,-5.837302 -1.39723,-8.483996 -0.37733,-0.952455 -0.97648,-1.893002 -1.85759,-2.452329 -0.90825,-0.532162 -1.88387,-0.372877 -2.55402,0.0013 0.76348,-0.06173 1.59045,0.169598 1.98068,0.698979 0.4973,0.568679 0.65371,1.352325 0.84525,2.241657 0.47827,2.568876 0.32845,5.017031 0.3841,8.035862 -1.9e-4,-0.0153 0.004,0.27953 0.003,0.26427 0.0404,3.00316 0.10609,5.88622 0.51636,8.70217 0,0 0,0 0,0 0.16535,1.14844 0.37266,2.2436 0.75904,3.26767 0.13532,0.36308 0.29815,0.72137 0.523,1.02934 0.15322,0.21866 0.36389,0.41796 0.60123,0.47807 -0.19063,-0.15343 -0.26557,-0.37959 -0.3276,-0.60926 -0.082,-0.33171 -0.0949,-0.66983 -0.1032,-1.03484 -0.0184,-1.04445 0.089,-2.01643 0.18464,-3.18164 0,0 0,0 0,0 0.2252,-2.6375 0.4848,-5.71815 0.44643,-8.68545 z"
         style="fill:#000000;stroke:none;stroke-width:0.26458332px;stroke-linecap:butt;stroke-linejoin:miter;stroke-opacity:1" />
      <path
         sodipodi:nodetypes="cc"
         inkscape:original-d="M 74.434561,92.00427 C 56.126598,71.157247 41.293142,112.18312 75.102738,124.21025"
         inkscape:path-effect="#path-effect1219"
         inkscape:connector-curvature="0"
         id="path1211"
         d="m 56.257738,101.35625 c -0.171771,-1.791874 -0.11358,-3.587403 0.206242,-5.337057 0,0 0,-10e-7 0,-10e-7 0.367117,-2.00043 1.038757,-3.906976 2.133792,-5.489998 0.971177,-1.395217 2.255231,-2.545511 3.748211,-3.089913 1.626574,-0.632389 3.546258,-0.498966 5.235822,0.05683 2.658513,0.875826 4.988724,2.74317 6.854554,4.506578 -1.512302,-2.083353 -3.560096,-4.333484 -6.376682,-5.682764 -1.824313,-0.871854 -4.065755,-1.261776 -6.284689,-0.660679 -1.987787,0.572331 -3.730459,1.864013 -5.002232,3.534583 -1.420368,1.855064 -2.326528,4.059923 -2.788255,6.345753 0,10e-7 0,2e-6 0,2e-6 -0.404302,1.995056 -0.498207,4.036878 -0.310228,6.060124 0.339939,3.65121 1.588526,7.15696 3.470253,10.17269 4.507531,7.19035 11.906255,10.89792 17.959024,12.4356 -5.639003,-2.61709 -12.254107,-6.98238 -15.926332,-13.636 -1.560929,-2.81267 -2.610978,-5.99018 -2.91948,-9.21575 z"
         style="fill:#ffb380;fill-opacity:1;stroke:none;stroke-width:0.26458332px;stroke-linecap:butt;stroke-linejoin:miter;stroke-opacity:1" />
      <path
         inkscape:original-d="m 118.26676,83.718915 c 0,0 -37.284094,-3.608139 -50.113031,2.539061"
         inkscape:path-effect="#path-effect1199"
         inkscape:connector-curvature="0"
         id="path1191"
         d="m 93.01437,83.975788 c 1.657285,-0.01836 3.304038,-0.0289 4.952492,-0.03946 7.453808,0.244869 14.493478,0.168463 20.299998,-0.219807 -5.74028,-0.977188 -12.75896,-1.770872 -20.220685,-2.28745 -1.66397,-0.05056 -3.341501,-0.07074 -5.024617,-0.05263 -4.007573,0.04415 -7.932591,0.30425 -11.736236,0.848549 -5.170284,0.724094 -9.548066,1.765472 -13.130582,4.035147 4.095715,-1.399707 8.06112,-1.635565 13.338157,-1.946179 3.790706,-0.2092 7.542152,-0.295126 11.521473,-0.338178 z"
         style="fill:#6c5353;stroke:none;stroke-width:0.26458332px;stroke-linecap:butt;stroke-linejoin:miter;stroke-opacity:1" />
      <path
         sodipodi:nodetypes="cc"
         inkscape:original-d="M 116.66315,91.336097 C 91.539814,88.262497 91.673447,93.607889 72.69731,89.99975"
         inkscape:path-effect="#path-effect1209"
         inkscape:connector-curvature="0"
         id="path1201"
         d="m 94.753772,91.968728 c 2.421762,-0.193557 4.760192,-0.365772 7.113178,-0.4565 5.3597,-0.209282 10.49083,-0.122186 14.79649,-0.178506 -4.15731,-1.088994 -9.29202,-1.998463 -14.8042,-2.171156 -2.423897,-0.07421 -4.862908,0.01898 -7.311964,0.213826 -0.766017,0.06117 -1.529478,0.131992 -2.289493,0.210084 -2.876171,0.293441 -5.500092,0.591403 -8.199978,0.687567 -3.985322,0.146511 -8.067905,-0.09697 -11.360951,-0.271944 3.194476,1.066962 7.092421,2.026435 11.32443,2.322746 2.798562,0.191985 5.605492,0.05837 8.471028,-0.17419 1.292307,-0.103717 0.969152,-0.07821 2.26146,-0.181927 z"
         style="fill:#6c5353;stroke:none;stroke-width:0.26458332px;stroke-linecap:butt;stroke-linejoin:miter;stroke-opacity:1" />
      <path
         sodipodi:nodetypes="cc"
         inkscape:original-d="M 108.85714,42.811011 C 102.72789,51.496916 93.482071,62.429229 95.249999,80.986607"
         inkscape:path-effect="#path-effect1229"
         inkscape:connector-curvature="0"
         id="path1221"
         d="m 99.288229,61.035073 c 0.304358,-0.774229 0.626344,-1.540061 0.966141,-2.297201 0,0 0,-1e-6 0,-1e-6 2.62991,-5.901942 6.24759,-11.315846 8.60082,-15.928239 -3.41957,3.620442 -8.00267,8.807649 -10.925721,14.846316 0,0 0,10e-7 0,10e-7 -0.382484,0.795312 -0.735739,1.605673 -1.059062,2.428786 -2.93988,7.491011 -3.040353,15.031816 -1.618026,20.901646 0.288049,-6.074436 1.2634,-12.905406 4.035848,-19.951308 z"
         style="fill:#552200;fill-opacity:1;stroke:none;stroke-width:0.26458332px;stroke-linecap:butt;stroke-linejoin:miter;stroke-opacity:1" />
      <path
         sodipodi:nodetypes="cc"
         inkscape:original-d="m 110.93601,42.622022 c 16.09225,-6.755892 47.47646,8.680231 50.45982,18.709822"
         inkscape:path-effect="#path-effect1239"
         inkscape:connector-curvature="0"
         id="path1231"
         d="m 139.32385,43.580457 c -4.61744,-1.756872 -9.3269,-2.907017 -14.00933,-3.297921 -5.53475,-0.482017 -10.49036,0.209561 -14.37758,2.341692 4.25691,-1.286889 8.83108,-1.201671 14.12778,-0.335107 4.45221,0.745716 8.87315,2.027236 13.33383,3.723455 0.7324,0.27831 1.4611,0.565985 2.18587,0.861862 4.92239,2.017758 9.3865,4.275274 13.42712,7.014853 1.74961,1.187944 3.31701,2.388505 4.69864,3.757466 1.14584,1.143687 2.11212,2.29659 2.68795,3.684428 -0.27661,-1.47585 -1.04896,-2.889701 -2.0433,-4.23788 -1.1947,-1.630879 -2.66569,-3.116404 -4.33316,-4.530275 -3.84701,-3.266325 -8.40286,-5.935405 -13.44246,-8.072998 -0.74449,-0.316995 -1.49645,-0.620626 -2.25536,-0.909575 z"
         style="fill:#552200;fill-opacity:1;stroke:none;stroke-width:0.26458332px;stroke-linecap:butt;stroke-linejoin:miter;stroke-opacity:1" />
      <path
         inkscape:original-d="M 162.90774,61.89881 C 175.94791,48.480654 161.9628,28.447915 149.48958,30.904762"
         inkscape:path-effect="#path-effect1249"
         inkscape:connector-curvature="0"
         id="path1241"
         d="m 165.2612,42.376954 c 1.2178,2.751998 1.84452,5.69984 1.73305,8.578445 -0.13582,4.190145 -1.95764,8.052398 -4.08479,10.945079 2.84795,-2.224012 5.5731,-5.939178 6.23099,-10.756308 0.42918,-3.266643 -0.10758,-6.686205 -1.49857,-9.821841 -0.22468,-0.506103 -0.47038,-1.001945 -0.73588,-1.485793 -1.84657,-3.391101 -4.5722,-6.123181 -7.74058,-7.806184 0,0 0,0 0,0 -3.3357,-1.78675 -6.90328,-2.077712 -9.67538,-1.123241 2.91661,-0.168669 5.95246,0.792229 8.70756,2.712751 2.62745,1.84369 4.83484,4.427657 6.42853,7.441047 0.22595,0.431077 0.43796,0.870227 0.63507,1.316045 z"
         style="fill:#552200;fill-opacity:1;stroke:none;stroke-width:0.26458332px;stroke-linecap:butt;stroke-linejoin:miter;stroke-opacity:1" />
      <path
         inkscape:original-d="m 146.46577,34.684522 c 0,0 -85.98958,-26.2693439 -87.312497,51.59375"
         inkscape:path-effect="#path-effect1259"
         inkscape:connector-curvature="0"
         id="path1251"
         d="m 87.320029,37.181493 c 0.185955,-0.0855 0.372438,-0.169826 0.559427,-0.252986 4.963206,-2.208281 10.261535,-3.608171 15.588664,-4.450833 10.15586,-1.61069 20.29925,-1.22111 29.4259,-0.130808 4.78125,0.858556 9.32281,1.639993 13.57224,2.335315 -4.16194,-1.108847 -8.63546,-2.261093 -13.36821,-3.443325 -9.1144,-1.719771 -19.42619,-2.567908 -29.97919,-1.14858 -5.523154,0.744991 -11.061707,2.146902 -16.293656,4.46175 -0.197393,0.08737 -0.394234,0.176083 -0.590499,0.26613 -5.168223,2.371839 -9.882176,5.644197 -13.756089,9.708876 -4.709199,4.954925 -7.981308,10.879218 -10.025511,16.877355 -2.947725,8.656454 -3.536417,17.448221 -3.29744,24.873932 0.489212,-7.399421 1.705117,-16.054829 4.960273,-24.262151 2.255422,-5.690097 5.574146,-11.239796 10.104907,-15.79654 3.719815,-3.752285 8.205848,-6.789 13.099184,-9.038135 z"
         style="fill:#552200;fill-opacity:1;stroke:none;stroke-width:0.26458332px;stroke-linecap:butt;stroke-linejoin:miter;stroke-opacity:1" />
      <path
         sodipodi:nodetypes="cc"
         inkscape:original-d="m 162.15178,62.087796 c 3.67207,6.451984 6.70727,14.177734 4.91369,31.561013"
         inkscape:path-effect="#path-effect1269"
         inkscape:connector-curvature="0"
         id="path1261"
         d="m 168.52607,77.253276 c -0.14992,-1.257477 -0.36608,-2.503665 -0.65281,-3.730043 -1.1153,-4.715916 -3.36343,-8.628611 -5.72356,-11.434254 1.20861,3.461226 2.55964,7.517345 3.2927,11.926089 0.19896,1.172864 0.36586,2.350896 0.50785,3.544657 0.67762,5.67705 0.75448,11.509537 1.1176,16.089352 1.29903,-4.445878 2.18015,-10.320191 1.45822,-16.395801 z"
         style="fill:#ffb380;fill-opacity:1;stroke:none;stroke-width:0.26458332px;stroke-linecap:butt;stroke-linejoin:miter;stroke-opacity:1" />
      <path
         sodipodi:nodetypes="cc"
         inkscape:original-d="m 162.52976,178.69345 c 9.28432,-3.54492 33.21452,18.25848 48.00298,62.74405"
         inkscape:path-effect="#path-effect1279"
         inkscape:connector-curvature="0"
         id="path1271"
         d="m 194.24691,203.09246 c -2.70601,-4.19101 -5.67151,-8.13503 -8.90099,-11.78603 0,0 -1e-5,-1e-5 -1e-5,-1e-5 -4.04909,-4.58939 -8.29383,-8.46541 -13.18045,-11.06332 -1.77286,-0.94504 -3.58914,-1.66933 -5.45524,-1.96468 -1.46666,-0.23622 -2.94704,-0.15816 -4.17961,0.41727 1.30218,-0.39281 2.6992,-0.25819 4.0612,0.12404 1.73867,0.49289 3.35862,1.36757 4.97594,2.43175 4.46609,2.94546 8.20888,6.90268 12.01971,11.55104 0,0 1e-5,0 1e-5,0 3.01947,3.6932 5.83107,7.58926 8.47994,11.69628 8.1506,12.63294 13.97999,26.11017 18.4676,36.93795 -2.89432,-11.3746 -7.92903,-25.39353 -16.2881,-38.34429 z"
         style="fill:#000000;stroke:none;stroke-width:0.26458332px;stroke-linecap:butt;stroke-linejoin:miter;stroke-opacity:1" />
      <path
         inkscape:original-d="m 57.830357,173.77976 -8.693452,6.42559"
         inkscape:path-effect="#path-effect1289"
         inkscape:connector-curvature="0"
         id="path1281"
         d="m 54.25629,178.03811 c 1.588054,-1.17608 2.852217,-2.68355 3.572645,-4.26027 -1.718481,0.22809 -3.529416,0.99565 -5.118145,2.1693 -1.587978,1.17605 -2.852077,2.68348 -3.572478,4.26015 1.718419,-0.22809 3.529287,-0.9956 5.117978,-2.16918 z"
         style="fill:#000000;stroke:none;stroke-width:0.26458332px;stroke-linecap:butt;stroke-linejoin:miter;stroke-opacity:1" />
      <path
         sodipodi:nodetypes="ssszs"
         inkscape:connector-curvature="0"
         id="path1583"
         d="m 136.97563,89.331577 c -1.47627,0.491341 -0.3586,3.537838 1.06909,4.54358 1.82774,1.287569 0.0985,0.02044 10.69077,3.340871 1.30562,0.409281 3.23526,-1.48442 0.26727,-4.810853 -2.96799,-3.326433 -7.73703,-4.501454 -12.02713,-3.073598 z"
         style="fill:#ffffff;fill-opacity:1;stroke:none;stroke-width:0.26458332px;stroke-linecap:butt;stroke-linejoin:miter;stroke-opacity:1" />
      <path
         sodipodi:nodetypes="cccc"
         inkscape:connector-curvature="0"
         id="path1585"
         d="m 167.71163,97.616932 c -1.73725,-1.202713 -3.74178,-2e-6 -3.74178,1.46998 0,1.069078 2.53907,2.939968 3.74178,1.870888 1.20271,-0.4009 1.46998,-2.27179 0,-3.340868 z"
         style="fill:#ffffff;fill-opacity:1;stroke:none;stroke-width:0.26458332px;stroke-linecap:butt;stroke-linejoin:miter;stroke-opacity:1" />
    </g>
  </g>
</svg>
