<?xml version="1.0" encoding="UTF-8" standalone="no"?>
<svg
   xmlns:dc="http://purl.org/dc/elements/1.1/"
   xmlns:cc="http://creativecommons.org/ns#"
   xmlns:rdf="http://www.w3.org/1999/02/22-rdf-syntax-ns#"
   xmlns:svg="http://www.w3.org/2000/svg"
   xmlns="http://www.w3.org/2000/svg"
   xmlns:xlink="http://www.w3.org/1999/xlink"
   width="166.95244mm"
   height="212.40353mm"
   viewBox="0 0 166.95244 212.40353"
   version="1.1"
   id="svg8">
  <defs
     id="defs2">
    <linearGradient
       id="linearGradient1628">
      <stop
         style="stop-color:#eee251;stop-opacity:1"
         offset="0"
         id="stop1624" />
      <stop
         style="stop-color:#ffffff;stop-opacity:1"
         offset="1"
         id="stop1626" />
    </linearGradient>
    <radialGradient
       xlink:href="#linearGradient1628"
       id="radialGradient1630"
       cx="97.206772"
       cy="137.38303"
       fx="97.206772"
       fy="137.38303"
       r="110.12207"
       gradientTransform="matrix(1.5244657,-0.00917733,0.00777652,1.2917762,-260.62944,-46.156942)"
       gradientUnits="userSpaceOnUse" />
  </defs>
  <metadata
     id="metadata5">
    <rdf:RDF>
      <cc:Work
         rdf:about="">
        <dc:format>image/svg+xml</dc:format>
        <dc:type
           rdf:resource="http://purl.org/dc/dcmitype/StillImage" />
        <dc:title></dc:title>
      </cc:Work>
    </rdf:RDF>
  </metadata>
  <g
     id="layer1"
     transform="translate(174.79349,-23.919149)">
    <rect
       style="opacity:1;fill:url(#radialGradient1630);fill-opacity:1;stroke:#000000;stroke-width:0.246899;stroke-miterlimit:4;stroke-dasharray:none;stroke-opacity:1"
       id="rect1622"
       width="207.30286"
       height="250.04568"
       x="-189.3784"
       y="-1.0151953" />
    <g
       id="g1620"
       transform="matrix(0.9423622,0,0,0.9423622,-220.01212,6.1927544)">
      <path
         id="path1577"
         d="m 59.400651,87.594322 -0.267269,-3.407685 1.737252,-13.898014 3.274052,-10.623966 9.488069,-14.967092 17.973876,-11.024867 24.856059,-3.207235 15.76891,0.935443 13.63074,3.073601 c 3.30729,-0.94494 1.61091,-2.655093 4.2095,-3.741775 l 6.1472,0.734992 7.684,5.545843 3.94222,9.488067 -1.06908,9.955789 -3.80859,5.345391 -1.33635,0.734991 -4.34313,-6.949006 -17.10524,-11.158503 -18.97614,-3.541321 -8.21854,1.00226 -7.08264,4.610399 -6.614922,12.02713 -4.142676,11.559405 0.467719,12.762121 -18.107508,1.002261 -7.283096,1.5368 -3.00678,1.336347 z"
         style="fill:#833400;fill-opacity:0.996078;stroke:none;stroke-width:0.264583px;stroke-linecap:butt;stroke-linejoin:miter;stroke-opacity:1" />
      <path
         id="path1575"
         d="M 108.0067,44.078574 97.328867,60.386904 95.06101,77.395831 c 0,0 -0.03914,3.29386 0.562222,4.496573 l -4.814448,11.661909 -0.472472,15.591517 3.779763,13.41816 7.654015,14.2686 13.51265,12.18973 9.5439,6.42559 2.26785,-0.47247 1.13393,-3.77976 5.57515,-7.9375 10.11086,-6.42559 7.55953,-0.66146 4.44122,1.32292 4.06324,0.94494 2.83482,-0.75596 2.45685,-1.60639 1.03943,-8.69346 -2.07887,-10.58333 3.3073,-26.269346 -1.41742,-18.42634 -3.68526,-9.827379 -3.49628,-5.10268 -14.2686,-10.29985 -15.59152,-5.197174 -10.58334,-0.755951 -5.40237,0.834235 c -2.07134,0.935443 -3.81693,0.585957 -5.08646,2.323209 z"
         style="opacity:1;fill:#ffc8a3;fill-opacity:0.996078;stroke:none;stroke-width:0.264583px;stroke-linecap:butt;stroke-linejoin:miter;stroke-opacity:1" />
      <path
         id="path1581"
         d="m 116.79464,91.286456 3.2128,-7.748511 12.56771,0.377976 16.15848,3.590774 9.07143,5.291667 2.64583,1.606399 9.44941,0.850445 10.11086,3.212798 2.17336,2.173366 -2.07887,6.70907 -5.95312,11.71727 -4.63021,4.6302 -2.55134,0.0945 -3.02381,-9.26042 -4.25223,-11.0558 -1.79539,-1.13393 -1.5119,4.8192 -9.26042,11.62277 -11.43378,3.1183 -8.59896,-3.30729 -5.57514,-3.2128 -0.28349,-17.481399 -1.6064,-5.764137 -1.60639,-0.850446 z"
         style="opacity:1;fill:#28231f;fill-opacity:1;stroke:none;stroke-width:0.264583px;stroke-linecap:butt;stroke-linejoin:miter;stroke-opacity:1" />
      <path
         id="path1579"
         d="m 67.017833,86.391611 10.49033,-3.073601 c 0,0 12.895754,-0.668173 13.898014,-0.668173 1.00226,0 24.922883,0.935445 24.922883,0.935445 l 4.00904,-0.133636 -3.00678,7.884451 -9.02035,-0.734991 -24.521975,1.069078 -11.158503,-1.670434 z"
         style="fill:#7e6161;fill-opacity:1;stroke:none;stroke-width:0.264583px;stroke-linecap:butt;stroke-linejoin:miter;stroke-opacity:1" />
      <path
         id="path1573"
         d="m 79.178596,91.269279 0.133636,4.476766 1.870887,13.630745 v 13.76438 l -2.271792,7.684 -3.207234,3.60814 1.069078,7.61718 4.209495,11.82668 9.220797,15.56845 16.503897,16.63752 10.22306,6.34765 15.73922,6.2954 12.47322,0.94494 8.69345,-4.15774 5.10268,-7.37054 1.88988,-7.55952 1.13393,-8.50446 -0.66564,-9.24817 -0.60136,-5.14494 2.40543,-8.61945 -0.66818,-8.01808 -1.80407,-2.80633 -5.27857,-1.1359 -6.08038,-1.06908 -10.69078,3.47451 -6.81537,6.81537 -4.54359,6.88219 c -0.63477,1.97111 -1.83747,1.97112 -2.77291,1.57021 -2.60588,-1.13589 -12.92917,-8.98694 -12.92917,-8.98694 l -14.499374,-16.1698 -5.078118,-14.9671 c 0,0 -1.469983,-12.56166 -1.737255,-12.16076 -0.267268,0.4009 1.536801,-11.091685 1.536801,-11.091685 z"
         style="fill:#bc4a00;fill-opacity:0.996078;stroke:none;stroke-width:0.264583px;stroke-linecap:butt;stroke-linejoin:miter;stroke-opacity:1" />
      <path
         id="path1571"
         d="m 50.270833,179.07143 8.315475,-5.66965 7.748514,17.38691 13.040177,14.55208 17.197916,6.99256 16.630955,-1.88988 12.47321,-5.29167 8.31548,-6.04762 11.1503,0.75596 8.12648,-4.34673 5.66965,-6.61458 2.07887,-10.01637 4.15773,-0.75595 7.37054,2.45684 7.55952,6.80357 8.50447,9.44941 11.52827,17.95387 7.37054,17.95386 2.64583,7.55953 v 3.02381 L 49.892857,243.13839 Z"
         style="fill:#6b5252;fill-opacity:0.996078;stroke:none;stroke-width:0.264583px;stroke-linecap:butt;stroke-linejoin:miter;stroke-opacity:1" />
      <path
         id="path1569"
         d="m 132.66964,199.86012 -12.47321,7.9375 -13.41816,4.15773 -16.819938,-1.13392 -10.961309,-5.66965 -9.449406,-9.4494 -7.808356,-13.22737 -3.541321,-8.55263 4.34313,-4.00904 4.877668,-12.56167 2.739511,-16.03617 -0.868624,-12.16076 -0.133636,-7.684 -8.218538,-5.81312 -5.545841,-11.49259 0.267269,-11.091682 4.34313,-5.679476 5.879928,-1.403165 5.679477,3.006783 1.269532,1.069078 6.013563,1.202711 1.269532,7.349913 2.271789,16.303438 -1.403164,11.29214 -3.474503,6.48129 -1.670434,2.00452 0.400902,3.54132 1.737254,8.35217 6.681737,14.63301 6.614919,8.55262 8.218541,9.02035 c 0,0 11.826678,8.81989 12.160758,9.15398 0.33409,0.33409 14.29892,8.75308 14.29892,8.75308 z"
         style="fill:#ffc8a3;fill-opacity:0.996078;stroke:none;stroke-width:0.264583px;stroke-linecap:butt;stroke-linejoin:miter;stroke-opacity:1" />
      <path
         id="path1051"
         d="m 83.272425,115.26061 c 0.0055,-1.46963 -0.05935,-2.92907 -0.174396,-4.36659 -1.145853,-6.42384 -2.530728,-12.430401 -3.988605,-17.285736 0.105128,5.070465 0.623144,11.152116 1.495996,17.552806 0.04801,1.3899 0.07851,2.78624 0.07251,4.17689 -0.01287,3.20795 -0.219734,6.27021 -0.804766,9.254 0,0 0,0 0,0 -0.408688,2.09549 -0.976639,4.03042 -1.832656,5.79906 -0.893357,1.84723 -2.06721,3.41685 -3.471,4.64562 1.682665,-0.80889 3.292032,-2.15907 4.589929,-3.97634 1.236221,-1.73016 2.15352,-3.75611 2.797615,-5.9575 0,0 0,0 0,0 0.916341,-3.1438 1.301864,-6.46277 1.315375,-9.84221 z"
         style="fill:#aa4400;fill-opacity:1;stroke:none;stroke-width:0.264583px;stroke-linecap:butt;stroke-linejoin:miter;stroke-opacity:1" />
      <path
         id="path1061"
         d="m 98.707827,129.32182 c -2.46146,-4.2974 -4.341712,-8.83038 -5.615131,-13.4545 0,0 0,0 0,0 v 0 c -1.454299,-5.28092 -2.106918,-10.44736 -2.147223,-15.31639 v 0 -10e-6 0 c -0.01308,-1.613919 0.03594,-3.153331 0.182434,-4.6612 v 0 c 0.04239,-0.435595 0.09027,-0.860669 0.161716,-1.282874 v 0 c 0,0 0,-10e-7 0,-10e-7 0.01948,-0.11494 0.03976,-0.228729 0.06787,-0.340733 0,0 0,-1e-6 0,-1e-6 0.0076,-0.03045 0.01561,-0.06086 0.02658,-0.09003 0.0048,-0.01277 0.0079,-0.02972 0.01984,-0.03442 -0.01407,0.004 -0.01923,0.02027 -0.02613,0.03237 -0.01577,0.02767 -0.02858,0.05669 -0.04108,0.08584 0,0 0,10e-7 0,10e-7 -0.04598,0.107217 -0.08432,0.217408 -0.121601,0.328222 0,10e-7 0,10e-7 -10e-7,2e-6 v 0 c -0.137431,0.408489 -0.251167,0.827258 -0.357981,1.254779 v 0 c -0.370178,1.481316 -0.630407,3.03189 -0.813032,4.660815 v 0 h -10e-7 c -0.553029,4.92774 -0.336263,10.32763 0.893869,15.89662 v 0 c 0,0 0,0 0,0 1.080677,4.8911 2.931765,9.70392 5.513342,14.21349 1.214627,2.1209 2.574871,4.14659 4.064222,6.0585 7.00839,8.97915 16.1552,14.74095 24.0332,18.1382 -7.22058,-4.6042 -15.60034,-10.9617 -22.03171,-19.65962 -1.3778,-1.85951 -2.651312,-3.80672 -3.809185,-5.82906 z"
         style="fill:#aa4400;fill-opacity:1;stroke:none;stroke-width:0.264583px;stroke-linecap:butt;stroke-linejoin:miter;stroke-opacity:1" />
      <path
         id="path1071"
         d="m 119.77907,192.46372 c -4.15478,-2.19894 -8.09495,-4.81096 -11.81953,-7.66676 -5.52634,-4.24095 -10.501397,-8.99096 -14.87593,-14.07807 -4.612175,-5.36638 -8.445503,-10.96692 -11.397695,-16.79575 -3.079644,-6.08519 -5.051145,-12.12438 -5.783755,-18.08647 0.254747,6.00125 1.843579,12.27679 4.657791,18.62035 2.695793,6.08179 6.378671,11.97511 10.925191,17.59442 4.3124,5.33281 9.309138,10.30912 14.931468,14.73109 3.78524,2.97959 7.83531,5.69663 12.14686,7.97809 1.48892,0.78771 3.00645,1.52211 4.55234,2.1967 5.14699,2.25636 10.64543,3.84576 16.28362,3.94527 2.46377,0.0413 4.93623,-0.2378 7.30135,-0.93385 2.28963,-0.67573 4.43734,-1.75834 6.29472,-3.20196 2.0066,-1.56639 3.63181,-3.51492 4.87043,-5.62219 1.51017,-2.57174 2.48441,-5.35494 3.11247,-8.1061 1.92901,-8.46549 1.08784,-17.09143 -0.0845,-24.21657 0.59934,7.18428 0.88769,15.81462 -1.36048,23.85067 -0.72924,2.60982 -1.75517,5.19991 -3.23788,7.50895 -1.21031,1.88643 -2.73744,3.60022 -4.55514,4.92478 -1.67617,1.22752 -3.61079,2.13214 -5.6566,2.68516 -2.12108,0.57543 -4.36454,0.77394 -6.62629,0.7015 -5.20186,-0.16134 -10.35336,-1.73885 -15.30205,-3.90743 -1.48272,-0.65285 -2.9414,-1.3622 -4.37636,-2.12183 z"
         style="fill:#aa4400;fill-opacity:1;stroke:none;stroke-width:0.264583px;stroke-linecap:butt;stroke-linejoin:miter;stroke-opacity:1" />
      <path
         id="path1081"
         d="m 139.68487,140.62977 c 2.33093,-1.51048 4.81629,-2.62226 7.39331,-3.18306 0,0 1e-5,0 1e-5,0 v 0 c 2.35438,-0.51862 4.70308,-0.59134 6.89701,-0.32955 v 0 0 c 0.73135,0.0874 1.43504,0.208 2.11904,0.37056 v 0 c 0.19798,0.0471 0.39253,0.097 0.58513,0.15304 v 0 c 0,0 0,0 0,0 0.0518,0.0151 0.10318,0.0305 0.15432,0.0467 0,0 0,0 0,0 0.0134,0.004 0.0268,0.009 0.0401,0.0129 0.005,0.002 0.01,0.003 0.0145,0.005 -0.004,-0.003 -0.008,-0.006 -0.0123,-0.009 -0.0114,-0.008 -0.0228,-0.0166 -0.0343,-0.0248 0,0 0,0 0,0 -0.0438,-0.0313 -0.0884,-0.062 -0.13332,-0.0922 0,0 0,0 0,0 v 0 c -0.16766,-0.11278 -0.34163,-0.22018 -0.52065,-0.32423 v 0 c -0.61841,-0.35946 -1.29145,-0.67517 -2.01172,-0.94728 v 0 -1e-5 c -2.17196,-0.82068 -4.72354,-1.21243 -7.42255,-0.9423 v 0 c 0,0 0,0 0,0 -2.9671,0.30428 -5.87792,1.38894 -8.48494,3.07816 -0.62348,0.40428 -1.22391,0.83945 -1.7988,1.30122 0,0 0,0 0,0 -5.02841,4.04606 -7.95324,9.52157 -9.51452,14.00008 2.84436,-3.73579 6.49261,-8.52079 11.0931,-11.97127 0,0 0,0 0,0 0.53175,-0.39947 1.07794,-0.78188 1.63665,-1.14364 z"
         style="fill:#aa4400;fill-opacity:1;stroke:none;stroke-width:0.264583px;stroke-linecap:butt;stroke-linejoin:miter;stroke-opacity:1" />
      <path
         id="path1091"
         d="m 148.2782,145.30804 c -0.66179,0.16014 -1.3059,0.35643 -1.9308,0.57588 -3.33313,1.16162 -6.26302,2.92606 -8.71694,4.77587 v 0 0 0 c -0.99405,0.74795 -1.90242,1.50641 -2.72379,2.28524 v 0 c -0.25918,0.2458 -0.50799,0.49017 -0.74213,0.74396 v 0 c 0,0 0,0 0,0 -0.0666,0.0722 -0.13222,0.14464 -0.19349,0.22096 0,0 0,0 0,0 -0.0174,0.0216 -0.0345,0.0434 -0.0498,0.0668 -0.007,0.011 -0.0169,0.0216 -0.0176,0.0359 0.004,-0.0108 0.0164,-0.0179 0.0266,-0.0254 0.0216,-0.0159 0.0448,-0.0302 0.0681,-0.0442 0,0 0,0 0,0 0.0823,-0.0495 0.16725,-0.0944 0.25388,-0.13989 0,0 0,0 0,0 v 0 c 0.30384,-0.15924 0.60853,-0.30626 0.92897,-0.46087 v 0 c 1.02608,-0.49459 2.03993,-0.96405 3.16702,-1.47829 v 0 0 0 c 2.73118,-1.24369 5.7271,-2.5878 8.80344,-3.54023 0.58248,-0.17867 1.16404,-0.34535 1.74201,-0.48708 0.83211,-0.20443 1.65466,-0.35665 2.47145,-0.42177 1.17884,-0.0758 2.30166,-0.0353 3.20588,0.39043 0.92618,0.37426 1.695,1.26524 2.18235,2.255 0.83495,1.70626 1.04334,3.87277 1.17299,5.65173 0.50489,-1.72715 0.91454,-3.90812 0.35311,-6.18778 -0.35054,-1.3969 -1.21754,-2.79092 -2.66545,-3.67996 -1.36946,-0.78346 -2.92755,-1.03982 -4.39638,-0.96107 -1.00453,0.0412 -1.98712,0.19484 -2.93933,0.42488 z"
         style="fill:#aa4400;fill-opacity:1;stroke:none;stroke-width:0.264583px;stroke-linecap:butt;stroke-linejoin:miter;stroke-opacity:1" />
      <path
         id="path1101"
         d="m 164.09115,148.12887 c 0.12496,-1.92077 -0.0794,-3.80254 -0.64825,-5.55812 0,0 0,0 0,0 v 0 c -0.45775,-1.39374 -1.14304,-2.60196 -1.98326,-3.55423 v 0 c -0.25466,-0.28841 -0.52101,-0.54904 -0.79488,-0.78121 v 0 c -0.0757,-0.0642 -0.15377,-0.12682 -0.22883,-0.18797 0,0 0,0 0,0 -0.0201,-0.0163 -0.0402,-0.0324 -0.0588,-0.0498 0,0 0,0 0,0 -0.007,-0.007 -0.0212,-0.0151 -0.0165,-0.0219 -0.007,0.009 0.005,0.0194 0.009,0.0283 0,0 0,0 0,0 0.0124,0.0229 0.0264,0.0445 0.0403,0.0664 0,0 0,0 0,0 0.0525,0.0824 0.10664,0.16449 0.15915,0.24788 v 0 c 0.18871,0.29958 0.36578,0.61367 0.53044,0.9426 v 0 c 0.54495,1.08703 0.93791,2.29062 1.18716,3.61093 v 0 c 0,0 0,0 0,0 0.32471,1.67518 0.39846,3.37139 0.27199,5.15297 -0.26068,3.69143 -1.41388,7.62918 -2.19604,10.5303 1.71405,-2.57176 3.4576,-6.28948 3.72813,-10.4261 z"
         style="fill:#aa4400;fill-opacity:1;stroke:none;stroke-width:0.264583px;stroke-linecap:butt;stroke-linejoin:miter;stroke-opacity:1" />
      <path
         id="path1111"
         d="m 70.542096,151.12128 c 0.266457,-1.95972 0.432143,-3.91988 0.522673,-5.85929 -0.367752,-7.62295 -1.006184,-14.78122 -1.844347,-20.65075 -0.493759,5.91101 -0.715162,13.03698 -0.639567,20.60368 -0.165025,1.8777 -0.363086,3.76273 -0.618793,5.63673 -0.497021,3.64935 -1.196357,7.1364 -2.253209,10.49585 0,0 0,0 0,0 -0.804536,2.56578 -1.774872,4.92077 -3.027344,7.0607 -1.322324,2.25854 -2.89184,4.15055 -4.682711,5.64981 2.080394,-1.06163 4.07667,-2.7122 5.793295,-4.88859 1.623425,-2.05686 2.936905,-4.45358 3.980266,-7.08849 0,0 1e-6,0 1e-6,0 1.367629,-3.46383 2.251186,-7.15269 2.769736,-10.95965 z"
         style="fill:#ffb380;fill-opacity:1;stroke:none;stroke-width:0.264583px;stroke-linecap:butt;stroke-linejoin:miter;stroke-opacity:1" />
      <path
         id="path1121"
         d="m 87.494374,208.17891 c -0.796455,-0.33732 -1.580349,-0.70374 -2.349398,-1.09818 -3.515738,-1.80023 -6.720018,-4.16999 -9.583613,-6.83592 -5.344225,-4.96607 -9.476595,-10.90073 -12.710106,-16.60903 -1.491093,-3.0997 -2.936502,-6.03536 -4.321426,-8.77701 1.018544,2.8987 2.139536,5.98577 3.351214,9.22907 2.734876,6.06161 6.606693,12.42123 12.045067,17.85272 2.91035,2.90163 6.264032,5.47961 10.02861,7.44261 0.825282,0.42967 1.667915,0.82676 2.525327,1.19001 3.319086,1.40565 6.831475,2.2926 10.382761,2.61548 5.44803,0.48778 10.78622,-0.33061 15.61578,-1.86319 7.07217,-2.24431 13.14521,-5.91745 17.94766,-9.47544 -5.2067,2.89724 -11.5443,5.96096 -18.45402,7.69502 -4.72641,1.18587 -9.81479,1.75491 -14.85803,1.17493 -3.28861,-0.37334 -6.539363,-1.23587 -9.619826,-2.54107 z"
         style="fill:#000000;stroke:none;stroke-width:0.264583px;stroke-linecap:butt;stroke-linejoin:miter;stroke-opacity:1" />
      <path
         id="path1131"
         d="m 166.85707,122.26182 c -0.0589,-0.26552 -0.11917,-0.52939 -0.18049,-0.79156 -1.01391,-4.49744 -2.557,-8.7241 -4.25264,-12.44472 -0.96843,-2.00261 -1.93057,-3.85825 -2.86626,-5.52781 0.40651,1.87057 0.91424,3.89218 1.51279,6.02309 1.00788,3.93554 2.13856,8.16281 3.07056,12.50721 0.0539,0.26125 0.10822,0.52214 0.16268,0.78309 0.80538,3.85242 1.53259,7.30085 1.01007,10.7083 0,0 0,1e-5 0,1e-5 -0.21934,1.30332 -0.59608,2.51507 -1.45904,3.28779 -0.96811,0.95695 -2.62365,1.20511 -4.02799,1.16977 1.33493,0.44522 3.09761,0.66804 4.6971,-0.25864 1.31291,-0.82551 2.17693,-2.26467 2.58765,-3.79952 0,0 0,0 0,0 1.07268,-3.77422 0.60711,-7.76364 -0.25443,-11.65701 z"
         style="fill:#ffb380;fill-opacity:1;stroke:none;stroke-width:0.264583px;stroke-linecap:butt;stroke-linejoin:miter;stroke-opacity:1" />
      <path
         id="path1141"
         d="m 172.18052,94.364165 c -1.00231,-0.231253 -2.00921,-0.395749 -3.00564,-0.503099 -3.13342,-0.08781 -6.08896,0.09592 -8.54882,0.5348 2.35839,0.826566 5.20129,1.477665 8.25537,1.888414 0.92652,0.203457 1.8508,0.40648 2.77388,0.620664 1.38614,0.320761 2.70665,0.652279 4.02435,1.038556 2.49338,0.742365 4.44288,1.454308 6.33263,2.61176 -1.0586,-1.902804 -3.02049,-3.550398 -5.52458,-4.718819 -1.35955,-0.639219 -2.81119,-1.126253 -4.30719,-1.472276 z"
         style="fill:#000000;stroke:none;stroke-width:0.264583px;stroke-linecap:butt;stroke-linejoin:miter;stroke-opacity:1" />
      <path
         id="path1151"
         d="m 175.93778,113.9099 c -1.52521,2.99156 -3.07693,5.57181 -4.95485,7.95709 0,0 0,0 0,0 -0.72336,0.88559 -1.38284,1.67479 -2.33633,1.95825 -0.421,0.14177 -0.92655,0.0414 -1.39224,0.063 0.43835,0.0838 0.92446,0.2892 1.45216,0.24315 1.10556,-0.12009 2.07654,-0.85557 2.90794,-1.69496 0,0 0,0 0,0 2.21929,-2.16232 4.06891,-4.82259 5.62882,-7.85816 2.3437,-4.56367 3.92548,-9.85695 4.94,-13.55946 -1.92349,3.49929 -3.93105,8.35443 -6.2455,12.89108 z"
         style="fill:#000000;stroke:none;stroke-width:0.264583px;stroke-linecap:butt;stroke-linejoin:miter;stroke-opacity:1" />
      <path
         id="path1161"
         d="m 140.18974,86.638313 c 3.21018,0.741947 6.25868,1.624209 9.22779,2.684947 0,0 0,10e-7 0,10e-7 v 0 c 2.65897,0.948375 5.02878,1.951327 7.25332,3.10811 v 0 c 0.6484,0.337154 1.26244,0.675051 1.85644,1.036154 v 0 c 0.16024,0.09742 0.31732,0.195396 0.47189,0.296929 v 0 c 1e-5,0 1e-5,0 1e-5,0 0.0402,0.02643 0.0802,0.05302 0.11975,0.08006 0,0 0,0 0,0 0.0139,0.0095 0.0279,0.01912 0.0416,0.02885 -0.0104,-0.01328 -0.0212,-0.02647 -0.032,-0.03954 0,-1e-6 0,-1e-6 0,-1e-6 -0.0305,-0.03721 -0.0615,-0.07406 -0.0929,-0.110784 0,-10e-7 0,-10e-7 0,-10e-7 v 0 c -0.12078,-0.141202 -0.24672,-0.279955 -0.37653,-0.417943 v 0 c -0.4805,-0.510763 -1.00661,-1.002909 -1.57347,-1.487145 v 0 c -1.93834,-1.65576 -4.24084,-3.126271 -6.8658,-4.40059 v 0 c 0,0 0,-10e-7 0,-10e-7 -2.93937,-1.425129 -6.11378,-2.53256 -9.44399,-3.306626 -7.61429,-1.76737 -15.06574,-1.570045 -20.90539,-0.523059 5.95752,0.652495 12.99817,1.356088 20.31928,3.050639 z"
         style="fill:#000000;stroke:none;stroke-width:0.264583px;stroke-linecap:butt;stroke-linejoin:miter;stroke-opacity:1" />
      <path
         id="path1171"
         d="m 144.47012,121.38597 c 0.3865,-0.16868 0.76648,-0.35177 1.13896,-0.54877 1.94748,-1.03342 3.65289,-2.39786 5.10368,-3.92861 v 0 c 2.74566,-2.89938 4.59187,-6.26539 5.81539,-9.45176 v 0 h 1e-5 v 0 c 0.46004,-1.19526 0.83207,-2.36623 1.12011,-3.5063 v 0 c 0.0868,-0.34354 0.16563,-0.68281 0.2347,-1.01964 v 0 c 0,0 0,0 0,-1e-5 0.0187,-0.0914 0.0367,-0.18255 0.0537,-0.27359 0,0 0,0 0,0 0.004,-0.0238 0.009,-0.0476 0.013,-0.0714 0.001,-0.008 0.003,-0.0168 0.004,-0.0252 -0.003,0.008 -0.007,0.0155 -0.0106,0.0232 -0.0101,0.0219 -0.0203,0.0437 -0.0305,0.0656 0,0 0,0 0,0 -0.0392,0.0836 -0.0793,0.16706 -0.11999,0.25079 0,0 0,0 0,0 v 0 c -0.14983,0.30829 -0.3058,0.6157 -0.46792,0.92735 v 0 c -0.53825,1.03464 -1.12746,2.08128 -1.77655,3.14885 v 0 0 0 c -1.72578,2.83364 -3.8464,5.79637 -6.50299,8.24816 v 0 c -1.40263,1.29522 -2.95195,2.44858 -4.6374,3.31345 -0.32066,0.16518 -0.64678,0.3201 -0.97755,0.46436 -1.50123,0.65526 -3.09252,1.08852 -4.70074,1.26861 -2.39835,0.27752 -4.85895,-0.0107 -7.16268,-0.58513 -3.40789,-0.85097 -6.62448,-2.36882 -9.29262,-3.75911 2.2447,2.03855 5.16886,4.15509 8.73086,5.52405 2.40325,0.92368 5.11741,1.46715 7.94008,1.28838 1.89365,-0.12607 3.76782,-0.58705 5.52477,-1.3533 z"
         style="fill:#000000;stroke:none;stroke-width:0.264583px;stroke-linecap:butt;stroke-linejoin:miter;stroke-opacity:1" />
      <path
         id="path1181"
         d="m 122.47716,102.67885 c -0.001,-0.0906 -0.003,-0.18116 -0.004,-0.2718 -0.0402,-2.924585 -0.26997,-5.837302 -1.39723,-8.483996 -0.37733,-0.952455 -0.97648,-1.893002 -1.85759,-2.452329 -0.90825,-0.532162 -1.88387,-0.372877 -2.55402,0.0013 0.76348,-0.06173 1.59045,0.169598 1.98068,0.698979 0.4973,0.568679 0.65371,1.352325 0.84525,2.241657 0.47827,2.568876 0.32845,5.017031 0.3841,8.035859 -1.9e-4,-0.0153 0.004,0.27953 0.003,0.26427 0.0404,3.00316 0.10609,5.88622 0.51636,8.70217 0,0 0,0 0,0 0.16535,1.14844 0.37266,2.2436 0.75904,3.26767 0.13532,0.36308 0.29815,0.72137 0.523,1.02934 0.15322,0.21866 0.36389,0.41796 0.60123,0.47807 -0.19063,-0.15343 -0.26557,-0.37959 -0.3276,-0.60926 -0.082,-0.33171 -0.0949,-0.66983 -0.1032,-1.03484 -0.0184,-1.04445 0.089,-2.01643 0.18464,-3.18164 0,0 0,0 0,0 0.2252,-2.6375 0.4848,-5.71815 0.44643,-8.68545 z"
         style="fill:#000000;stroke:none;stroke-width:0.264583px;stroke-linecap:butt;stroke-linejoin:miter;stroke-opacity:1" />
      <path
         id="path1211"
         d="m 56.257738,101.35625 c -0.171771,-1.791874 -0.11358,-3.587403 0.206242,-5.337057 0,0 0,-10e-7 0,-10e-7 0.367117,-2.00043 1.038757,-3.906976 2.133792,-5.489998 0.971177,-1.395217 2.255231,-2.545511 3.748211,-3.089913 1.626574,-0.632389 3.546258,-0.498966 5.235822,0.05683 2.658513,0.875826 4.988724,2.74317 6.854554,4.506578 -1.512302,-2.083353 -3.560096,-4.333484 -6.376682,-5.682764 -1.824313,-0.871854 -4.065755,-1.261776 -6.284689,-0.660679 -1.987787,0.572331 -3.730459,1.864013 -5.002232,3.534583 -1.420368,1.855064 -2.326528,4.059923 -2.788255,6.345753 0,10e-7 0,2e-6 0,2e-6 -0.404302,1.995056 -0.498207,4.036878 -0.310228,6.060126 0.339939,3.65121 1.588526,7.15696 3.470253,10.17269 4.507531,7.19035 11.906255,10.89792 17.959024,12.4356 -5.639003,-2.61709 -12.254107,-6.98238 -15.926332,-13.636 -1.560929,-2.81267 -2.610978,-5.99018 -2.91948,-9.21575 z"
         style="fill:#ffb380;fill-opacity:1;stroke:none;stroke-width:0.264583px;stroke-linecap:butt;stroke-linejoin:miter;stroke-opacity:1" />
      <path
         id="path1191"
         d="m 93.01437,83.975788 c 1.657285,-0.01836 3.304038,-0.0289 4.952492,-0.03946 7.453808,0.244869 14.493478,0.168463 20.299998,-0.219807 -5.74028,-0.977188 -12.75896,-1.770872 -20.220685,-2.28745 -1.66397,-0.05056 -3.341501,-0.07074 -5.024617,-0.05263 -4.007573,0.04415 -7.932591,0.30425 -11.736236,0.848549 -5.170284,0.724094 -9.548066,1.765472 -13.130582,4.035147 4.095715,-1.399707 8.06112,-1.635565 13.338157,-1.946179 3.790706,-0.2092 7.542152,-0.295126 11.521473,-0.338178 z"
         style="fill:#6c5353;stroke:none;stroke-width:0.264583px;stroke-linecap:butt;stroke-linejoin:miter;stroke-opacity:1" />
      <path
         id="path1201"
         d="m 94.753772,91.968728 c 2.421762,-0.193557 4.760192,-0.365772 7.113178,-0.4565 5.3597,-0.209282 10.49083,-0.122186 14.79649,-0.178506 -4.15731,-1.088994 -9.29202,-1.998463 -14.8042,-2.171156 -2.423897,-0.07421 -4.862908,0.01898 -7.311964,0.213826 -0.766017,0.06117 -1.529478,0.131992 -2.289493,0.210084 -2.876171,0.293441 -5.500092,0.591403 -8.199978,0.687567 -3.985322,0.146511 -8.067905,-0.09697 -11.360951,-0.271944 3.194476,1.066962 7.092421,2.026435 11.32443,2.322746 2.798562,0.191985 5.605492,0.05837 8.471028,-0.17419 1.292307,-0.103717 0.969152,-0.07821 2.26146,-0.181927 z"
         style="fill:#6c5353;stroke:none;stroke-width:0.264583px;stroke-linecap:butt;stroke-linejoin:miter;stroke-opacity:1" />
      <path
         id="path1221"
         d="m 99.288229,61.035073 c 0.304358,-0.774229 0.626344,-1.540061 0.966141,-2.297201 0,0 0,-1e-6 0,-1e-6 2.62991,-5.901942 6.24759,-11.315846 8.60082,-15.928239 -3.41957,3.620442 -8.00267,8.807649 -10.925721,14.846316 0,0 0,10e-7 0,10e-7 -0.382484,0.795312 -0.735739,1.605673 -1.059062,2.428786 -2.93988,7.491011 -3.040353,15.031816 -1.618026,20.901646 0.288049,-6.074436 1.2634,-12.905406 4.035848,-19.951308 z"
         style="fill:#552200;fill-opacity:1;stroke:none;stroke-width:0.264583px;stroke-linecap:butt;stroke-linejoin:miter;stroke-opacity:1" />
      <path
         id="path1231"
         d="m 139.32385,43.580457 c -4.61744,-1.756872 -9.3269,-2.907017 -14.00933,-3.297921 -5.53475,-0.482017 -10.49036,0.209561 -14.37758,2.341692 4.25691,-1.286889 8.83108,-1.201671 14.12778,-0.335107 4.45221,0.745716 8.87315,2.027236 13.33383,3.723455 0.7324,0.27831 1.4611,0.565985 2.18587,0.861862 4.92239,2.017758 9.3865,4.275274 13.42712,7.014853 1.74961,1.187944 3.31701,2.388505 4.69864,3.757466 1.14584,1.143687 2.11212,2.29659 2.68795,3.684428 -0.27661,-1.47585 -1.04896,-2.889701 -2.0433,-4.23788 -1.1947,-1.630879 -2.66569,-3.116404 -4.33316,-4.530275 -3.84701,-3.266325 -8.40286,-5.935405 -13.44246,-8.072998 -0.74449,-0.316995 -1.49645,-0.620626 -2.25536,-0.909575 z"
         style="fill:#552200;fill-opacity:1;stroke:none;stroke-width:0.264583px;stroke-linecap:butt;stroke-linejoin:miter;stroke-opacity:1" />
      <path
         id="path1241"
         d="m 165.2612,42.376954 c 1.2178,2.751998 1.84452,5.69984 1.73305,8.578445 -0.13582,4.190145 -1.95764,8.052398 -4.08479,10.945079 2.84795,-2.224012 5.5731,-5.939178 6.23099,-10.756308 0.42918,-3.266643 -0.10758,-6.686205 -1.49857,-9.821841 -0.22468,-0.506103 -0.47038,-1.001945 -0.73588,-1.485793 -1.84657,-3.391101 -4.5722,-6.123181 -7.74058,-7.806184 0,0 0,0 0,0 -3.3357,-1.78675 -6.90328,-2.077712 -9.67538,-1.123241 2.91661,-0.168669 5.95246,0.792229 8.70756,2.712751 2.62745,1.84369 4.83484,4.427657 6.42853,7.441047 0.22595,0.431077 0.43796,0.870227 0.63507,1.316045 z"
         style="fill:#552200;fill-opacity:1;stroke:none;stroke-width:0.264583px;stroke-linecap:butt;stroke-linejoin:miter;stroke-opacity:1" />
      <path
         id="path1251"
         d="m 87.320029,37.181493 c 0.185955,-0.0855 0.372438,-0.169826 0.559427,-0.252986 4.963206,-2.208281 10.261535,-3.608171 15.588664,-4.450833 10.15586,-1.61069 20.29925,-1.22111 29.4259,-0.130808 4.78125,0.858556 9.32281,1.639993 13.57224,2.335315 -4.16194,-1.108847 -8.63546,-2.261093 -13.36821,-3.443325 -9.1144,-1.719771 -19.42619,-2.567908 -29.97919,-1.14858 -5.523154,0.744991 -11.061707,2.146902 -16.293656,4.46175 -0.197393,0.08737 -0.394234,0.176083 -0.590499,0.26613 -5.168223,2.371839 -9.882176,5.644197 -13.756089,9.708876 -4.709199,4.954925 -7.981308,10.879218 -10.025511,16.877355 -2.947725,8.656454 -3.536417,17.448221 -3.29744,24.873932 0.489212,-7.399421 1.705117,-16.054829 4.960273,-24.262151 2.255422,-5.690097 5.574146,-11.239796 10.104907,-15.79654 3.719815,-3.752285 8.205848,-6.789 13.099184,-9.038135 z"
         style="fill:#552200;fill-opacity:1;stroke:none;stroke-width:0.264583px;stroke-linecap:butt;stroke-linejoin:miter;stroke-opacity:1" />
      <path
         id="path1261"
         d="m 168.52607,77.253276 c -0.14992,-1.257477 -0.36608,-2.503665 -0.65281,-3.730043 -1.1153,-4.715916 -3.36343,-8.628611 -5.72356,-11.434254 1.20861,3.461226 2.55964,7.517345 3.2927,11.926089 0.19896,1.172864 0.36586,2.350896 0.50785,3.544657 0.67762,5.67705 0.75448,11.509537 1.1176,16.089352 1.29903,-4.445878 2.18015,-10.320191 1.45822,-16.395801 z"
         style="fill:#ffb380;fill-opacity:1;stroke:none;stroke-width:0.264583px;stroke-linecap:butt;stroke-linejoin:miter;stroke-opacity:1" />
      <path
         id="path1271"
         d="m 194.24691,203.09246 c -2.70601,-4.19101 -5.67151,-8.13503 -8.90099,-11.78603 0,0 -1e-5,-1e-5 -1e-5,-1e-5 -4.04909,-4.58939 -8.29383,-8.46541 -13.18045,-11.06332 -1.77286,-0.94504 -3.58914,-1.66933 -5.45524,-1.96468 -1.46666,-0.23622 -2.94704,-0.15816 -4.17961,0.41727 1.30218,-0.39281 2.6992,-0.25819 4.0612,0.12404 1.73867,0.49289 3.35862,1.36757 4.97594,2.43175 4.46609,2.94546 8.20888,6.90268 12.01971,11.55104 0,0 1e-5,0 1e-5,0 3.01947,3.6932 5.83107,7.58926 8.47994,11.69628 8.1506,12.63294 13.97999,26.11017 18.4676,36.93795 -2.89432,-11.3746 -7.92903,-25.39353 -16.2881,-38.34429 z"
         style="fill:#000000;stroke:none;stroke-width:0.264583px;stroke-linecap:butt;stroke-linejoin:miter;stroke-opacity:1" />
      <path
         id="path1281"
         d="m 54.25629,178.03811 c 1.588054,-1.17608 2.852217,-2.68355 3.572645,-4.26027 -1.718481,0.22809 -3.529416,0.99565 -5.118145,2.1693 -1.587978,1.17605 -2.852077,2.68348 -3.572478,4.26015 1.718419,-0.22809 3.529287,-0.9956 5.117978,-2.16918 z"
         style="fill:#000000;stroke:none;stroke-width:0.264583px;stroke-linecap:butt;stroke-linejoin:miter;stroke-opacity:1" />
      <path
         id="path1583"
         d="m 136.97563,89.331577 c -1.47627,0.491341 -0.3586,3.537838 1.06909,4.54358 1.82774,1.287569 0.0985,0.02044 10.69077,3.340871 1.30562,0.409281 3.23526,-1.48442 0.26727,-4.810853 -2.96799,-3.326433 -7.73703,-4.501454 -12.02713,-3.073598 z"
         style="fill:#ffffff;fill-opacity:1;stroke:none;stroke-width:0.264583px;stroke-linecap:butt;stroke-linejoin:miter;stroke-opacity:1" />
      <path
         id="path1585"
         d="m 167.71163,97.616932 c -1.73725,-1.202713 -3.74178,-2e-6 -3.74178,1.46998 0,1.069078 2.53907,2.939968 3.74178,1.870888 1.20271,-0.4009 1.46998,-2.27179 0,-3.340868 z"
         style="fill:#ffffff;fill-opacity:1;stroke:none;stroke-width:0.264583px;stroke-linecap:butt;stroke-linejoin:miter;stroke-opacity:1" />
    </g>
  </g>
</svg>
